<?xml version="1.0" encoding="UTF-8" standalone="no"?>
<svg
   xmlns:dc="http://purl.org/dc/elements/1.1/"
   xmlns:cc="http://creativecommons.org/ns#"
   xmlns:rdf="http://www.w3.org/1999/02/22-rdf-syntax-ns#"
   xmlns:svg="http://www.w3.org/2000/svg"
   xmlns="http://www.w3.org/2000/svg"
   viewBox="0 0 646.09601 1195.6772"
   height="1195.6772"
   width="646.09601"
   xml:space="preserve"
   id="svg2"
   version="1.1"><metadata
     id="metadata8"><rdf:RDF><cc:Work
         rdf:about=""><dc:format>image/svg+xml</dc:format><dc:type
           rdf:resource="http://purl.org/dc/dcmitype/StillImage" /></cc:Work></rdf:RDF></metadata><defs
     id="defs6"><clipPath
       id="clipPath18"
       clipPathUnits="userSpaceOnUse"><path
         id="path16"
         d="M 0,896.758 H 484.572 V 0 H 0 Z" /></clipPath></defs><g
     transform="matrix(1.3333333,0,0,-1.3333333,0,1195.6773)"
     id="g10"><g
       id="g12"><g
         clip-path="url(#clipPath18)"
         id="g14"><g
           transform="translate(272.0817,730.6344)"
           id="g20"><path
             id="path22"
             style="fill:#d44125;fill-opacity:1;fillRule:nonzero;stroke:none"
             d="m 0,0 c 0,24.432 -19.806,44.239 -44.239,44.239 -24.432,0 -44.238,-19.807 -44.238,-44.239 0,-5.079 0.867,-9.954 2.442,-14.497 v 0 l 7.77,-23.107 c 1.226,-3.649 5.38,-6.635 9.23,-6.635 h 49.605 c 3.85,0 8.004,2.986 9.231,6.635 l 7.769,23.107 H -2.443 C -0.867,-9.954 0,-5.079 0,0" /></g><g
           transform="translate(284.352,651.8197)"
           id="g24"><path
             id="path26"
             style="fill:#f3c08e;fill-opacity:1;fillRule:nonzero;stroke:none"
             d="M 0,0 77.309,-76.74 53.632,-110.495 -30.97,-36.072 Z" /></g><g
           transform="translate(332.1995,548.0203)"
           id="g28"><path
             id="path30"
             style="fill:#f3c08e;fill-opacity:1;fillRule:nonzero;stroke:none"
             d="m 0,0 c 5.593,-9.92 18.169,-13.428 28.089,-7.835 9.92,5.593 13.428,18.169 7.835,28.089 C 30.331,30.174 17.755,33.682 7.835,28.089 -2.085,22.496 -5.593,9.92 0,0" /></g><g
           transform="translate(246.5505,627.3925)"
           id="g32"><path
             id="path34"
             style="fill:#fcd7b9;fill-opacity:1;fillRule:nonzero;stroke:none"
             d="m 0,0 c 3.158,-12.759 16.061,-20.541 28.82,-17.383 12.758,3.158 20.541,16.061 17.383,28.82 C 43.045,24.195 30.142,31.978 17.383,28.82 4.625,25.662 -3.158,12.759 0,0" /></g><g
           transform="translate(375.7425,623.447)"
           id="g36"><path
             id="path38"
             style="fill:#f3c08e;fill-opacity:1;fillRule:nonzero;stroke:none"
             d="M 0,0 -42.307,-53.703 -8.134,-75.915 26.477,-12.14" /></g><g
           transform="translate(348.0645,588.5759)"
           id="g40"><path
             id="path42"
             style="fill:none;stroke:#d1966c;stroke-width:1.5;stroke-linecap:round;stroke-linejoin:miter;stroke-miterlimit:10;stroke-dasharray:none;stroke-opacity:1"
             d="M 0,0 -11.107,-14.361" /></g><g
           transform="translate(127.8593,116.6616)"
           id="g44"><path
             id="path46"
             style="fill:#f4c18f;fill-opacity:1;fillRule:nonzero;stroke:none"
             d="m 0,0 -29.45,6.92 3.897,45.664 35.925,-8.442 z" /></g><g
           transform="translate(99.2543,133.4824)"
           id="g48"><path
             id="path50"
             style="fill:#491f17;fill-opacity:1;fillRule:nonzero;stroke:none"
             d="m 0,0 -25.965,-10.875 c -1.65,-0.337 -3.315,-1.955 -3.701,-3.594 l -0.221,-0.943 c -0.385,-1.64 0.641,-3.296 2.281,-3.681 l 13.552,-3.185 30.35,-7.131 c 4.874,-1.145 9.685,1.422 10.692,5.706 1.006,4.284 3.877,16.5 3.877,16.5 0,0 -29.215,7.54 -30.865,7.203" /></g><g
           transform="translate(305.5025,109.0761)"
           id="g52"><path
             id="path54"
             style="fill:#f4c18f;fill-opacity:1;fillRule:nonzero;stroke:none"
             d="m 0,0 -29.997,-3.917 -12.467,44.102 36.593,4.778 z" /></g><g
           transform="translate(272.802,114.7214)"
           id="g56"><path
             id="path58"
             style="fill:#491f17;fill-opacity:1;fillRule:nonzero;stroke:none"
             d="m 0,0 -20.457,-19.337 c -1.425,-0.898 -2.413,-2.999 -2.195,-4.669 l 0.126,-0.96 c 0.218,-1.67 1.763,-2.858 3.433,-2.64 l 13.804,1.802 30.914,4.036 c 4.964,0.649 8.56,4.749 7.991,9.112 C 33.046,-8.292 31.421,4.151 31.421,4.151 31.421,4.151 1.425,0.898 0,0" /></g><g
           transform="translate(298.489,330.3425)"
           id="g60"><path
             id="path62"
             style="fill:#113366;fill-opacity:1;fillRule:nonzero;stroke:none"
             d="M 0,0 -1.799,172.459 -79.175,160.13 c -3.741,-36.394 -3.214,-95.764 3.162,-168.723" /></g><g
           transform="translate(222.1836,323.5581)"
           id="g64"><path
             id="path66"
             style="fill:#113366;fill-opacity:1;fillRule:nonzero;stroke:none"
             d="m 0,0 c 7.272,-56.594 18.102,-116.763 33.708,-185.089 l 53.914,6.264 L 76.434,5.5" /></g><g
           transform="translate(298.3926,332.6013)"
           id="g68"><path
             id="path70"
             style="fill:#113366;fill-opacity:1;fillRule:nonzero;stroke:none"
             d="m 0,0 c 1.521,-21.123 -14.37,-39.48 -35.493,-41 -21.123,-1.521 -39.48,14.37 -41.001,35.493 -1.521,21.123 14.37,39.48 35.493,41 C -19.877,37.014 -1.521,21.123 0,0" /></g><g
           transform="translate(215.0936,765.6454)"
           id="g72"><path
             id="path74"
             style="fill:#934223;fill-opacity:1;fillRule:nonzero;stroke:none"
             d="m 0,0 c -5.305,-0.506 -9.222,-2.404 -13.92,-6.007 -9.573,-8.54 -7.773,-22.806 -7.773,-22.806 l 2.112,-17.05 H 1.138" /></g><g
           transform="translate(215.0936,765.6454)"
           id="g76"><path
             id="path78"
             style="fill:#934223;fill-opacity:1;fillRule:nonzero;stroke:none"
             d="m 0,0 c 0,0 14.745,12.342 37.692,-5.256 10.417,-9.432 9.768,-23.557 9.768,-23.557 l -2.112,-17.05 h -47.02 z" /></g><g
           transform="translate(203.1237,327.7155)"
           id="g80"><path
             id="path82"
             style="fill:#113366;fill-opacity:1;fillRule:nonzero;stroke:none"
             d="m 0,0 45.029,166.487 -80.321,9.112 C -48.76,141.583 -74.995,16.338 -74.995,16.338" /></g><g
           transform="translate(127.9894,344.2155)"
           id="g84"><path
             id="path86"
             style="fill:#113366;fill-opacity:1;fillRule:nonzero;stroke:none"
             d="m 0,0 c -14.812,-55.104 -29.115,-119.174 -40.685,-188.297 l 53.661,-10.418 61.28,179.039" /></g><g
           transform="translate(241.4654,670.9272)"
           id="g88"><path
             id="path90"
             style="fill:#e7ad7d;fill-opacity:1;fillRule:nonzero;stroke:none"
             d="m 0,0 h -26.372 l 3.165,24.189 h 20.042 z" /></g><g
           transform="translate(254.7505,727.6357)"
           id="g92"><path
             id="path94"
             style="fill:#e7ad7d;fill-opacity:1;fillRule:nonzero;stroke:none"
             d="M 0,0 C 5.563,3.295 11.564,-1.301 10.866,-7.69 10.169,-14.079 4.424,-18.693 -1.965,-17.995" /></g><g
           transform="translate(203.5942,728.2671)"
           id="g96"><path
             id="path98"
             style="fill:#e7ad7d;fill-opacity:1;fillRule:nonzero;stroke:none"
             d="m 0,0 c -5.563,3.295 -11.564,-1.301 -10.866,-7.69 0.697,-6.389 6.442,-11.003 12.831,-10.305" /></g><g
           transform="translate(249.637,672.424)"
           id="g100"><path
             id="path102"
             style="fill:#e7ad7d;fill-opacity:1;fillRule:nonzero;stroke:none"
             d="m 0,0 c 0,-11.795 -9.562,-19.176 -21.358,-19.176 -11.795,0 -21.357,7.381 -21.357,19.176 l 21.357,2.182 z" /></g><g
           transform="translate(256.6282,721.2485)"
           id="g104"><path
             id="path106"
             style="fill:#f3c08e;fill-opacity:1;fillRule:nonzero;stroke:none"
             d="m 0,0 c 0.586,-13.738 -5.496,-29.38 -13.514,-34.762 -8.019,-5.382 -21.198,-5.462 -29.289,-0.179 -8.09,5.283 -14.368,20.85 -13.951,34.594 l 0.262,8.613 c 0.417,13.743 12.008,25.057 25.758,25.141 l 4.303,0.026 c 13.75,0.085 25.479,-11.086 26.064,-24.824 z" /></g><g
           transform="translate(216.5312,717.15)"
           id="g108"><path
             id="path110"
             style="fill:#2e1112;fill-opacity:1;fillRule:nonzero;stroke:none"
             d="m 0,0 c 0,-2.321 -1.113,-4.202 -2.486,-4.202 -1.373,0 -2.486,1.881 -2.486,4.202 0,2.321 1.113,4.202 2.486,4.202 C -1.113,4.202 0,2.321 0,0" /></g><g
           transform="translate(242.3829,717.15)"
           id="g112"><path
             id="path114"
             style="fill:#2e1112;fill-opacity:1;fillRule:nonzero;stroke:none"
             d="m 0,0 c 0,-2.321 -1.113,-4.202 -2.486,-4.202 -1.373,0 -2.486,1.881 -2.486,4.202 0,2.321 1.113,4.202 2.486,4.202 C -1.113,4.202 0,2.321 0,0" /></g><g
           transform="translate(210.5556,727.8864)"
           id="g116"><path
             id="path118"
             style="fill:none;stroke:#2e1112;stroke-width:3;stroke-linecap:round;stroke-linejoin:miter;stroke-miterlimit:10;stroke-dasharray:none;stroke-opacity:1"
             d="M 0,0 C 2.203,0.37 5.033,0.299 7.361,-1.556" /></g><g
           transform="translate(236.5007,726.4027)"
           id="g120"><path
             id="path122"
             style="fill:none;stroke:#2e1112;stroke-width:3;stroke-linecap:round;stroke-linejoin:miter;stroke-miterlimit:10;stroke-dasharray:none;stroke-opacity:1"
             d="M 0,0 C 1.886,1.197 4.521,2.231 7.387,1.426" /></g><g
           transform="translate(69.995,517.0118)"
           id="g124"><path
             id="path126"
             style="fill:#f3c08e;fill-opacity:1;fillRule:nonzero;stroke:none"
             d="m 0,0 c 0,0 5.658,-6.888 21.724,-13.664 16.066,-6.775 32.969,9.493 32.969,9.493 L 37.574,8.367 Z" /></g><g
           transform="translate(144.7077,536.623)"
           id="g128"><path
             id="path130"
             style="fill:#f3c08e;fill-opacity:1;fillRule:nonzero;stroke:none"
             d="m 0,0 c -4.109,-6.328 -13.01,-8.78 -19.78,-5.448 l -4.818,2.371 c -6.77,3.332 -9.384,11.494 -5.809,18.139 l 45.063,83.766 c 3.574,6.645 11.53,8.504 17.679,4.132 l 12.439,-8.843 c 6.149,-4.372 7.818,-13.127 3.709,-19.455 z" /></g><g
           transform="translate(159.2037,537.5236)"
           id="g132"><path
             id="path134"
             style="fill:#d3422a;fill-opacity:1;fillRule:nonzero;stroke:none"
             d="M 0,0 -77.133,49.027 -56.816,63.924 18.008,16.365 Z" /></g><g
           transform="translate(136.1268,501.697)"
           id="g136"><path
             id="path138"
             style="fill:#ee4d2d;fill-opacity:1;fillRule:nonzero;stroke:none"
             d="M 0,0 -77.133,49.027 -54.056,84.854 23.077,35.827 Z" /></g><g
           transform="translate(96.0224,594.6646)"
           id="g140"><path
             id="path142"
             style="fill:none;stroke:#bc361c;stroke-width:1.5;stroke-linecap:round;stroke-linejoin:miter;stroke-miterlimit:10;stroke-dasharray:none;stroke-opacity:1"
             d="M 0,0 72.007,-45.363" /></g><g
           transform="translate(136.1268,501.697)"
           id="g144"><path
             id="path146"
             style="fill:#bc361c;fill-opacity:1;fillRule:nonzero;stroke:none"
             d="M 0,0 14.053,12.216 41.085,52.191 23.077,35.827 Z" /></g><g
           transform="translate(70.6601,545.4856)"
           id="g148"><path
             id="path150"
             style="fill:#f3c08e;fill-opacity:1;fillRule:nonzero;stroke:none"
             d="m 0,0 c 2.218,2.856 8.103,9.191 8.115,9.203 1.838,1.892 4.339,5.033 7.346,4.465 3.403,-0.643 3.328,-5.247 1.338,-7.324 C 14.866,4.326 8.039,-5.734 8.039,-5.734" /></g><g
           transform="translate(79.3353,542.1466)"
           id="g152"><path
             id="path154"
             style="fill:#f3c08e;fill-opacity:1;fillRule:nonzero;stroke:none"
             d="m 0,0 c 0.018,-2.741 -2.19,-4.977 -4.931,-4.995 -2.741,-0.018 -4.977,2.19 -4.995,4.931 -0.018,2.741 2.19,4.977 4.931,4.995 C -2.254,4.949 -0.018,2.741 0,0" /></g><g
           transform="translate(76.3184,537.5537)"
           id="g156"><path
             id="path158"
             style="fill:#f3c08e;fill-opacity:1;fillRule:nonzero;stroke:none"
             d="m 0,0 c 2.218,2.856 9.485,10.339 9.497,10.351 1.838,1.892 4.339,5.034 7.346,4.466 C 20.246,14.174 20.172,9.57 18.182,7.493 16.248,5.474 8.442,-5.238 8.442,-5.238" /></g><g
           transform="translate(85.2807,534.5546)"
           id="g160"><path
             id="path162"
             style="fill:#f3c08e;fill-opacity:1;fillRule:nonzero;stroke:none"
             d="m 0,0 c 0.018,-2.741 -2.19,-4.977 -4.931,-4.995 -2.741,-0.018 -4.977,2.19 -4.995,4.931 -0.018,2.741 2.19,4.977 4.931,4.995 C -2.254,4.949 -0.018,2.741 0,0" /></g><g
           transform="translate(84.3465,532.6074)"
           id="g164"><path
             id="path166"
             style="fill:#f3c08e;fill-opacity:1;fillRule:nonzero;stroke:none"
             d="m 0,0 c 2.218,2.856 9.341,9.27 9.353,9.282 1.838,1.892 4.339,5.034 7.346,4.466 3.404,-0.643 3.329,-5.247 1.339,-7.324 C 16.104,4.406 9.305,-5.84 9.305,-5.84" /></g><g
           transform="translate(93.8343,528.5437)"
           id="g168"><path
             id="path170"
             style="fill:#f3c08e;fill-opacity:1;fillRule:nonzero;stroke:none"
             d="m 0,0 c 0.02,-3.111 -2.485,-5.649 -5.596,-5.669 -3.111,-0.02 -5.649,2.486 -5.669,5.596 -0.02,3.111 2.485,5.649 5.596,5.669 C -2.558,5.616 -0.02,3.111 0,0" /></g><g
           transform="translate(92.1375,525.4528)"
           id="g172"><path
             id="path174"
             style="fill:#f3c08e;fill-opacity:1;fillRule:nonzero;stroke:none"
             d="m 0,0 c 2.205,2.866 7.324,8.592 7.335,8.604 1.83,1.9 4.317,5.052 7.326,4.498 3.407,-0.628 3.352,-5.233 1.371,-7.318 L 8.269,-5.446" /></g><g
           transform="translate(101.0414,522.4918)"
           id="g176"><path
             id="path178"
             style="fill:#f3c08e;fill-opacity:1;fillRule:nonzero;stroke:none"
             d="m 0,0 c 0.03,-2.741 -2.168,-4.987 -4.909,-5.017 -2.741,-0.029 -4.987,2.168 -5.017,4.909 -0.029,2.741 2.168,4.987 4.909,5.017 C -2.276,4.939 -0.03,2.741 0,0" /></g><g
           transform="translate(68.5477,536.2728)"
           id="g180"><path
             id="path182"
             style="fill:#f3c08e;fill-opacity:1;fillRule:nonzero;stroke:none"
             d="m 0,0 c -0.603,-5.629 -0.886,-13.724 1.508,-18.831 2.988,-6.373 19.034,-10.609 26.13,-10.274 5.332,0.252 3.794,7.673 4.417,13.193 L 11.012,-2.47 2.333,9.444 C 2.333,9.444 -0.391,6.679 0,0" /></g><g
           transform="translate(88.6147,554.3136)"
           id="g184"><path
             id="path186"
             style="fill:#f3c08e;fill-opacity:1;fillRule:nonzero;stroke:none"
             d="m 0,0 c -0.381,-2.15 -2.433,-3.585 -4.583,-3.204 -2.15,0.381 -3.585,2.433 -3.204,4.583 0.381,2.15 2.433,3.585 4.583,3.204 C -1.054,4.202 0.381,2.15 0,0" /></g><g
           transform="translate(82.565,558.3904)"
           id="g188"><path
             id="path190"
             style="fill:#f3c08e;fill-opacity:1;fillRule:nonzero;stroke:none"
             d="m 0,0 c 2.578,1.348 9.003,4.014 9.016,4.019 1.977,0.769 4.858,2.231 6.868,0.809 2.275,-1.609 0.681,-4.952 -1.47,-5.806 -2.09,-0.83 -10.45,-5.906 -10.45,-5.906" /></g><g
           transform="translate(75.9599,536.7683)"
           id="g192"><path
             id="path194"
             style="fill:#f3c08e;fill-opacity:1;fillRule:nonzero;stroke:none"
             d="M 0,0 C 2.389,-1.262 3.151,-4.053 1.703,-6.235 0.255,-8.417 -2.856,-9.163 -5.245,-7.901 -7.634,-6.64 -8.396,-3.848 -6.948,-1.667 -5.499,0.515 -2.389,1.261 0,0" /></g><g
           transform="translate(68.3003,531.8158)"
           id="g196"><path
             id="path198"
             style="fill:#f3c08e;fill-opacity:1;fillRule:nonzero;stroke:none"
             d="m 0,0 c -0.595,4.761 -0.817,9.64 -0.994,14.433 -0.106,2.849 0.455,6.326 2.365,8.55 0.523,0.609 1.193,1.146 1.986,1.271 1.162,0.183 2.308,-0.583 2.931,-1.58 1.268,-2.031 1.187,-4.748 1.501,-7.038 0.354,-2.579 0.767,-5.15 1.188,-7.719 0.346,-2.113 0.7,-4.225 1.067,-6.334" /></g><g
           transform="translate(95.8003,547.4871)"
           id="g200"><path
             id="path202"
             style="fill:#f3c08e;fill-opacity:1;fillRule:nonzero;stroke:none"
             d="m 0,0 c -0.381,-2.15 -2.433,-3.585 -4.583,-3.204 -2.15,0.381 -3.585,2.433 -3.204,4.583 0.381,2.15 2.433,3.585 4.583,3.204 C -1.054,4.202 0.381,2.15 0,0" /></g><g
           transform="translate(89.7211,551.469)"
           id="g204"><path
             id="path206"
             style="fill:#f3c08e;fill-opacity:1;fillRule:nonzero;stroke:none"
             d="m 0,0 c 2.578,1.348 11.869,5.768 11.881,5.772 1.978,0.77 4.859,2.232 6.869,0.81 2.275,-1.609 0.68,-4.952 -1.471,-5.806 -2.09,-0.83 -11.89,-6.383 -11.89,-6.383" /></g><g
           transform="translate(103.7935,541.84)"
           id="g208"><path
             id="path210"
             style="fill:#f3c08e;fill-opacity:1;fillRule:nonzero;stroke:none"
             d="m 0,0 c -0.381,-2.15 -2.433,-3.585 -4.583,-3.204 -2.15,0.381 -3.585,2.433 -3.204,4.583 0.381,2.15 2.433,3.585 4.583,3.204 C -1.054,4.202 0.381,2.15 0,0" /></g><g
           transform="translate(97.7437,545.9166)"
           id="g212"><path
             id="path214"
             style="fill:#f3c08e;fill-opacity:1;fillRule:nonzero;stroke:none"
             d="m 0,0 c 2.578,1.348 9.003,4.014 9.016,4.019 1.978,0.769 4.859,2.231 6.868,0.81 2.275,-1.61 0.681,-4.953 -1.47,-5.807 -2.09,-0.83 -10.45,-5.906 -10.45,-5.906" /></g><g
           transform="translate(109.3383,533.8835)"
           id="g216"><path
             id="path218"
             style="fill:#f3c08e;fill-opacity:1;fillRule:nonzero;stroke:none"
             d="m 0,0 c -0.381,-2.15 -2.433,-3.585 -4.583,-3.204 -2.15,0.381 -3.585,2.433 -3.204,4.583 0.381,2.15 2.433,3.585 4.583,3.204 C -1.054,4.202 0.381,2.15 0,0" /></g><g
           transform="translate(103.2885,537.9603)"
           id="g220"><path
             id="path222"
             style="fill:#f3c08e;fill-opacity:1;fillRule:nonzero;stroke:none"
             d="m 0,0 c 2.578,1.348 9.003,4.014 9.016,4.019 1.978,0.769 4.859,2.231 6.868,0.809 2.275,-1.609 0.681,-4.952 -1.47,-5.806 -2.09,-0.83 -10.45,-5.906 -10.45,-5.906" /></g><g
           transform="translate(102.3588,521.652)"
           id="g224"><path
             id="path226"
             style="fill:none;stroke:#d1966c;stroke-width:1.5;stroke-linecap:round;stroke-linejoin:miter;stroke-miterlimit:10;stroke-dasharray:none;stroke-opacity:1"
             d="M 0,0 C 0,0 -3.584,-7.348 -6.535,-9.257" /></g><g
           transform="translate(164.7249,653.1479)"
           id="g228"><path
             id="path230"
             style="fill:#ee4d2d;fill-opacity:1;fillRule:nonzero;stroke:none"
             d="m 0,0 -33.004,-51.435 c -1.486,-2.314 -0.947,-5.617 1.196,-7.34 l 35.444,-28.49 c 2.143,-1.722 5.356,-1.419 7.139,0.675 l 20.143,23.652" /></g><g
           transform="translate(291.9608,653.1481)"
           id="g232"><path
             id="path234"
             style="fill:#ee4d2d;fill-opacity:1;fillRule:nonzero;stroke:none"
             d="m 0,0 40.923,-39.327 c 1.983,-1.906 2.047,-5.089 0.144,-7.073 L 9.586,-79.215 C 7.682,-81.2 4.457,-81.313 2.42,-79.466 l -23.021,20.862" /></g><g
           transform="translate(274.0996,614.2128)"
           id="g236"><path
             id="path238"
             style="fill:#ee4d2d;fill-opacity:1;fillRule:nonzero;stroke:none"
             d="m 0,0 c 0,-5.852 -4.744,-10.596 -10.596,-10.596 -5.852,0 -10.596,4.744 -10.596,10.596 0,5.852 4.744,10.596 10.596,10.596 C -4.744,10.596 0,5.852 0,0" /></g><g
           transform="translate(291.9608,653.1479)"
           id="g240"><path
             id="path242"
             style="fill:#ee4d2d;fill-opacity:1;fillRule:nonzero;stroke:none"
             d="m 0,0 c -3.618,3.276 -7.774,6.545 -12.211,9.131 -7.981,4.701 -24.517,9.31 -29.71,10.691 -0.237,0.063 -2.67,0.112 -6.276,0.146 -0.75,-7.812 -7.328,-13.922 -15.336,-13.922 -8.011,0 -14.59,6.113 -15.337,13.928 -3.778,-0.033 -6.347,-0.08 -6.584,-0.144 -5.122,-1.373 -21.575,-5.99 -29.571,-10.699 -4.437,-2.586 -8.593,-5.855 -12.211,-9.131 l -9.591,-179.196 H 8.591 Z" /></g><g
           transform="translate(294.5376,601.3992)"
           id="g244"><path
             id="path246"
             style="fill:none;stroke:#d3422a;stroke-width:1.5;stroke-linecap:round;stroke-linejoin:miter;stroke-miterlimit:10;stroke-dasharray:none;stroke-opacity:1"
             d="M 0,0 1.296,-27.034" /></g><g
           transform="translate(162.3315,602.95)"
           id="g248"><path
             id="path250"
             style="fill:none;stroke:#d3422a;stroke-width:1.5;stroke-linecap:round;stroke-linejoin:miter;stroke-miterlimit:10;stroke-dasharray:none;stroke-opacity:1"
             d="M 0,0 -1.263,-26.336" /></g><g
           transform="translate(208.7095,671.8331)"
           id="g252"><path
             id="path254"
             style="fill:none;stroke:#d3422a;stroke-width:1.5;stroke-linecap:round;stroke-linejoin:miter;stroke-miterlimit:10;stroke-dasharray:none;stroke-opacity:1"
             d="m 0,0 c 0,0 2.857,-17.787 20.498,-17.787 0,0 15.587,1.088 18.939,16.882" /></g><g
           transform="translate(220.601,702.3325)"
           id="g256"><path
             id="path258"
             style="fill:none;stroke:#d1966c;stroke-width:1.5;stroke-linecap:round;stroke-linejoin:miter;stroke-miterlimit:10;stroke-dasharray:none;stroke-opacity:1"
             d="M 0,0 C 0,0 5.907,-3.801 12.67,0" /></g><g
           transform="translate(227.0749,716.1378)"
           id="g260"><path
             id="path262"
             style="fill:none;stroke:#d1966c;stroke-width:1.5;stroke-linecap:round;stroke-linejoin:round;stroke-miterlimit:10;stroke-dasharray:none;stroke-opacity:1"
             d="M 0,0 -3.658,-6.567 1.205,-7.602" /></g><g
           transform="translate(207.7724,752.485)"
           id="g264"><path
             id="path266"
             style="fill:#934223;fill-opacity:1;fillRule:nonzero;stroke:none"
             d="m 0,0 c 0,0 -2.933,-6.081 0,-14.904 21.482,-1.76 39.301,0 39.301,0 0,0 2.628,6.57 1.126,14.266 l -19.689,6.57 z" /></g><g
           transform="translate(203.6432,329.916)"
           id="g268"><path
             id="path270"
             style="fill:#113366;fill-opacity:1;fillRule:nonzero;stroke:none"
             d="m 0,0 c -4.263,-20.744 -24.536,-34.105 -45.28,-29.841 -20.745,4.263 -34.105,24.536 -29.842,45.28 4.264,20.745 24.537,34.105 45.281,29.842 C -9.097,41.017 4.264,20.744 0,0" /></g><g
           transform="translate(418.1936,610.6592)"
           id="g272"><path
             id="path274"
             style="fill:#f3c08e;fill-opacity:1;fillRule:nonzero;stroke:none"
             d="m 0,0 9.441,1.075 c 0,0 4.549,0.39 6.061,2.975 1.511,2.585 5.024,10.482 5.024,10.482 0,0 3.128,6.332 0.833,7.653 -2.295,1.321 -4.749,0.243 -5.703,-1.864 -0.955,-2.107 -2.414,-5.292 -2.414,-5.292" /></g><g
           transform="translate(404.484,619.5321)"
           id="g276"><path
             id="path278"
             style="fill:#f3c08e;fill-opacity:1;fillRule:nonzero;stroke:none"
             d="m 0,0 6.259,3.855 c 0,0 2.82,0.938 4.121,4.749 1.301,3.811 3.743,12.583 3.743,12.583 0,0 1.105,3.983 -1.298,3.88 C 10.421,24.964 8.932,21.52 7.901,19.363 6.871,17.206 4.837,13.347 3.62,12.214 2.404,11.081 -0.569,9.713 -0.569,9.713 c 0,0 -3.334,0.415 -6.909,0.617 -3.574,0.201 -5.462,1.729 -10.735,0.04" /></g><g
           transform="translate(412.8767,615.1301)"
           id="g280"><path
             id="path282"
             style="fill:#f3c08e;fill-opacity:1;fillRule:nonzero;stroke:none"
             d="m 0,0 7.47,5.054 c 0,0 2.038,1.295 2.434,4.855 1.06,5.216 2.233,16.152 2.233,16.152 0,0 0.064,4.194 -2.767,3.85 -1.391,-0.169 -2.411,-0.858 -3.157,-2 L 0.619,13.567 -3.989,9.245 -7.584,7.587" /></g><g
           transform="translate(422.5152,623.635)"
           id="g284"><path
             id="path286"
             style="fill:#f3c08e;fill-opacity:1;fillRule:nonzero;stroke:none"
             d="m 0,0 3.812,13.674 c 0.738,5.569 4.568,5.973 6.079,4.68 1.512,-1.294 0.392,-7.771 0.392,-7.771 0,0 -1.816,-10.872 -2.246,-14.926 -0.43,-4.054 -4.603,-5.177 -4.603,-5.177 0,0 -6.795,-3.351 -11.424,-4.776 -3.73,-0.542 -19.989,-2.688 -33.435,4.281 l -6.886,3.882 c 0,0 -0.034,6.087 3.249,9.828 3.283,3.74 8.739,4.62 19.553,2.532" /></g><g
           transform="translate(419.774,611.3068)"
           id="g288"><path
             id="path290"
             style="fill:none;stroke:#d1966c;stroke-width:1.5;stroke-linecap:round;stroke-linejoin:miter;stroke-miterlimit:10;stroke-dasharray:none;stroke-opacity:1"
             d="m 0,0 c 3.291,1.386 6.175,2.808 6.175,2.808 0,0 4.173,1.124 4.603,5.178 0.256,2.411 1.002,7.236 1.565,10.749" /></g><g
           transform="translate(412.8767,615.1301)"
           id="g292"><path
             id="path294"
             style="fill:none;stroke:#d1966c;stroke-width:1.5;stroke-linecap:round;stroke-linejoin:miter;stroke-miterlimit:10;stroke-dasharray:none;stroke-opacity:1"
             d="m 0,0 7.47,5.054 c 0,0 2.038,1.295 2.434,4.855" /></g><g
           transform="translate(404.484,619.5321)"
           id="g296"><path
             id="path298"
             style="fill:none;stroke:#d1966c;stroke-width:1.5;stroke-linecap:round;stroke-linejoin:miter;stroke-miterlimit:10;stroke-dasharray:none;stroke-opacity:1"
             d="m 0,0 6.259,3.855 c 0,0 2.82,0.938 4.121,4.749 1.301,3.811 3.743,12.583 3.743,12.583" /></g><g
           transform="translate(408.844,608.9735)"
           id="g300"><path
             id="path302"
             style="fill:none;stroke:#d1966c;stroke-width:1.5;stroke-linecap:round;stroke-linejoin:miter;stroke-miterlimit:10;stroke-dasharray:none;stroke-opacity:1"
             d="M 0,0 C 0,0 -3.877,-0.595 -12.14,1.13" /></g><g
           transform="translate(207.4026,435.9492)"
           id="g304"><path
             id="path306"
             style="fill:none;stroke:#304b72;stroke-width:1.5;stroke-linecap:round;stroke-linejoin:round;stroke-miterlimit:10;stroke-dasharray:none;stroke-opacity:1"
             d="m 0,0 9.289,-7.664 1.488,-43.998" /></g><g
           transform="translate(201.3655,610.5947)"
           id="g308"><path
             id="path310"
             style="fill:#ffffff;fill-opacity:1;fillRule:nonzero;stroke:none"
             d="m 0,0 c -0.16,-1.215 -0.912,-2.182 -2.066,-2.658 -0.643,-0.266 -1.502,-0.403 -2.181,-0.351 -1.057,0.051 -2.048,0.316 -2.959,0.792 -0.331,0.173 -0.817,0.514 -1.182,0.824 -0.083,0.071 -0.126,0.134 -0.044,0.247 0.087,0.128 0.433,0.617 0.487,0.697 0.074,0.11 0.192,0.114 0.301,0.028 0.015,-0.012 0.124,-0.099 0.147,-0.115 0.874,-0.695 2.006,-1.221 3.269,-1.281 1.593,0.006 2.756,0.704 2.973,1.801 0.239,1.208 -0.717,2.256 -2.572,2.853 -0.59,0.19 -2.071,0.796 -2.344,0.959 -1.289,0.768 -1.883,1.764 -1.785,2.983 0.148,1.689 1.738,2.94 3.74,2.929 0.95,-0.008 1.839,-0.226 2.63,-0.566 0.291,-0.125 0.832,-0.422 1.025,-0.568 0.134,-0.1 0.123,-0.21 0.069,-0.296 C -0.573,8.148 -0.812,7.784 -0.908,7.633 -0.978,7.529 -1.064,7.517 -1.185,7.595 -2.202,8.288 -3.252,8.53 -4.2,8.558 -5.568,8.545 -6.607,7.748 -6.685,6.642 -6.713,5.642 -5.956,4.91 -4.338,4.34 -0.998,3.238 0.26,1.968 0,0 m -3.965,17.411 c 2.169,-0.021 3.917,-2.082 3.974,-4.642 l -8.039,0.079 c 0.108,2.558 1.896,4.585 4.065,4.563 M 4.038,-6.37 c 1.146,0.02 2.083,0.937 2.192,2.083 L 6.239,-4.149 7.21,12.192 7.209,12.193 C 7.21,12.201 7.21,12.209 7.21,12.217 7.213,12.483 7,12.701 6.734,12.703 H 6.726 l -5.203,0.051 c -0.095,3.38 -2.497,6.098 -5.474,6.127 -2.977,0.029 -5.432,-2.641 -5.593,-6.019 l -5.218,0.051 c -0.262,-0.002 -0.474,-0.214 -0.477,-0.476 0,-0.013 0,-0.025 0.001,-0.038 l 0.581,-16.292 0.009,-0.204 c 0.102,-1.134 0.921,-2.055 2.047,-2.108 v 0 L 3.955,-6.37 Z" /></g><g
           transform="translate(217.4428,614.9563)"
           id="g312"><path
             id="path314"
             style="fill:#ffffff;fill-opacity:1;fillRule:nonzero;stroke:none"
             d="M 0,0 C -1.634,0.542 -2.383,1.242 -2.374,2.194 -2.316,3.251 -1.32,4.039 0.025,4.076 1.116,4.062 2.078,3.765 3.024,3.146 3.265,2.997 3.384,3.052 3.527,3.234 3.543,3.259 3.595,3.333 3.769,3.577 L 3.77,3.578 C 3.935,3.809 3.999,3.9 4.016,3.928 4.136,4.148 4.137,4.266 3.897,4.439 3.69,4.59 3.116,4.894 2.787,5.028 1.877,5.4 0.93,5.588 -0.019,5.579 -2.176,5.553 -3.879,4.17 -4.009,2.328 -4.093,0.997 -3.423,-0.08 -2.02,-0.881 -1.621,-1.096 -0.189,-1.649 0.468,-1.847 2.343,-2.414 3.296,-3.422 3.086,-4.585 2.895,-5.643 1.767,-6.346 0.177,-6.379 c -1.162,0.035 -2.324,0.472 -3.326,1.237 -0.005,0.004 -0.033,0.025 -0.078,0.059 -0.056,0.043 -0.076,0.058 -0.078,0.059 -0.22,0.155 -0.381,0.156 -0.535,-0.072 -0.006,-0.009 -0.13,-0.193 -0.254,-0.376 -0.144,-0.213 -0.207,-0.306 -0.241,-0.358 -0.132,-0.191 -0.11,-0.295 0.078,-0.457 l 0.002,-0.001 c 0.403,-0.331 0.923,-0.679 1.276,-0.855 0.977,-0.487 2.035,-0.75 3.156,-0.784 0.729,-0.044 1.644,0.119 2.329,0.415 1.242,0.538 2.042,1.603 2.193,2.921 C 4.944,-2.45 3.555,-1.102 0,0" /></g><g
           transform="translate(227.4487,615.3928)"
           id="g316"><path
             id="path318"
             style="fill:#ffffff;fill-opacity:1;fillRule:nonzero;stroke:none"
             d="m 0,0 c -0.865,0.008 -1.698,-0.263 -2.387,-0.762 l 0.054,5.534 C -2.331,4.988 -2.416,5.073 -2.63,5.075 L -3.632,5.084 C -3.87,5.087 -3.933,5.008 -3.935,4.788 l -0.126,-12.86 c -0.002,-0.212 0.059,-0.301 0.298,-0.303 l 1.001,-0.01 c 0.218,-0.002 0.301,0.088 0.304,0.297 l 0.041,4.2 c 0.014,1.435 1.094,2.328 2.402,2.315 1.31,-0.013 2.37,-0.927 2.356,-2.37 L 2.3,-8.134 C 2.298,-8.377 2.357,-8.435 2.597,-8.437 l 1,-0.01 C 3.835,-8.449 3.898,-8.392 3.9,-8.15 l 0.041,4.203 C 3.954,-1.795 2.175,-0.021 0,0" /></g><g
           transform="translate(236.9377,608.4034)"
           id="g320"><path
             id="path322"
             style="fill:#ffffff;fill-opacity:1;fillRule:nonzero;stroke:none"
             d="M 0,0 C -1.506,0.015 -2.714,1.222 -2.7,2.696 -2.685,4.171 -1.454,5.354 0.052,5.34 1.558,5.325 2.766,4.117 2.752,2.643 2.738,1.169 1.506,-0.015 0,0 M 0.068,6.887 C -2.309,6.911 -4.255,5.041 -4.278,2.71 -4.301,0.379 -2.392,-1.529 -0.014,-1.552 2.363,-1.575 4.309,0.295 4.332,2.626 4.355,4.956 2.446,6.864 0.068,6.887" /></g><g
           transform="translate(263.5708,611.7909)"
           id="g324"><path
             id="path326"
             style="fill:#ffffff;fill-opacity:1;fillRule:nonzero;stroke:none"
             d="M 0,0 C 0.323,1.018 1.276,1.688 2.38,1.677 3.445,1.667 4.435,0.93 4.769,-0.047 Z m 5.937,-1.605 c 0.007,0 0.014,0 0.022,0 0.263,0.009 0.473,0.231 0.475,0.502 10e-4,0.013 0,0.025 0,0.036 0,0.005 0,0.013 0,0.031 0.023,2.33 -1.785,4.237 -4.04,4.26 -2.255,0.021 -4.1,-1.85 -4.123,-4.18 -0.002,-0.174 0.007,-0.347 0.026,-0.519 l 0.005,-0.055 h 10e-4 c 0.105,-0.845 0.458,-1.617 1.013,-2.241 0.001,-10e-4 0.001,-10e-4 0.004,-0.005 0.618,-0.693 1.463,-1.173 2.407,-1.358 L 1.8,-5.149 v 0.003 c 0.033,-0.006 0.067,-0.012 0.11,-0.019 1.292,-0.168 2.383,0.03 3.27,0.466 0.24,0.118 0.446,0.245 0.619,0.373 0.061,0.045 0.113,0.087 0.157,0.124 0.026,0.023 0.044,0.04 0.054,0.049 0.23,0.233 0.241,0.335 0.107,0.549 C 5.806,-3.098 5.631,-2.85 5.631,-2.85 5.509,-2.695 5.398,-2.658 5.239,-2.796 5.211,-2.82 5.185,-2.836 5.172,-2.851 4.221,-3.679 2.982,-3.831 1.907,-3.595 1.686,-3.533 1.479,-3.456 1.29,-3.363 0.558,-2.987 0.032,-2.322 -0.113,-1.546 l 6.031,-0.059 c 0.004,0 0.011,0 0.019,0" /></g><g
           transform="translate(246.7981,608.329)"
           id="g328"><path
             id="path330"
             style="fill:#ffffff;fill-opacity:1;fillRule:nonzero;stroke:none"
             d="m 0,0 c -1.453,0.014 -2.629,1.182 -2.651,2.628 l 0.002,0.137 C -2.599,4.209 -1.401,5.354 0.052,5.34 1.531,5.325 2.717,4.118 2.703,2.644 2.689,1.169 1.478,-0.014 0,0 m 0.068,6.887 c -0.99,0.01 -1.931,-0.322 -2.686,-0.926 l 0.006,0.653 c 0.002,0.227 -0.059,0.3 -0.297,0.302 l -0.953,0.01 C -4.1,6.928 -4.163,6.862 -4.165,6.629 L -4.284,-5.512 c -0.002,-0.221 0.059,-0.301 0.297,-0.303 l 0.953,-0.009 c 0.238,-0.003 0.301,0.074 0.304,0.296 l 0.048,4.954 c 0.743,-0.618 1.677,-0.968 2.668,-0.978 C 2.322,-1.575 4.234,0.296 4.257,2.626 4.28,4.957 2.404,6.865 0.068,6.887" /></g><g
           transform="translate(254.1211,611.8832)"
           id="g332"><path
             id="path334"
             style="fill:#ffffff;fill-opacity:1;fillRule:nonzero;stroke:none"
             d="M 0,0 C 0.323,1.018 1.276,1.688 2.38,1.677 3.445,1.667 4.436,0.93 4.769,-0.047 Z m 6.434,-1.036 c 0.023,2.33 -1.785,4.238 -4.04,4.26 -2.255,0.022 -4.1,-1.85 -4.123,-4.18 -0.002,-0.174 0.007,-0.347 0.026,-0.519 l 0.005,-0.055 h 10e-4 c 0.105,-0.845 0.458,-1.617 1.013,-2.241 0.001,-10e-4 0.001,-10e-4 0.004,-0.005 0.618,-0.693 1.463,-1.173 2.407,-1.358 L 1.8,-5.149 v 0.003 c 0.033,-0.006 0.067,-0.012 0.11,-0.019 1.292,-0.168 2.383,0.03 3.27,0.466 0.24,0.118 0.447,0.246 0.619,0.373 0.061,0.045 0.113,0.087 0.157,0.124 0.026,0.023 0.044,0.04 0.054,0.049 0.23,0.233 0.241,0.335 0.107,0.549 C 5.806,-3.098 5.631,-2.85 5.631,-2.85 5.509,-2.695 5.398,-2.658 5.239,-2.796 5.211,-2.82 5.185,-2.836 5.172,-2.851 4.221,-3.679 2.983,-3.831 1.907,-3.595 1.686,-3.533 1.479,-3.456 1.29,-3.363 0.558,-2.986 0.032,-2.322 -0.113,-1.546 l 6.031,-0.059 c 0.004,0 0.012,0 0.019,0 0.007,0 0.014,0 0.022,0 0.263,0.009 0.473,0.231 0.475,0.502 10e-4,0.013 0,0.025 0,0.036 0,0.005 0,0.013 0,0.031" /></g><g
           transform="translate(272.0882,730.782)"
           id="g336"><path
             id="path338"
             style="fill:#ee4d2d;fill-opacity:1;fillRule:nonzero;stroke:none"
             d="m 0,0 c 0,24.432 -19.806,44.239 -44.239,44.239 -24.432,0 -44.238,-19.807 -44.238,-44.239 0,-5.079 0.867,-9.953 2.442,-14.497 l 7.77,-23.107 c 1.024,-3.047 4.092,-5.62 7.318,-6.39 v -0.023 c 0,0 0.01,0.005 0.029,0.015 0.013,-0.003 0.026,-0.009 0.039,-0.012 v 0.033 c 0.817,0.44 9.281,5.387 4.784,19.331 -3.672,11.388 -4.567,21.103 -4.784,24.86 v 1.663 l 0.002,5 h 53.279 c 0,0 -0.131,-16.882 -4.853,-31.523 -4.722,-14.641 4.853,-19.367 4.853,-19.367 3.255,0.744 6.366,3.34 7.399,6.413 l 7.769,23.107 H -2.443 C -0.867,-9.953 0,-5.079 0,0" /></g><g
           transform="translate(261.3181,739.8491)"
           id="g340"><path
             id="path342"
             style="fill:#bc361c;fill-opacity:1;fillRule:nonzero;stroke:none"
             d="m 0,0 c -9.899,5.332 -21.219,8.364 -33.252,8.364 -12.033,0 -23.353,-3.032 -33.252,-8.364 9.407,-6.623 20.871,-10.519 33.252,-10.519 12.38,0 23.845,3.896 33.252,10.519" /></g><g
           transform="translate(198.71,729.6893)"
           id="g344"><path
             id="path346"
             style="fill:#ffbb00;fill-opacity:1;fillRule:nonzero;stroke:none"
             d="m 0,0 c 0,-1.503 -1.219,-2.722 -2.722,-2.722 -1.503,0 -2.721,1.219 -2.721,2.722 0,1.503 1.218,2.722 2.721,2.722 C -1.219,2.722 0,1.503 0,0" /></g><g
           transform="translate(261.9506,729.6893)"
           id="g348"><path
             id="path350"
             style="fill:#ffbb00;fill-opacity:1;fillRule:nonzero;stroke:none"
             d="m 0,0 c 0,-1.503 -1.219,-2.722 -2.722,-2.722 -1.503,0 -2.721,1.219 -2.721,2.722 0,1.503 1.218,2.722 2.721,2.722 C -1.219,2.722 0,1.503 0,0" /></g></g></g></g></svg>