<?xml version="1.0" encoding="UTF-8" standalone="no"?>
<svg
   xmlns:dc="http://purl.org/dc/elements/1.1/"
   xmlns:cc="http://creativecommons.org/ns#"
   xmlns:rdf="http://www.w3.org/1999/02/22-rdf-syntax-ns#"
   xmlns:svg="http://www.w3.org/2000/svg"
   xmlns="http://www.w3.org/2000/svg"
   viewBox="0 0 1700.7867 1133.8586"
   height="1133.8586"
   width="1700.7867"
   xml:space="preserve"
   id="svg2"
   version="1.1"><metadata
     id="metadata8"><rdf:RDF><cc:Work
         rdf:about=""><dc:format>image/svg+xml</dc:format><dc:type
           rdf:resource="http://purl.org/dc/dcmitype/StillImage" /></cc:Work></rdf:RDF></metadata><defs
     id="defs6"><clipPath
       id="clipPath106"
       clipPathUnits="userSpaceOnUse"><path
         id="path104"
         d="M 0,850.394 H 1275.591 V 0 H 0 Z" /></clipPath></defs><g
     transform="matrix(1.3333333,0,0,-1.3333333,0,1133.8587)"
     id="g10"><path
       id="path12"
       style="fill:#c5cad1;fill-opacity:1;fillRule:nonzero;stroke:none"
       d="M 838.169,121.859 H 509.187 v 635.046 h 328.982 z" /><path
       id="path14"
       style="fill:#e9eaec;fill-opacity:1;fillRule:nonzero;stroke:none"
       d="M 824.282,121.859 H 523.073 v 615.762 h 301.209 z" /><path
       id="path16"
       style="fill:#d7dadf;fill-opacity:1;fillRule:nonzero;stroke:none"
       d="m 559.018,390.276 h -35.847 v 243.205 h 35.847 z" /><path
       id="path18"
       style="fill:#d7dadf;fill-opacity:1;fillRule:nonzero;stroke:none"
       d="m 565.834,627.549 h -42.761 v 7.909 h 42.761 z" /><path
       id="path20"
       style="fill:#d7dadf;fill-opacity:1;fillRule:nonzero;stroke:none"
       d="m 557.188,633.481 h -23.856 v 11.864 h 23.856 z" /><path
       id="path22"
       style="fill:#d7dadf;fill-opacity:1;fillRule:nonzero;stroke:none"
       d="M 681.704,390.276 H 577.762 V 532.64 h 103.942 z" /><path
       id="path24"
       style="fill:#d7dadf;fill-opacity:1;fillRule:nonzero;stroke:none"
       d="m 593.097,390.276 h -42.599 v 21.75 h 42.599 z" /><g
       transform="translate(674.8881,448.2451)"
       id="g26"><path
         id="path28"
         style="fill:#d7dadf;fill-opacity:1;fillRule:nonzero;stroke:none"
         d="M 0,0 44.303,-26.333 V 63.633 H 78.116 V 167.01 h 71.278 L 149.162,-57.969 H 0 Z" /></g><path
       id="path30"
       style="fill:#d7dadf;fill-opacity:1;fillRule:nonzero;stroke:none"
       d="m 824.282,601.845 h -74.419 v 3.954 h 74.419 z" /><path
       id="path32"
       style="fill:#d7dadf;fill-opacity:1;fillRule:nonzero;stroke:none"
       d="m 809.502,607.776 h -17.04 v 19.773 h 17.04 z" /><path
       id="path34"
       style="fill:#d7dadf;fill-opacity:1;fillRule:nonzero;stroke:none"
       d="m 824.134,607.776 h -15.336 v 29.659 h 15.336 z" /><path
       id="path36"
       style="fill:#d7dadf;fill-opacity:1;fillRule:nonzero;stroke:none"
       d="m 816.318,627.549 h -3.408 v 29.659 h 3.408 z" /><path
       id="path38"
       style="fill:#ffffff;fill-opacity:1;fillRule:nonzero;stroke:none"
       d="m 761.791,586.026 h -3.408 v 7.909 h 3.408 z" /><path
       id="path40"
       style="fill:#ffffff;fill-opacity:1;fillRule:nonzero;stroke:none"
       d="m 772.015,586.026 h -3.408 v 7.909 h 3.408 z" /><path
       id="path42"
       style="fill:#ffffff;fill-opacity:1;fillRule:nonzero;stroke:none"
       d="m 782.238,586.026 h -3.408 v 7.909 h 3.408 z" /><path
       id="path44"
       style="fill:#ffffff;fill-opacity:1;fillRule:nonzero;stroke:none"
       d="m 792.462,586.026 h -3.408 v 7.909 h 3.408 z" /><path
       id="path46"
       style="fill:#ffffff;fill-opacity:1;fillRule:nonzero;stroke:none"
       d="m 802.686,586.026 h -3.408 v 7.909 h 3.408 z" /><path
       id="path48"
       style="fill:#ffffff;fill-opacity:1;fillRule:nonzero;stroke:none"
       d="m 812.91,586.026 h -3.408 v 7.909 h 3.408 z" /><path
       id="path50"
       style="fill:#ffffff;fill-opacity:1;fillRule:nonzero;stroke:none"
       d="m 823.134,586.026 h -3.408 v 7.909 h 3.408 z" /><path
       id="path52"
       style="fill:#ffffff;fill-opacity:1;fillRule:nonzero;stroke:none"
       d="m 761.791,570.208 h -3.408 v 7.909 h 3.408 z" /><path
       id="path54"
       style="fill:#ffffff;fill-opacity:1;fillRule:nonzero;stroke:none"
       d="m 772.015,570.208 h -3.408 v 7.909 h 3.408 z" /><path
       id="path56"
       style="fill:#ffffff;fill-opacity:1;fillRule:nonzero;stroke:none"
       d="m 782.238,570.208 h -3.408 v 7.909 h 3.408 z" /><path
       id="path58"
       style="fill:#ffffff;fill-opacity:1;fillRule:nonzero;stroke:none"
       d="m 792.462,570.208 h -3.408 v 7.909 h 3.408 z" /><path
       id="path60"
       style="fill:#ffffff;fill-opacity:1;fillRule:nonzero;stroke:none"
       d="m 802.686,570.208 h -3.408 v 7.909 h 3.408 z" /><path
       id="path62"
       style="fill:#ffffff;fill-opacity:1;fillRule:nonzero;stroke:none"
       d="m 823.134,570.208 h -3.408 v 7.909 h 3.408 z" /><path
       id="path64"
       style="fill:#ffffff;fill-opacity:1;fillRule:nonzero;stroke:none"
       d="m 761.791,554.39 h -3.408 v 7.909 h 3.408 z" /><path
       id="path66"
       style="fill:#ffffff;fill-opacity:1;fillRule:nonzero;stroke:none"
       d="m 772.015,554.39 h -3.408 v 7.909 h 3.408 z" /><path
       id="path68"
       style="fill:#ffffff;fill-opacity:1;fillRule:nonzero;stroke:none"
       d="m 792.462,554.39 h -3.408 v 7.909 h 3.408 z" /><path
       id="path70"
       style="fill:#ffffff;fill-opacity:1;fillRule:nonzero;stroke:none"
       d="m 802.686,554.39 h -3.408 v 7.909 h 3.408 z" /><path
       id="path72"
       style="fill:#ffffff;fill-opacity:1;fillRule:nonzero;stroke:none"
       d="m 812.91,554.39 h -3.408 v 7.909 h 3.408 z" /><path
       id="path74"
       style="fill:#ffffff;fill-opacity:1;fillRule:nonzero;stroke:none"
       d="m 823.134,554.39 h -3.408 v 7.909 h 3.408 z" /><path
       id="path76"
       style="fill:#ffffff;fill-opacity:1;fillRule:nonzero;stroke:none"
       d="m 782.238,538.572 h -3.408 v 7.909 h 3.408 z" /><path
       id="path78"
       style="fill:#ffffff;fill-opacity:1;fillRule:nonzero;stroke:none"
       d="m 792.462,538.572 h -3.408 v 7.909 h 3.408 z" /><path
       id="path80"
       style="fill:#ffffff;fill-opacity:1;fillRule:nonzero;stroke:none"
       d="m 802.686,538.572 h -3.408 v 7.909 h 3.408 z" /><path
       id="path82"
       style="fill:#ffffff;fill-opacity:1;fillRule:nonzero;stroke:none"
       d="m 812.91,538.572 h -3.408 v 7.909 h 3.408 z" /><path
       id="path84"
       style="fill:#ffffff;fill-opacity:1;fillRule:nonzero;stroke:none"
       d="m 823.134,538.572 h -3.408 v 7.909 h 3.408 z" /><path
       id="path86"
       style="fill:#ffffff;fill-opacity:1;fillRule:nonzero;stroke:none"
       d="m 536.74,611.187 h -5.112 v 5.932 h 5.112 z" /><path
       id="path88"
       style="fill:#ffffff;fill-opacity:1;fillRule:nonzero;stroke:none"
       d="m 545.26,611.187 h -5.112 v 5.932 h 5.112 z" /><path
       id="path90"
       style="fill:#ffffff;fill-opacity:1;fillRule:nonzero;stroke:none"
       d="m 536.74,601.301 h -5.112 v 5.932 h 5.112 z" /><path
       id="path92"
       style="fill:#ffffff;fill-opacity:1;fillRule:nonzero;stroke:none"
       d="m 545.26,601.301 h -5.112 v 5.932 h 5.112 z" /><path
       id="path94"
       style="fill:#ffffff;fill-opacity:1;fillRule:nonzero;stroke:none"
       d="m 553.78,611.187 h -5.112 v 5.932 h 5.112 z" /><path
       id="path96"
       style="fill:#ffffff;fill-opacity:1;fillRule:nonzero;stroke:none"
       d="m 545.26,591.414 h -5.112 v 5.932 h 5.112 z" /><path
       id="path98"
       style="fill:#ffffff;fill-opacity:1;fillRule:nonzero;stroke:none"
       d="m 553.78,591.414 h -5.112 v 5.932 h 5.112 z" /><g
       id="g100"><g
         clip-path="url(#clipPath106)"
         id="g102"><g
           transform="translate(820.7784,123.5513)"
           id="g108"><path
             id="path110"
             style="fill:#d7dadf;fill-opacity:1;fillRule:nonzero;stroke:none"
             d="m 0,0 h -294.072 c -1.945,0 -3.536,1.591 -3.536,3.536 v 269.539 c 0,1.945 1.591,3.536 3.536,3.536 H 0 c 1.945,0 3.536,-1.591 3.536,-3.536 V 3.536 C 3.536,1.591 1.945,0 0,0" /></g><path
           id="path112"
           style="fill:#c5cad1;fill-opacity:1;fillRule:nonzero;stroke:none"
           d="M 824.282,362.089 H 523.073 v 19.047 h 301.209 z" /><path
           id="path114"
           style="fill:#c5cad1;fill-opacity:1;fillRule:nonzero;stroke:none"
           d="m 824.282,252.334 h -68.817 v 19.047 h 68.817 z" /><path
           id="path116"
           style="fill:#c5cad1;fill-opacity:1;fillRule:nonzero;stroke:none"
           d="m 711.498,252.334 h -81.411 v 19.047 h 81.411 z" /><path
           id="path118"
           style="fill:#c5cad1;fill-opacity:1;fillRule:nonzero;stroke:none"
           d="m 585.041,252.334 h -61.968 v 19.047 h 61.968 z" /><g
           transform="translate(995.9637,462.7424)"
           id="g120"><path
             id="path122"
             style="fill:#9c5419;fill-opacity:1;fillRule:nonzero;stroke:none"
             d="M 0,0 V -0.01 L -0.887,0.134 C -0.63,0.095 -0.334,0.048 0,0" /></g><g
           transform="translate(1010.6395,54.5964)"
           id="g124"><path
             id="path126"
             style="fill:#c5cad1;fill-opacity:1;fillRule:nonzero;stroke:none"
             d="M 0,0 -186.357,67.263 V 683.025 L 0,635.046 Z" /></g><g
           transform="translate(985.6179,404.555)"
           id="g128"><path
             id="path130"
             style="fill:#ffffff;fill-opacity:1;fillRule:nonzero;stroke:none"
             d="m 0,0 c 0,-6.505 -3.266,-11.779 -7.296,-11.779 -4.029,0 -7.296,5.274 -7.296,11.779 0,6.505 3.267,11.779 7.296,11.779 C -3.266,11.779 0,6.505 0,0" /></g><path
           id="path132"
           style="fill:#c5cad1;fill-opacity:1;fillRule:nonzero;stroke:none"
           d="M 824.282,121.859 H 520.566 v 19.047 h 303.716 z" /><path
           id="path134"
           style="fill:#d7dadf;fill-opacity:1;fillRule:nonzero;stroke:none"
           d="M 685.112,530.663 H 574.354 v 3.954 h 110.758 z" /><path
           id="path136"
           style="fill:#d7dadf;fill-opacity:1;fillRule:nonzero;stroke:none"
           d="m 599.913,528.685 h -6.816 v 21.75 h 6.816 z" /><path
           id="path138"
           style="fill:#d7dadf;fill-opacity:1;fillRule:nonzero;stroke:none"
           d="m 615.249,528.685 h -6.816 v 21.75 h 6.816 z" /><path
           id="path140"
           style="fill:#d7dadf;fill-opacity:1;fillRule:nonzero;stroke:none"
           d="m 674.888,528.685 h -42.599 v 21.75 h 42.599 z" /><g
           transform="translate(723.3881,387.6224)"
           id="g142"><path
             id="path144"
             style="fill:#e94e30;fill-opacity:1;fillRule:nonzero;stroke:none"
             d="m 0,0 c 0,-4.088 3.345,-7.433 7.433,-7.433 h 96.019 c 4.088,0 7.433,3.345 7.433,7.433 v 96.019 c 0,4.088 -3.345,7.433 -7.433,7.433 H 7.433 C 3.345,103.452 0,100.107 0,96.019 Z" /></g><path
           id="path146"
           style="fill:#090e16;fill-opacity:1;fillRule:nonzero;stroke:none"
           d="m 752.671,380.19 h -9.799 v 110.885 h 9.799 z" /><path
           id="path148"
           style="fill:#090e16;fill-opacity:1;fillRule:nonzero;stroke:none"
           d="m 814.789,380.19 h -9.799 v 110.885 h 9.799 z" /><g
           transform="translate(779.73,474.7423)"
           id="g150"><path
             id="path152"
             style="fill:#090e16;fill-opacity:1;fillRule:nonzero;stroke:none"
             d="m 0,0 h -1.799 c -2.209,0 -4,1.791 -4,4 V 16.332 H 4 V 4 C 4,1.791 2.209,0 0,0" /></g><g
           transform="translate(784.4048,424.1863)"
           id="g154"><path
             id="path156"
             style="fill:#e9ebed;fill-opacity:1;fillRule:nonzero;stroke:none"
             d="m 0,0 h -11.149 v 2.416 c 0,0.389 0.316,0.704 0.704,0.704 h 9.741 C -0.315,3.12 0,2.805 0,2.416 Z m 7.456,-0.017 c 0,0.123 -0.04,0.235 -0.107,0.327 H 7.35 c 0,0 -2.916,4.376 -3.069,4.633 -0.154,0.258 -0.207,0.386 -0.46,0.386 h -18.724 c -0.253,0 -0.306,-0.128 -0.46,-0.386 -0.136,-0.229 -2.402,-3.56 -2.915,-4.331 0,0 -0.327,-0.418 -0.327,-0.629 0,-0.21 0.001,-0.029 0.002,-0.043 v 0 l 0.859,-18.905 0.013,-0.237 c 0.131,-1.315 1.092,-2.375 2.4,-2.424 v 0 h 3.699 v 5.546 0.576 c 0,1.633 -0.1,1.69 -0.906,2.495 -0.805,0.806 -0.805,1.454 -0.805,1.454 v 7 c 0,0.314 0.254,0.569 0.568,0.569 h 0.943 v -5.847 c 0,-0.278 0.228,-0.505 0.506,-0.505 0.277,0 0.505,0.227 0.505,0.505 v 5.847 h 1.299 v -5.847 c 0,-0.278 0.227,-0.505 0.505,-0.505 0.278,0 0.505,0.227 0.505,0.505 v 5.847 h 0.949 C -7.252,-3.986 -7,-4.239 -7,-4.55 v -7.005 c 0,0 0,-0.648 -0.805,-1.454 -0.806,-0.805 -0.907,-0.862 -0.907,-2.495 v -0.576 -5.547 l 6.405,-0.001 v 5.548 1.521 c 0,1.369 -0.685,1.86 -0.685,1.86 -0.996,0.861 -1.651,2.319 -1.651,3.972 0,2.646 1.677,5.08 3.745,5.08 2.069,0 3.746,-2.434 3.746,-5.08 0,-1.653 -0.655,-3.111 -1.651,-3.972 0,0 -0.584,-0.491 -0.584,-1.86 v -1.521 -5.548 l 3.275,-0.001 0.096,0.001 c 1.33,0.036 2.407,1.111 2.521,2.442 l 0.009,0.161 0.941,18.979 v 0.001 c 0.001,0.009 0.001,0.019 0.001,0.028" /></g><g
           transform="translate(649.0223,134.3207)"
           id="g158"><path
             id="path160"
             style="fill:#f9bd86;fill-opacity:1;fillRule:nonzero;stroke:none"
             d="m 0,0 h -25.015 l -5.501,37.495 H 0 Z" /></g><g
           transform="translate(622.8146,142.4502)"
           id="g162"><path
             id="path164"
             style="fill:#491f18;fill-opacity:1;fillRule:nonzero;stroke:none"
             d="m 0,0 -18.844,-13.665 c -1.264,-0.584 -2.299,-2.201 -2.299,-3.594 v -0.8 c 0,-1.393 1.14,-2.532 2.532,-2.532 H -7.099 18.68 c 4.14,0 7.528,2.977 7.528,6.616 V 0.04 C 26.208,0.04 1.265,0.584 0,0" /></g><g
           transform="translate(693.9592,134.3207)"
           id="g166"><path
             id="path168"
             style="fill:#f9bd86;fill-opacity:1;fillRule:nonzero;stroke:none"
             d="m 0,0 h 25.015 l 5.501,37.495 H 0 Z" /></g><g
           transform="translate(720.1669,142.4502)"
           id="g170"><path
             id="path172"
             style="fill:#491f18;fill-opacity:1;fillRule:nonzero;stroke:none"
             d="m 0,0 18.844,-13.665 c 1.264,-0.584 2.299,-2.201 2.299,-3.594 v -0.8 c 0,-1.393 -1.14,-2.532 -2.532,-2.532 H 7.099 -18.68 c -4.14,0 -7.528,2.977 -7.528,6.616 V 0.04 c 0,0 24.943,0.544 26.208,-0.04" /></g><g
           transform="translate(665.0226,303.7361)"
           id="g174"><path
             id="path176"
             style="fill:#386db4;fill-opacity:1;fillRule:nonzero;stroke:none"
             d="M 0,0 13.559,158.192 H -46.726 C -53.22,126.08 -55.023,70.658 -54.84,1.814" /></g><g
           transform="translate(610.1827,305.5498)"
           id="g178"><path
             id="path180"
             style="fill:#386db4;fill-opacity:1;fillRule:nonzero;stroke:none"
             d="M 0,0 C 0.114,-42.654 0.99,-90.462 1.986,-141.07 H 42.904 L 54.84,-1.814" /></g><g
           transform="translate(732.7935,303.7368)"
           id="g182"><path
             id="path184"
             style="fill:#386db4;fill-opacity:1;fillRule:nonzero;stroke:none"
             d="M 0,0 C -0.133,-42.194 -0.999,-89.365 -1.98,-139.257 H -42.899 L -54.833,-0.018" /></g><g
           transform="translate(677.9604,303.7183)"
           id="g186"><path
             id="path188"
             style="fill:#386db4;fill-opacity:1;fillRule:nonzero;stroke:none"
             d="M 0,0 -13.56,158.209 H 46.724 C 53.276,125.816 55.053,69.703 54.833,0.018" /></g><g
           transform="translate(732.8031,305.5497)"
           id="g190"><path
             id="path192"
             style="fill:#386db4;fill-opacity:1;fillRule:nonzero;stroke:none"
             d="m 0,0 c 0,-15.147 -12.279,-27.426 -27.426,-27.426 -15.147,0 -27.426,12.279 -27.426,27.426 0,15.147 12.279,27.426 27.426,27.426 C -12.279,27.426 0,15.147 0,0" /></g><g
           transform="translate(671.4818,415.5084)"
           id="g194"><path
             id="path196"
             style="fill:none;stroke:#386db4;stroke-width:2;stroke-linecap:round;stroke-linejoin:miter;stroke-miterlimit:10;stroke-dasharray:none;stroke-opacity:1"
             d="M 0,0 V -35.667" /></g><g
           transform="translate(665.0226,305.5497)"
           id="g198"><path
             id="path200"
             style="fill:#386db4;fill-opacity:1;fillRule:nonzero;stroke:none"
             d="m 0,0 c 0,-15.147 -12.279,-27.426 -27.426,-27.426 -15.147,0 -27.426,12.279 -27.426,27.426 0,15.147 12.279,27.426 27.426,27.426 C -12.279,27.426 0,15.147 0,0" /></g><g
           transform="translate(689.0517,609.6782)"
           id="g202"><path
             id="path204"
             style="fill:#e7ad7e;fill-opacity:1;fillRule:nonzero;stroke:none"
             d="m 0,0 c 0,-10.107 -8.193,-16.43 -18.299,-16.43 -10.107,0 -18.3,6.323 -18.3,16.43 l 18.3,1.869 z" /></g><g
           transform="translate(710.6317,663.8751)"
           id="g206"><path
             id="path208"
             style="fill:#e53112;fill-opacity:1;fillRule:nonzero;stroke:none"
             d="m 0,0 c 0,21.804 -17.676,39.479 -39.479,39.479 -21.804,0 -39.48,-17.675 -39.48,-39.479 0,-4.533 0.774,-8.883 2.18,-12.937 v 0 l 6.933,-20.621 c 1.095,-3.257 4.802,-5.922 8.238,-5.922 h 44.269 c 3.435,0 7.142,2.665 8.237,5.922 l 6.934,20.621 H -2.18 C -0.774,-8.883 0,-4.533 0,0" /></g><g
           transform="translate(682.0822,608.3958)"
           id="g210"><path
             id="path212"
             style="fill:#e7ad7e;fill-opacity:1;fillRule:nonzero;stroke:none"
             d="m 0,0 h -22.596 l 2.712,20.725 h 17.173 z" /></g><g
           transform="translate(693.2828,655.2695)"
           id="g214"><path
             id="path216"
             style="fill:#f1ab74;fill-opacity:1;fillRule:nonzero;stroke:none"
             d="M 0,0 C 4.873,2.886 10.13,-1.14 9.519,-6.737 8.907,-12.333 3.875,-16.375 -1.722,-15.763" /></g><g
           transform="translate(648.471,655.8226)"
           id="g218"><path
             id="path220"
             style="fill:#f1ab74;fill-opacity:1;fillRule:nonzero;stroke:none"
             d="m 0,0 c -4.873,2.886 -10.13,-1.14 -9.519,-6.737 0.612,-5.596 5.644,-9.638 11.241,-9.026" /></g><g
           transform="translate(695.1103,647.8841)"
           id="g222"><path
             id="path224"
             style="fill:#f9bd86;fill-opacity:1;fillRule:nonzero;stroke:none"
             d="m 0,0 c 0.412,-9.676 -4.997,-21.841 -12.021,-27.034 -7.024,-5.192 -18.569,-5.262 -25.656,-0.157 -7.087,5.106 -12.645,17.204 -12.351,26.885 l 0.49,16.121 c 0.294,9.68 8.458,17.649 18.143,17.709 l 12.349,0.075 c 9.685,0.06 17.947,-7.809 18.359,-17.485 z" /></g><g
           transform="translate(678.7576,674.925)"
           id="g226"><path
             id="path228"
             style="fill:#9e3d18;fill-opacity:1;fillRule:nonzero;stroke:none"
             d="m 0,0 c -4.447,1.438 -10.659,1.589 -14.789,-0.944 -3.723,-2.283 -6.795,-5.388 -9.771,-8.556 -3.004,-3.196 -4.262,-6.109 -9.41,-5.344 -3.756,0.558 -6.42,3.587 -7.381,7.138 -1.133,4.19 0.633,8.942 3.322,12.077 4.998,5.826 9.218,7.507 16.706,8.781 -1.134,-0.193 -3.154,0.644 -2.73,2.744 0.587,3.15 6.347,3.717 8.011,3.633 C -5.985,19.024 3.085,14.923 9.675,7.31" /></g><g
           transform="translate(677.1047,678.4343)"
           id="g230"><path
             id="path232"
             style="fill:#9e3d18;fill-opacity:1;fillRule:nonzero;stroke:none"
             d="m 0,0 c 0.497,-3.051 1.562,-6.071 3.517,-8.465 1.955,-2.394 6.476,-4.686 9.795,-4.716 0.108,-5.296 1.144,-10.294 4.531,-13.544 1.683,-0.057 3.813,5.475 3.838,5.537 2.118,5.383 2.197,11.54 0.218,16.976 -0.862,2.369 -5.019,9.062 -10.884,8.077" /></g><g
           transform="translate(669.4532,649.1968)"
           id="g234"><path
             id="path236"
             style="fill:none;stroke:#da9463;stroke-width:1.5;stroke-linecap:round;stroke-linejoin:miter;stroke-miterlimit:10;stroke-dasharray:none;stroke-opacity:1"
             d="m 0,0 -1.944,-4.506 c -0.445,-1.031 0.055,-1.594 1.111,-1.252 1.056,0.343 1.92,0.624 1.92,0.624" /></g><g
           transform="translate(654.5347,657.163)"
           id="g238"><path
             id="path240"
             style="fill:none;stroke:#321113;stroke-width:1.5;stroke-linecap:round;stroke-linejoin:miter;stroke-miterlimit:10;stroke-dasharray:none;stroke-opacity:1"
             d="M 0,0 C 0,0 3.484,3.376 7.385,-0.24" /></g><g
           transform="translate(677.4785,657.163)"
           id="g242"><path
             id="path244"
             style="fill:none;stroke:#321113;stroke-width:1.5;stroke-linecap:round;stroke-linejoin:miter;stroke-miterlimit:10;stroke-dasharray:none;stroke-opacity:1"
             d="M 0,0 C 0,0 3.484,3.376 7.385,-0.24" /></g><g
           transform="translate(663.7829,636.2915)"
           id="g246"><path
             id="path248"
             style="fill:none;stroke:#bf7d58;stroke-width:1.5;stroke-linecap:round;stroke-linejoin:miter;stroke-miterlimit:10;stroke-dasharray:none;stroke-opacity:1"
             d="M 0,0 C 0,0 8.233,-3.586 14.1,2.694" /></g><g
           transform="translate(653.8619,649.3491)"
           id="g250"><path
             id="path252"
             style="fill:#2e0f10;fill-opacity:1;fillRule:nonzero;stroke:none"
             d="M 0,0 C 0,0 4.111,5.165 9.465,0.443 9.465,0.443 4.898,2.207 0,0" /></g><g
           transform="translate(685.6155,649.3491)"
           id="g254"><path
             id="path256"
             style="fill:#2e0f10;fill-opacity:1;fillRule:nonzero;stroke:none"
             d="m 0,0 c 0,0 -4.296,5.012 -9.475,0.099 0,0 4.5,1.928 9.475,-0.099" /></g><g
           transform="translate(683.0859,618.9708)"
           id="g258"><path
             id="path260"
             style="fill:#d0131f;fill-opacity:1;fillRule:nonzero;stroke:none"
             d="M 0,0 C -7.02,-5.19 -18.57,-5.26 -25.65,-0.16 -32.74,4.95 -38.3,15.05 -38,24.73 l 19.886,2.867 c 2.8,0.544 5.674,0.579 8.486,0.104 L 12.02,25.04 C 12.44,15.36 7.03,5.19 0,0" /></g><g
           transform="translate(710.6107,664.0068)"
           id="g262"><path
             id="path264"
             style="fill:#e94e30;fill-opacity:1;fillRule:nonzero;stroke:none"
             d="m 0,0 c 0,21.804 -17.675,39.479 -39.479,39.479 -21.804,0 -39.48,-17.675 -39.48,-39.479 0,-4.533 0.774,-8.883 2.18,-12.937 l 6.933,-20.621 c 0.915,-2.72 3.652,-5.016 6.531,-5.703 v -0.021 c 0,0 0.009,0.005 0.026,0.013 0.012,-0.002 0.023,-0.008 0.035,-0.01 v 0.029 c 0.729,0.393 8.283,4.808 4.27,17.252 -3.278,10.163 -4.076,18.833 -4.27,22.185 v 1.484 l 0.002,4.462 h 47.547 c 0,0 -0.117,-15.065 -4.331,-28.131 -4.214,-13.066 4.331,-17.284 4.331,-17.284 2.905,0.665 5.681,2.981 6.603,5.724 l 6.934,20.621 H -2.18 C -0.774,-8.883 0,-4.533 0,0" /></g><g
           transform="translate(700.9993,672.0985)"
           id="g266"><path
             id="path268"
             style="fill:#d0131f;fill-opacity:1;fillRule:nonzero;stroke:none"
             d="M 0,0 C -8.834,4.758 -18.936,7.464 -29.675,7.464 -40.414,7.464 -50.516,4.758 -59.35,0 c 8.395,-5.911 18.626,-9.387 29.675,-9.387 11.049,0 21.28,3.476 29.675,9.387" /></g><g
           transform="translate(645.1266,663.0317)"
           id="g270"><path
             id="path272"
             style="fill:#fbba0e;fill-opacity:1;fillRule:nonzero;stroke:none"
             d="m 0,0 c 0,-1.341 -1.087,-2.429 -2.429,-2.429 -1.341,0 -2.429,1.088 -2.429,2.429 0,1.341 1.088,2.429 2.429,2.429 C -1.087,2.429 0,1.341 0,0" /></g><g
           transform="translate(701.5638,663.0317)"
           id="g274"><path
             id="path276"
             style="fill:#fbba0e;fill-opacity:1;fillRule:nonzero;stroke:none"
             d="m 0,0 c 0,-1.341 -1.087,-2.429 -2.429,-2.429 -1.341,0 -2.429,1.088 -2.429,2.429 0,1.341 1.088,2.429 2.429,2.429 C -1.087,2.429 0,1.341 0,0" /></g><g
           transform="translate(700.4097,556.4149)"
           id="g278"><path
             id="path280"
             style="fill:#e94e30;fill-opacity:1;fillRule:nonzero;stroke:none"
             d="m 0,0 25.909,-51.64 42.205,4.385 c 0,18.483 -7.411,46.827 -32.325,81.484 z" /></g><g
           transform="translate(603.0912,590.1486)"
           id="g282"><path
             id="path284"
             style="fill:#e94e30;fill-opacity:1;fillRule:nonzero;stroke:none"
             d="m 0,0 -47.524,-68.867 32.473,-28.02 33.377,41.996 z" /></g><g
           transform="translate(576.3716,551.4292)"
           id="g286"><path
             id="path288"
             style="fill:#e9ebed;fill-opacity:1;fillRule:nonzero;stroke:none"
             d="m 0,0 36.252,-27.236 8.794,11.064 -0.478,1.431 -36.05,27.084 z" /></g><g
           transform="translate(723.8779,599.6102)"
           id="g290"><path
             id="path292"
             style="fill:#e94e30;fill-opacity:1;fillRule:nonzero;stroke:none"
             d="M 0,0 C -8.381,4.871 -31.199,11.079 -31.199,11.079 L -33.751,11.22 -53.456,-6.603 -67.504,11.41 -75.132,11.148 C -80.511,9.725 -99.568,4.88 -107.964,0 c -4.659,-2.679 -9.023,-6.067 -12.823,-9.462 l 10.317,-157.293 H 4.345 L 12.823,-9.462 C 9.023,-6.067 4.66,-2.679 0,0" /></g><g
           transform="translate(656.8377,602.2432)"
           id="g294"><path
             id="path296"
             style="fill:none;stroke:#e9ebed;stroke-width:2.40799999;stroke-linecap:round;stroke-linejoin:miter;stroke-miterlimit:10;stroke-dasharray:none;stroke-opacity:1"
             d="M 0,0 -48.851,-53.394" /></g><g
           transform="translate(684.1578,602.1658)"
           id="g298"><path
             id="path300"
             style="fill:none;stroke:#e9ebed;stroke-width:2.40799999;stroke-linecap:round;stroke-linejoin:miter;stroke-miterlimit:10;stroke-dasharray:none;stroke-opacity:1"
             d="M 0,0 40.027,-47.011" /></g><g
           transform="translate(670.4222,593.0073)"
           id="g302"><path
             id="path304"
             style="fill:none;stroke:#d4422a;stroke-width:1.204;stroke-linecap:round;stroke-linejoin:miter;stroke-miterlimit:10;stroke-dasharray:none;stroke-opacity:1"
             d="M 0,0 V -156.439" /></g><g
           transform="translate(668.043,549.6777)"
           id="g306"><path
             id="path308"
             style="fill:#ffffff;fill-opacity:1;fillRule:nonzero;stroke:none"
             d="m 0,0 c -1.358,0.436 -1.983,1.009 -1.983,1.798 0.039,0.875 0.857,1.535 1.971,1.576 C 0.891,3.372 1.69,3.134 2.479,2.629 2.679,2.508 2.777,2.555 2.894,2.706 2.907,2.727 2.95,2.789 3.092,2.992 V 2.993 C 3.227,3.186 3.279,3.261 3.293,3.285 3.391,3.468 3.391,3.565 3.19,3.707 3.018,3.83 2.54,4.077 2.267,4.185 1.51,4.486 0.725,4.634 -0.06,4.619 -1.847,4.58 -3.246,3.421 -3.338,1.895 -3.397,0.792 -2.833,-0.094 -1.665,-0.746 -1.333,-0.92 -0.143,-1.367 0.402,-1.525 1.959,-1.979 2.756,-2.807 2.592,-3.771 2.443,-4.649 1.514,-5.24 0.198,-5.28 c -0.962,0.02 -1.928,0.372 -2.763,0.997 -0.005,0.003 -0.028,0.021 -0.065,0.048 -0.048,0.036 -0.064,0.048 -0.065,0.049 -0.184,0.126 -0.317,0.126 -0.443,-0.064 -0.005,-0.008 -0.106,-0.161 -0.207,-0.313 -0.118,-0.178 -0.169,-0.255 -0.197,-0.299 -0.107,-0.159 -0.089,-0.245 0.069,-0.378 l 10e-4,-10e-4 c 0.337,-0.27 0.769,-0.554 1.063,-0.697 0.813,-0.396 1.691,-0.605 2.62,-0.624 0.603,-0.03 1.36,0.112 1.924,0.363 1.025,0.455 1.678,1.343 1.793,2.436 C 4.113,-1.989 2.952,-0.884 0,0" /></g><g
           transform="translate(676.3237,550.1201)"
           id="g310"><path
             id="path312"
             style="fill:#ffffff;fill-opacity:1;fillRule:nonzero;stroke:none"
             d="m 0,0 c -0.716,0 -1.404,-0.232 -1.97,-0.65 v 4.582 c 0,0.179 -0.071,0.248 -0.249,0.248 h -0.829 c -0.197,0 -0.249,-0.065 -0.249,-0.248 V -6.716 c 0,-0.175 0.052,-0.248 0.249,-0.248 h 0.829 c 0.181,0 0.249,0.075 0.249,0.248 v 3.478 c 0,1.188 0.888,1.936 1.97,1.936 1.085,0 1.97,-0.748 1.97,-1.944 v -3.47 c 0,-0.201 0.05,-0.248 0.249,-0.248 h 0.827 c 0.197,0 0.249,0.047 0.249,0.248 v 3.48 C 3.288,-1.454 1.801,0 0,0" /></g><g
           transform="translate(684.2366,544.41)"
           id="g314"><path
             id="path316"
             style="fill:#ffffff;fill-opacity:1;fillRule:nonzero;stroke:none"
             d="m 0,0 c -1.247,0 -2.257,0.99 -2.257,2.211 0,1.22 1.01,2.21 2.257,2.21 1.247,0 2.257,-0.99 2.257,-2.21 C 2.257,0.99 1.247,0 0,0 m 0.001,5.703 c -1.969,0 -3.565,-1.564 -3.565,-3.494 0,-1.93 1.596,-3.494 3.565,-3.494 1.968,0 3.564,1.564 3.564,3.494 0,1.93 -1.596,3.494 -3.564,3.494" /></g><g
           transform="translate(706.2598,547.4301)"
           id="g318"><path
             id="path320"
             style="fill:#ffffff;fill-opacity:1;fillRule:nonzero;stroke:none"
             d="M 0,0 C 0.259,0.845 1.042,1.408 1.957,1.408 2.839,1.408 3.665,0.806 3.949,0 Z m 4.928,-1.281 c 0.006,0 0.012,0 0.018,0 0.218,0.01 0.39,0.196 0.39,0.42 0,0.011 0,0.02 -0.001,0.03 0,0.004 0.001,0.011 0.001,0.025 0,1.93 -1.513,3.494 -3.38,3.494 -1.867,0 -3.38,-1.564 -3.38,-3.494 0,-0.144 0.009,-0.287 0.026,-0.429 l 0.005,-0.046 h 0.001 c 0.093,-0.698 0.392,-1.335 0.856,-1.846 0.001,-0.001 0.001,-0.002 0.004,-0.004 0.517,-0.57 1.22,-0.96 2.003,-1.106 l 0.061,-0.011 v 0.002 c 0.027,-0.005 0.056,-0.009 0.091,-0.015 1.071,-0.129 1.973,0.045 2.704,0.413 0.198,0.099 0.367,0.206 0.509,0.313 0.05,0.038 0.093,0.073 0.129,0.104 0.022,0.02 0.036,0.034 0.044,0.041 0.189,0.195 0.197,0.28 0.085,0.455 C 4.832,-2.518 4.685,-2.314 4.685,-2.314 4.583,-2.186 4.491,-2.157 4.36,-2.273 4.337,-2.293 4.316,-2.306 4.305,-2.318 3.524,-3.012 2.5,-3.148 1.608,-2.961 1.425,-2.912 1.253,-2.849 1.095,-2.774 0.486,-2.468 0.046,-1.922 -0.081,-1.281 h 4.993 c 0.004,0 0.01,0 0.016,0" /></g><g
           transform="translate(692.401,544.4282)"
           id="g322"><path
             id="path324"
             style="fill:#ffffff;fill-opacity:1;fillRule:nonzero;stroke:none"
             d="M 0,0 C -1.203,0 -2.186,0.957 -2.216,2.154 V 2.268 C -2.186,3.464 -1.203,4.421 0,4.421 1.224,4.421 2.217,3.432 2.217,2.211 2.217,0.99 1.224,0 0,0 m 0.001,5.703 c -0.82,0 -1.597,-0.282 -2.217,-0.789 v 0.541 c 0,0.188 -0.051,0.248 -0.249,0.248 h -0.789 c -0.197,0 -0.248,-0.055 -0.248,-0.248 V -4.599 c 0,-0.182 0.051,-0.248 0.248,-0.248 h 0.789 c 0.198,0 0.249,0.064 0.249,0.248 v 4.102 c 0.62,-0.506 1.397,-0.788 2.217,-0.788 1.934,0 3.502,1.564 3.502,3.494 0,1.93 -1.568,3.494 -3.502,3.494" /></g><g
           transform="translate(698.4353,547.4301)"
           id="g326"><path
             id="path328"
             style="fill:#ffffff;fill-opacity:1;fillRule:nonzero;stroke:none"
             d="M 0,0 C 0.259,0.845 1.042,1.408 1.957,1.408 2.839,1.408 3.665,0.806 3.949,0 Z m 5.336,-0.806 c 0,1.93 -1.513,3.494 -3.38,3.494 -1.867,0 -3.38,-1.564 -3.38,-3.494 0,-0.144 0.009,-0.287 0.026,-0.429 l 0.005,-0.046 h 0.001 c 0.093,-0.698 0.392,-1.335 0.856,-1.846 0.001,-0.001 0.001,-0.002 0.004,-0.004 0.517,-0.57 1.22,-0.96 2.003,-1.106 l 0.061,-0.011 v 0.002 c 0.027,-0.005 0.056,-0.009 0.091,-0.015 1.071,-0.129 1.973,0.045 2.704,0.413 0.198,0.099 0.367,0.206 0.509,0.313 0.05,0.038 0.093,0.073 0.129,0.104 0.022,0.02 0.037,0.034 0.044,0.041 0.189,0.195 0.197,0.28 0.085,0.455 C 4.832,-2.518 4.685,-2.314 4.685,-2.314 4.583,-2.186 4.491,-2.157 4.36,-2.273 4.337,-2.293 4.316,-2.306 4.305,-2.318 3.524,-3.012 2.5,-3.148 1.608,-2.961 1.425,-2.912 1.253,-2.849 1.095,-2.774 0.486,-2.468 0.046,-1.922 -0.081,-1.281 h 4.993 c 0.004,0 0.01,0 0.016,0 0.006,0 0.012,0 0.018,0 0.218,0.01 0.39,0.195 0.39,0.42 0,0.011 0,0.02 -0.001,0.03 0.001,0.004 0.001,0.011 0.001,0.025" /></g><g
           transform="translate(664.4333,540.124)"
           id="g330"><path
             id="path332"
             style="fill:#ffffff;fill-opacity:1;fillRule:nonzero;stroke:none"
             d="M 0,0 H 10.722 V -2.915 H 2.915 v -3.78 h 7.658 V -9.61 H 2.915 v -6.201 H 0 Z" /></g><g
           transform="translate(681.6526,526.7093)"
           id="g334"><path
             id="path336"
             style="fill:#ffffff;fill-opacity:1;fillRule:nonzero;stroke:none"
             d="M 0,0 C 0.379,0 0.737,0.078 1.075,0.235 1.412,0.391 1.705,0.597 1.952,0.852 2.199,1.107 2.396,1.412 2.545,1.766 2.693,2.12 2.767,2.495 2.767,2.89 2.767,3.335 2.693,3.743 2.545,4.113 2.396,4.484 2.199,4.801 1.952,5.064 1.705,5.328 1.412,5.534 1.075,5.682 0.737,5.83 0.379,5.904 0,5.904 -0.395,5.904 -0.762,5.83 -1.099,5.682 -1.437,5.534 -1.729,5.328 -1.976,5.064 -2.224,4.801 -2.417,4.484 -2.557,4.113 c -0.14,-0.37 -0.21,-0.778 -0.21,-1.223 0,-0.395 0.07,-0.77 0.21,-1.124 0.14,-0.354 0.333,-0.659 0.581,-0.914 C -1.729,0.597 -1.437,0.391 -1.099,0.235 -0.762,0.078 -0.395,0 0,0 m -5.46,2.89 c 0,0.807 0.14,1.557 0.42,2.248 0.28,0.692 0.663,1.289 1.149,1.792 0.486,0.502 1.062,0.897 1.729,1.185 C -1.495,8.404 -0.774,8.548 0,8.548 0.774,8.548 1.495,8.404 2.162,8.115 2.829,7.827 3.405,7.432 3.891,6.93 4.377,6.427 4.759,5.83 5.04,5.138 5.32,4.447 5.46,3.697 5.46,2.89 5.46,2.1 5.312,1.367 5.015,0.692 4.719,0.016 4.319,-0.568 3.817,-1.062 3.314,-1.557 2.734,-1.944 2.075,-2.224 1.416,-2.503 0.724,-2.643 0,-2.643 c -0.725,0 -1.417,0.14 -2.075,0.419 -0.659,0.28 -1.24,0.667 -1.742,1.162 -0.502,0.494 -0.902,1.078 -1.198,1.754 C -5.311,1.367 -5.46,2.1 -5.46,2.89" /></g><g
           transform="translate(693.8073,526.7093)"
           id="g338"><path
             id="path340"
             style="fill:#ffffff;fill-opacity:1;fillRule:nonzero;stroke:none"
             d="M 0,0 C 0.379,0 0.737,0.078 1.075,0.235 1.412,0.391 1.705,0.597 1.952,0.852 2.199,1.107 2.396,1.412 2.545,1.766 2.693,2.12 2.767,2.495 2.767,2.89 2.767,3.335 2.693,3.743 2.545,4.113 2.396,4.484 2.199,4.801 1.952,5.064 1.705,5.328 1.412,5.534 1.075,5.682 0.737,5.83 0.379,5.904 0,5.904 -0.395,5.904 -0.762,5.83 -1.099,5.682 -1.437,5.534 -1.729,5.328 -1.976,5.064 -2.223,4.801 -2.417,4.484 -2.557,4.113 c -0.14,-0.37 -0.21,-0.778 -0.21,-1.223 0,-0.395 0.07,-0.77 0.21,-1.124 0.14,-0.354 0.334,-0.659 0.581,-0.914 C -1.729,0.597 -1.437,0.391 -1.099,0.235 -0.762,0.078 -0.395,0 0,0 m -5.46,2.89 c 0,0.807 0.14,1.557 0.42,2.248 0.28,0.692 0.663,1.289 1.149,1.792 0.486,0.502 1.062,0.897 1.729,1.185 C -1.495,8.404 -0.774,8.548 0,8.548 0.774,8.548 1.495,8.404 2.162,8.115 2.829,7.827 3.405,7.432 3.891,6.93 4.377,6.427 4.76,5.83 5.04,5.139 5.32,4.447 5.46,3.697 5.46,2.89 5.46,2.1 5.312,1.367 5.015,0.692 4.719,0.016 4.319,-0.568 3.817,-1.062 3.314,-1.557 2.734,-1.944 2.075,-2.224 1.416,-2.503 0.724,-2.643 0,-2.643 c -0.725,0 -1.417,0.14 -2.075,0.419 -0.659,0.28 -1.24,0.667 -1.742,1.162 -0.502,0.494 -0.902,1.078 -1.198,1.754 C -5.311,1.367 -5.46,2.1 -5.46,2.89" /></g><g
           transform="translate(705.9373,526.8329)"
           id="g342"><path
             id="path344"
             style="fill:#ffffff;fill-opacity:1;fillRule:nonzero;stroke:none"
             d="M 0,0 C 0.346,0 0.679,0.062 1,0.185 1.322,0.309 1.602,0.49 1.841,0.729 2.079,0.967 2.273,1.268 2.421,1.63 2.569,1.993 2.643,2.412 2.643,2.89 2.643,3.368 2.569,3.792 2.421,4.163 2.273,4.533 2.079,4.842 1.841,5.089 1.602,5.336 1.322,5.525 1,5.657 0.679,5.789 0.346,5.855 0,5.855 c -0.758,0 -1.392,-0.28 -1.902,-0.84 -0.511,-0.56 -0.766,-1.268 -0.766,-2.125 0,-0.889 0.255,-1.593 0.766,-2.112 C -1.392,0.259 -0.758,0 0,0 m -5.435,2.841 c 0,0.856 0.131,1.634 0.395,2.335 0.264,0.699 0.626,1.297 1.087,1.791 0.461,0.494 1.005,0.877 1.631,1.148 0.625,0.272 1.301,0.408 2.026,0.408 0.642,0 1.206,-0.086 1.692,-0.259 C 1.881,8.091 2.298,7.856 2.643,7.559 v 5.732 H 5.312 V -2.52 H 2.643 v 0.865 C 2.298,-1.968 1.881,-2.211 1.396,-2.384 0.91,-2.557 0.346,-2.643 -0.296,-2.643 c -0.725,0 -1.401,0.144 -2.026,0.432 -0.626,0.288 -1.17,0.679 -1.631,1.173 -0.461,0.494 -0.823,1.075 -1.087,1.742 -0.264,0.667 -0.395,1.379 -0.395,2.137" /></g><g
           transform="translate(647.061,548.3332)"
           id="g346"><path
             id="path348"
             style="fill:#ffffff;fill-opacity:1;fillRule:nonzero;stroke:none"
             d="m 0,0 h -12.473 v 2.703 c 0,0.435 0.353,0.788 0.788,0.788 H -0.788 C -0.353,3.491 0,3.138 0,2.703 Z m 8.342,-0.018 c 0,0.137 -0.045,0.262 -0.12,0.365 h 0.001 c 0,0 -3.262,4.896 -3.434,5.184 C 4.618,5.818 4.558,5.962 4.275,5.962 h -20.948 c -0.283,0 -0.343,-0.144 -0.515,-0.431 -0.153,-0.256 -2.687,-3.984 -3.261,-4.846 0,0 -0.366,-0.468 -0.366,-0.704 0,-0.235 0.001,-0.032 0.002,-0.048 v 0 l 0.961,-21.151 0.014,-0.265 c 0.147,-1.472 1.223,-2.657 2.685,-2.712 h 10e-4 4.138 v 6.205 0.644 c 0,1.828 -0.112,1.891 -1.013,2.792 -0.902,0.901 -0.902,1.626 -0.902,1.626 v 7.832 c 0,0.351 0.285,0.636 0.636,0.636 h 1.056 v -6.541 c 0,-0.311 0.254,-0.565 0.565,-0.565 0.311,0 0.565,0.254 0.565,0.565 v 6.541 h 1.454 v -6.541 c 0,-0.311 0.254,-0.565 0.565,-0.565 0.311,0 0.565,0.254 0.565,0.565 v 6.541 h 1.061 c 0.348,0 0.631,-0.282 0.631,-0.63 v -7.838 c 0,0 0,-0.725 -0.902,-1.626 -0.901,-0.901 -1.014,-0.964 -1.014,-2.792 v -0.644 -6.206 l 7.166,-10e-4 v 6.207 1.701 c 0,1.532 -0.766,2.081 -0.766,2.081 -1.115,0.963 -1.848,2.594 -1.848,4.444 0,2.961 1.877,5.683 4.191,5.683 2.314,0 4.19,-2.722 4.19,-5.683 0,-1.85 -0.733,-3.481 -1.847,-4.444 0,0 -0.653,-0.549 -0.653,-2.081 v -1.701 -6.208 H 4.35 l 0.108,0.001 c 1.487,0.04 2.693,1.242 2.82,2.732 l 0.01,0.18 1.053,21.234 v 0 c 0.001,0.011 0.001,0.022 0.001,0.033" /></g><g
           transform="translate(670.4222,593.0073)"
           id="g350"><path
             id="path352"
             style="fill:#090e16;fill-opacity:1;fillRule:nonzero;stroke:none"
             d="m 0,0 c 4.667,0 18.661,1.554 19.704,17.823 0,0 -3.259,0.607 -6.976,0.171 0,0 -8.673,-8.836 -11.875,-16.016" /></g><g
           transform="translate(671.0005,593.0073)"
           id="g354"><path
             id="path356"
             style="fill:#090e16;fill-opacity:1;fillRule:nonzero;stroke:none"
             d="m 0,0 c -4.667,0 -18.662,1.554 -19.704,17.823 0,0 3.258,0.607 6.976,0.171 0,0 8.673,-8.836 11.875,-16.016" /></g><g
           transform="translate(729.0092,447.4424)"
           id="g358"><path
             id="path360"
             style="fill:#090e16;fill-opacity:1;fillRule:nonzero;stroke:none"
             d="m 0,0 -21.761,-0.002 c 0,0 -12.315,0.724 -12.315,-14.585 l 33.29,0.002 z" /></g><g
           transform="translate(635.4851,447.4405)"
           id="g362"><path
             id="path364"
             style="fill:#090e16;fill-opacity:1;fillRule:nonzero;stroke:none"
             d="m 0,0 -23.034,0.002 0.956,-14.585 34.393,-0.003 C 12.315,0.724 0,0 0,0" /></g><g
           transform="translate(605.4976,560.0193)"
           id="g366"><path
             id="path368"
             style="fill:none;stroke:#d4422a;stroke-width:2;stroke-linecap:round;stroke-linejoin:miter;stroke-miterlimit:10;stroke-dasharray:none;stroke-opacity:1"
             d="M 0,0 3.076,-50.784" /></g><g
           transform="translate(726.5986,544.0104)"
           id="g370"><path
             id="path372"
             style="fill:#e9ebed;fill-opacity:1;fillRule:nonzero;stroke:none"
             d="M 0,0 1.43,-13.535 36.182,-3.274 C 34.694,1.162 32.88,5.821 30.686,10.69 Z" /></g><g
           transform="translate(643.6069,530.6973)"
           id="g374"><path
             id="path376"
             style="fill:none;stroke:#bf9b65;stroke-width:3.59299994;stroke-linecap:butt;stroke-linejoin:miter;stroke-miterlimit:10;stroke-dasharray:none;stroke-opacity:1"
             d="M 0,0 C 0,0 -5.821,28.492 21.546,28.492 50.427,28.492 45.872,4.941 46.252,0 Z" /></g><g
           transform="translate(652.83,530.6973)"
           id="g378"><path
             id="path380"
             style="fill:none;stroke:#d2aa6e;stroke-width:3.59299994;stroke-linecap:butt;stroke-linejoin:miter;stroke-miterlimit:10;stroke-dasharray:none;stroke-opacity:1"
             d="M 0,0 C 0,0 -5.821,28.492 21.546,28.492 50.427,28.492 45.872,4.941 46.252,0 Z" /></g><g
           transform="translate(637.7677,532.9778)"
           id="g382"><path
             id="path384"
             style="fill:#d2aa6e;fill-opacity:1;fillRule:nonzero;stroke:none"
             d="m 0,0 h -12.163 l -3.735,-110.018 h 14.434" /></g><g
           transform="translate(637.7677,532.9778)"
           id="g386"><path
             id="path388"
             style="fill:#ddbf91;fill-opacity:1;fillRule:nonzero;stroke:none"
             d="M 0,0 -2.189,-110.018 H 83.577 L 80.89,0 Z" /></g><path
           id="path390"
           style="fill:#e94e30;fill-opacity:1;fillRule:nonzero;stroke:none"
           d="m 709.166,435.14 h -60.599 v 83.15 h 60.599 z" /><g
           transform="translate(659.234,464.7985)"
           id="g392"><path
             id="path394"
             style="fill:#ffffff;fill-opacity:1;fillRule:nonzero;stroke:none"
             d="m 0,0 c -0.694,0.223 -1.013,0.516 -1.014,0.919 0.02,0.447 0.438,0.785 1.008,0.806 C 0.455,1.724 0.864,1.602 1.267,1.344 1.369,1.282 1.42,1.306 1.479,1.383 1.486,1.394 1.508,1.425 1.58,1.529 L 1.581,1.53 C 1.65,1.628 1.676,1.667 1.683,1.679 1.733,1.772 1.733,1.822 1.631,1.895 1.543,1.958 1.298,2.084 1.159,2.139 0.772,2.293 0.37,2.369 -0.031,2.361 -0.944,2.341 -1.659,1.749 -1.706,0.969 c -0.03,-0.564 0.258,-1.017 0.855,-1.35 0.17,-0.089 0.778,-0.317 1.057,-0.399 0.795,-0.232 1.203,-0.655 1.119,-1.148 -0.076,-0.448 -0.551,-0.75 -1.224,-0.771 -0.492,0.01 -0.985,0.19 -1.412,0.51 -0.002,0.002 -0.014,0.01 -0.033,0.025 -0.025,0.017 -0.033,0.024 -0.034,0.024 -0.094,0.065 -0.162,0.065 -0.226,-0.032 -0.003,-0.004 -0.054,-0.083 -0.106,-0.161 -0.06,-0.09 -0.086,-0.13 -0.1,-0.152 -0.055,-0.082 -0.046,-0.126 0.035,-0.193 v -10e-4 c 0.172,-0.138 0.394,-0.283 0.544,-0.356 0.415,-0.202 0.864,-0.309 1.339,-0.319 0.308,-0.015 0.695,0.057 0.983,0.186 0.524,0.232 0.858,0.686 0.917,1.245 C 2.103,-1.017 1.509,-0.452 0,0" /></g><g
           transform="translate(663.4666,465.0247)"
           id="g396"><path
             id="path398"
             style="fill:#ffffff;fill-opacity:1;fillRule:nonzero;stroke:none"
             d="M 0,0 C -0.366,0 -0.717,-0.118 -1.007,-0.332 V 2.01 c 0,0.091 -0.036,0.127 -0.127,0.127 h -0.424 c -0.101,0 -0.127,-0.034 -0.127,-0.127 v -5.443 c 0,-0.089 0.026,-0.127 0.127,-0.127 h 0.424 c 0.092,0 0.127,0.039 0.127,0.127 v 1.778 c 0,0.607 0.454,0.989 1.007,0.989 0.555,0 1.007,-0.382 1.007,-0.993 v -1.774 c 0,-0.103 0.025,-0.127 0.127,-0.127 h 0.423 c 0.101,0 0.127,0.024 0.127,0.127 v 1.779 C 1.681,-0.743 0.921,0 0,0" /></g><g
           transform="translate(667.5112,462.106)"
           id="g400"><path
             id="path402"
             style="fill:#ffffff;fill-opacity:1;fillRule:nonzero;stroke:none"
             d="m 0,0 c -0.637,0 -1.154,0.506 -1.154,1.13 0,0.624 0.517,1.13 1.154,1.13 0.637,0 1.154,-0.506 1.154,-1.13 C 1.154,0.506 0.637,0 0,0 m 0,2.915 c -1.006,0 -1.822,-0.799 -1.822,-1.786 0,-0.986 0.816,-1.786 1.822,-1.786 1.007,0 1.822,0.8 1.822,1.786 0,0.987 -0.815,1.786 -1.822,1.786" /></g><g
           transform="translate(678.7682,463.6497)"
           id="g404"><path
             id="path406"
             style="fill:#ffffff;fill-opacity:1;fillRule:nonzero;stroke:none"
             d="M 0,0 C 0.132,0.432 0.533,0.72 1,0.72 1.451,0.72 1.873,0.412 2.018,0 Z m 2.519,-0.655 c 0.003,0 0.006,0 0.009,0 0.112,0.005 0.2,0.1 0.2,0.215 0,0.005 -0.001,0.01 -0.001,0.015 0,0.002 0,0.006 0,0.013 0,0.986 -0.773,1.786 -1.727,1.786 -0.955,0 -1.728,-0.8 -1.728,-1.786 0,-0.073 0.005,-0.147 0.013,-0.219 l 0.003,-0.024 v 0 c 0.048,-0.357 0.201,-0.682 0.438,-0.944 0,0 0,0 0.002,-0.002 0.264,-0.291 0.624,-0.49 1.024,-0.565 l 0.031,-0.005 v 0 c 0.014,-0.002 0.029,-0.004 0.047,-0.007 0.547,-0.066 1.008,0.023 1.382,0.211 0.101,0.051 0.187,0.106 0.26,0.16 0.025,0.019 0.047,0.037 0.066,0.053 0.011,0.01 0.018,0.017 0.022,0.021 0.097,0.1 0.101,0.143 0.044,0.233 -0.134,0.213 -0.209,0.317 -0.209,0.317 -0.053,0.065 -0.1,0.08 -0.166,0.021 C 2.217,-1.172 2.206,-1.179 2.2,-1.185 1.801,-1.539 1.278,-1.609 0.822,-1.513 0.728,-1.488 0.64,-1.456 0.56,-1.418 0.248,-1.262 0.023,-0.982 -0.042,-0.655 h 2.553 c 0.002,0 0.005,0 0.008,0" /></g><g
           transform="translate(671.6844,462.1153)"
           id="g408"><path
             id="path410"
             style="fill:#ffffff;fill-opacity:1;fillRule:nonzero;stroke:none"
             d="M 0,0 C -0.615,0 -1.117,0.489 -1.133,1.101 V 1.159 C -1.117,1.771 -0.615,2.26 0,2.26 0.626,2.26 1.133,1.754 1.133,1.13 1.133,0.506 0.626,0 0,0 m 0,2.915 c -0.419,0 -0.816,-0.144 -1.133,-0.403 v 0.276 c 0,0.096 -0.026,0.127 -0.127,0.127 H -1.663 C -1.764,2.915 -1.79,2.887 -1.79,2.788 V -2.35 c 0,-0.094 0.026,-0.127 0.127,-0.127 h 0.403 c 0.101,0 0.127,0.032 0.127,0.127 v 2.096 c 0.317,-0.259 0.714,-0.403 1.133,-0.403 0.989,0 1.791,0.8 1.791,1.786 0,0.986 -0.802,1.786 -1.791,1.786" /></g><g
           transform="translate(674.7688,463.6497)"
           id="g412"><path
             id="path414"
             style="fill:#ffffff;fill-opacity:1;fillRule:nonzero;stroke:none"
             d="M 0,0 C 0.132,0.432 0.533,0.72 1,0.72 1.451,0.72 1.873,0.412 2.018,0 Z m 2.727,-0.412 c 0,0.986 -0.773,1.786 -1.727,1.786 -0.955,0 -1.728,-0.8 -1.728,-1.786 0,-0.073 0.005,-0.147 0.013,-0.219 l 0.003,-0.024 v 0 c 0.048,-0.357 0.201,-0.682 0.438,-0.944 0,0 0,0 0.002,-0.002 0.264,-0.291 0.624,-0.49 1.024,-0.565 l 0.031,-0.005 v 0 c 0.014,-0.002 0.029,-0.004 0.047,-0.007 0.547,-0.066 1.008,0.023 1.382,0.211 0.101,0.051 0.187,0.106 0.26,0.16 0.025,0.019 0.047,0.037 0.066,0.053 0.011,0.01 0.018,0.017 0.022,0.021 0.097,0.1 0.101,0.143 0.044,0.233 -0.134,0.213 -0.209,0.317 -0.209,0.317 -0.053,0.065 -0.1,0.08 -0.166,0.021 C 2.217,-1.172 2.206,-1.179 2.2,-1.185 1.801,-1.539 1.278,-1.609 0.822,-1.513 0.728,-1.488 0.64,-1.456 0.56,-1.418 0.248,-1.262 0.023,-0.982 -0.042,-0.655 h 2.553 c 0.002,0 0.005,0 0.008,0 0.003,0 0.006,0 0.009,0 0.112,0.005 0.2,0.1 0.2,0.215 0,0.005 -0.001,0.01 -0.001,0.015 0,0.002 0,0.006 0,0.013" /></g><g
           transform="translate(682.4741,467.0859)"
           id="g416"><path
             id="path418"
             style="fill:#ffffff;fill-opacity:1;fillRule:nonzero;stroke:none"
             d="M 0,0 H 3.832 V -1.042 H 1.042 V -2.393 H 3.779 V -3.435 H 1.042 V -5.651 H 0 Z" /></g><g
           transform="translate(688.6283,462.2914)"
           id="g420"><path
             id="path422"
             style="fill:#ffffff;fill-opacity:1;fillRule:nonzero;stroke:none"
             d="m 0,0 c 0.135,0 0.263,0.028 0.384,0.084 0.121,0.056 0.225,0.129 0.314,0.221 0.088,0.091 0.158,0.2 0.211,0.326 0.053,0.127 0.08,0.261 0.08,0.402 0,0.159 -0.027,0.305 -0.08,0.437 C 0.856,1.603 0.786,1.716 0.698,1.81 0.609,1.904 0.505,1.978 0.384,2.031 0.263,2.084 0.135,2.11 0,2.11 -0.141,2.11 -0.272,2.084 -0.393,2.031 -0.514,1.978 -0.618,1.904 -0.706,1.81 -0.795,1.716 -0.864,1.603 -0.914,1.47 -0.964,1.338 -0.989,1.192 -0.989,1.033 c 0,-0.141 0.025,-0.275 0.075,-0.402 0.05,-0.126 0.119,-0.235 0.208,-0.326 C -0.618,0.213 -0.514,0.14 -0.393,0.084 -0.272,0.028 -0.141,0 0,0 m -1.951,1.033 c 0,0.288 0.05,0.556 0.15,0.804 0.1,0.247 0.237,0.46 0.41,0.64 0.174,0.179 0.38,0.321 0.618,0.424 C -0.534,3.004 -0.277,3.055 0,3.055 0.277,3.055 0.534,3.004 0.773,2.901 1.011,2.798 1.217,2.656 1.391,2.477 1.564,2.297 1.701,2.084 1.801,1.837 1.901,1.589 1.951,1.321 1.951,1.033 1.951,0.751 1.898,0.489 1.792,0.247 1.686,0.006 1.544,-0.203 1.364,-0.38 1.185,-0.556 0.977,-0.695 0.742,-0.795 0.506,-0.895 0.259,-0.945 0,-0.945 c -0.259,0 -0.506,0.05 -0.742,0.15 -0.235,0.1 -0.443,0.239 -0.622,0.415 -0.18,0.177 -0.322,0.386 -0.428,0.627 -0.106,0.242 -0.159,0.504 -0.159,0.786" /></g><g
           transform="translate(692.9724,462.2914)"
           id="g424"><path
             id="path426"
             style="fill:#ffffff;fill-opacity:1;fillRule:nonzero;stroke:none"
             d="m 0,0 c 0.135,0 0.263,0.028 0.384,0.084 0.121,0.056 0.225,0.129 0.314,0.221 0.088,0.091 0.158,0.2 0.211,0.326 0.053,0.127 0.08,0.261 0.08,0.402 0,0.159 -0.027,0.305 -0.08,0.437 C 0.856,1.603 0.786,1.716 0.698,1.81 0.609,1.904 0.505,1.978 0.384,2.031 0.263,2.084 0.135,2.11 0,2.11 -0.141,2.11 -0.272,2.084 -0.393,2.031 -0.514,1.978 -0.618,1.904 -0.706,1.81 -0.795,1.716 -0.864,1.603 -0.914,1.47 -0.964,1.338 -0.989,1.192 -0.989,1.033 c 0,-0.141 0.025,-0.275 0.075,-0.402 0.05,-0.126 0.119,-0.235 0.208,-0.326 C -0.618,0.213 -0.514,0.14 -0.393,0.084 -0.272,0.028 -0.141,0 0,0 m -1.951,1.033 c 0,0.288 0.05,0.556 0.15,0.804 0.1,0.247 0.237,0.46 0.41,0.64 0.174,0.179 0.38,0.321 0.618,0.424 C -0.534,3.004 -0.277,3.055 0,3.055 0.277,3.055 0.534,3.004 0.773,2.901 1.011,2.798 1.217,2.656 1.391,2.477 1.564,2.297 1.701,2.084 1.801,1.837 1.901,1.589 1.951,1.321 1.951,1.033 1.951,0.751 1.898,0.489 1.792,0.247 1.686,0.006 1.544,-0.203 1.364,-0.38 1.185,-0.556 0.977,-0.695 0.742,-0.795 0.506,-0.895 0.259,-0.945 0,-0.945 c -0.259,0 -0.506,0.05 -0.742,0.15 -0.235,0.1 -0.443,0.239 -0.622,0.415 -0.18,0.177 -0.322,0.386 -0.428,0.627 -0.106,0.242 -0.159,0.504 -0.159,0.786" /></g><g
           transform="translate(697.3077,462.3356)"
           id="g428"><path
             id="path430"
             style="fill:#ffffff;fill-opacity:1;fillRule:nonzero;stroke:none"
             d="m 0,0 c 0.124,0 0.243,0.022 0.358,0.066 0.114,0.044 0.214,0.109 0.3,0.195 0.085,0.085 0.154,0.192 0.207,0.322 0.053,0.129 0.08,0.279 0.08,0.45 0,0.171 -0.027,0.322 -0.08,0.455 C 0.812,1.62 0.743,1.731 0.658,1.819 0.572,1.907 0.472,1.975 0.358,2.022 0.243,2.069 0.124,2.093 0,2.093 -0.271,2.093 -0.497,1.992 -0.68,1.792 -0.862,1.592 -0.954,1.339 -0.954,1.033 -0.954,0.715 -0.862,0.464 -0.68,0.278 -0.497,0.093 -0.271,0 0,0 m -1.943,1.015 c 0,0.306 0.047,0.584 0.142,0.835 0.094,0.25 0.223,0.463 0.388,0.64 0.165,0.177 0.359,0.313 0.583,0.411 0.224,0.097 0.465,0.145 0.724,0.145 0.23,0 0.431,-0.031 0.605,-0.093 C 0.672,2.892 0.821,2.808 0.945,2.702 V 4.75 H 1.898 V -0.901 H 0.945 v 0.309 C 0.821,-0.703 0.672,-0.79 0.499,-0.852 0.325,-0.914 0.124,-0.945 -0.106,-0.945 c -0.259,0 -0.5,0.052 -0.724,0.155 -0.224,0.103 -0.418,0.243 -0.583,0.419 -0.165,0.177 -0.294,0.384 -0.388,0.623 -0.095,0.238 -0.142,0.493 -0.142,0.763" /></g><g
           transform="translate(682.9176,487.1392)"
           id="g432"><path
             id="path434"
             style="fill:#ffffff;fill-opacity:1;fillRule:nonzero;stroke:none"
             d="m 0,0 h -9.185 v 1.991 c 0,0.32 0.26,0.58 0.58,0.58 H -0.58 C -0.26,2.571 0,2.311 0,1.991 Z m 6.143,-0.014 c 0,0.101 -0.034,0.194 -0.089,0.27 h 0.002 c 0,0 -2.403,3.605 -2.529,3.817 C 3.4,4.285 3.356,4.391 3.148,4.391 h -15.426 c -0.209,0 -0.253,-0.106 -0.379,-0.318 -0.113,-0.189 -1.979,-2.934 -2.402,-3.568 0,0 -0.269,-0.345 -0.269,-0.519 0,-0.173 0,-0.024 10e-4,-0.035 v 0 l 0.708,-15.576 0.011,-0.195 c 0.108,-1.084 0.9,-1.957 1.977,-1.997 v 0 h 3.048 v 4.569 0.475 c 0,1.345 -0.083,1.392 -0.747,2.056 -0.663,0.663 -0.663,1.197 -0.663,1.197 v 5.767 c 0,0.259 0.209,0.469 0.468,0.469 h 0.777 v -4.817 c 0,-0.229 0.187,-0.416 0.416,-0.416 0.229,0 0.417,0.187 0.417,0.416 v 4.817 h 1.07 v -4.817 c 0,-0.229 0.187,-0.416 0.416,-0.416 0.229,0 0.416,0.187 0.416,0.416 v 4.817 h 0.782 c 0.256,0 0.464,-0.208 0.464,-0.465 V -9.52 c 0,0 0,-0.534 -0.664,-1.197 -0.663,-0.664 -0.746,-0.711 -0.746,-2.056 v -0.475 -4.57 l 5.276,-10e-4 v 4.571 1.253 c 0,1.128 -0.564,1.532 -0.564,1.532 -0.821,0.71 -1.36,1.911 -1.36,3.273 0,2.18 1.381,4.185 3.085,4.185 1.705,0 3.086,-2.005 3.086,-4.185 0,-1.362 -0.539,-2.563 -1.36,-3.273 0,0 -0.481,-0.404 -0.481,-1.532 v -1.253 -4.571 h 2.698 0.079 c 1.096,0.03 1.984,0.915 2.077,2.012 l 0.008,0.133 0.775,15.636 v 0.001 c 10e-4,0.007 10e-4,0.015 10e-4,0.023" /></g><g
           transform="translate(660.0602,537.9657)"
           id="g436"><path
             id="path438"
             style="fill:#f9bd86;fill-opacity:1;fillRule:nonzero;stroke:none"
             d="m 0,0 c 0.852,-0.112 4.927,0.709 9.36,-0.557 4.958,-1.416 8.676,-3.468 8.683,-3.469 l 3.422,4.864 C 15.599,5.888 2.625,9.524 0.28,9.694" /></g><g
           transform="translate(681.2568,534.0488)"
           id="g440"><path
             id="path442"
             style="fill:#f9bd86;fill-opacity:1;fillRule:nonzero;stroke:none"
             d="M 0,0 C -1.37,-0.92 -3.226,-0.556 -4.146,0.814 -5.066,2.183 -4.702,4.039 -3.332,4.959 -1.963,5.88 -0.107,5.515 0.814,4.146 1.734,2.776 1.37,0.92 0,0" /></g><g
           transform="translate(638.7029,529.2489)"
           id="g444"><path
             id="path446"
             style="fill:#f9bd86;fill-opacity:1;fillRule:nonzero;stroke:none"
             d="M 0,0 C 0,0 15.771,-1.868 21.357,8.717 25.246,25.423 19.11,34.67 19.11,34.67 L -3.124,20.143 Z" /></g><g
           transform="translate(659.5828,551.7894)"
           id="g448"><path
             id="path450"
             style="fill:#f9bd86;fill-opacity:1;fillRule:nonzero;stroke:none"
             d="m 0,0 c 0,0 14.444,-1.117 15.606,-1.646 1.656,-0.755 9.192,-5.864 9.204,-5.871 1.696,-0.673 3.289,0.293 3.913,1.359 0.316,1.028 0.113,2.635 -1.032,3.875 C 22.883,0.677 15.106,5.769 11.133,6.134 6.344,6.574 -1.73,7.151 -1.73,7.151" /></g><g
           transform="translate(687.4863,544.4174)"
           id="g452"><path
             id="path454"
             style="fill:#f9bd86;fill-opacity:1;fillRule:nonzero;stroke:none"
             d="M 0,0 C -1.37,-0.92 -3.226,-0.556 -4.146,0.814 -5.066,2.183 -4.702,4.039 -3.332,4.959 -1.963,5.88 -0.107,5.515 0.814,4.146 1.734,2.776 1.37,0.92 0,0" /></g><g
           transform="translate(658.995,545.2705)"
           id="g456"><path
             id="path458"
             style="fill:#f9bd86;fill-opacity:1;fillRule:nonzero;stroke:none"
             d="m 0,0 c 0,0 14.409,-1.498 15.557,-2.058 1.635,-0.797 9.563,-5.607 9.575,-5.614 1.678,-0.717 2.766,-0.291 3.419,0.758 L 28.18,-2.56 C 23.451,0.525 15.253,5.368 11.291,5.838 6.515,6.404 -1.541,7.194 -1.541,7.194" /></g><g
           transform="translate(687.3355,537.6506)"
           id="g460"><path
             id="path462"
             style="fill:#f9bd86;fill-opacity:1;fillRule:nonzero;stroke:none"
             d="M 0,0 C -1.37,-0.92 -3.226,-0.556 -4.146,0.814 -5.066,2.183 -4.702,4.039 -3.332,4.959 -1.963,5.88 -0.107,5.515 0.814,4.146 1.734,2.776 1.37,0.92 0,0" /></g><g
           transform="translate(658.995,545.2705)"
           id="g464"><path
             id="path466"
             style="fill:none;stroke:#e7ad7e;stroke-width:1.5;stroke-linecap:round;stroke-linejoin:miter;stroke-miterlimit:10;stroke-dasharray:none;stroke-opacity:1"
             d="m 0,0 c 0,0 14.409,-1.498 15.557,-2.058 1.134,-0.553 3.976,-2.531 6.424,-4.003" /></g><g
           transform="translate(657.8125,563.9193)"
           id="g468"><path
             id="path470"
             style="fill:#f9bd86;fill-opacity:1;fillRule:nonzero;stroke:none"
             d="M 0,0 C 0,0 9.296,3.534 14.085,3.093 17.772,2.295 20.888,1.046 25.697,-1.914 27.553,-3.057 30.38,-4.457 28.529,-7.33 28.203,-7.835 26.575,-9.151 24.939,-8.514 24.926,-8.506 17,-4.435 15.345,-3.681 14.183,-3.152 1.895,-7.544 1.895,-7.544" /></g><g
           transform="translate(666.5532,558.2523)"
           id="g472"><path
             id="path474"
             style="fill:none;stroke:#e7ad7e;stroke-width:1.5;stroke-linecap:round;stroke-linejoin:miter;stroke-miterlimit:10;stroke-dasharray:none;stroke-opacity:1"
             d="M 0,0 C -4.789,0.44 -8.701,0.688 -8.701,0.688" /></g><g
           transform="translate(659.5828,551.7894)"
           id="g476"><path
             id="path478"
             style="fill:none;stroke:#e7ad7e;stroke-width:1.5;stroke-linecap:round;stroke-linejoin:miter;stroke-miterlimit:10;stroke-dasharray:none;stroke-opacity:1"
             d="m 0,0 c 0,0 14.444,-1.117 15.606,-1.646 1.656,-0.755 7.866,-4.804 7.879,-4.811" /></g><g
           transform="translate(685.6154,555.663)"
           id="g480"><path
             id="path482"
             style="fill:#f9bd86;fill-opacity:1;fillRule:nonzero;stroke:none"
             d="M 0,0 C -1.37,-0.92 -3.226,-0.556 -4.146,0.814 -5.066,2.183 -4.702,4.039 -3.332,4.959 -1.963,5.88 -0.107,5.515 0.814,4.146 1.734,2.776 1.369,0.92 0,0" /></g><g
           transform="translate(587.2422,519.2081)"
           id="g484"><path
             id="path486"
             style="fill:#e94e30;fill-opacity:1;fillRule:nonzero;stroke:none"
             d="m 0,0 c 7.606,-9.216 6.302,-22.852 -2.914,-30.459 -9.216,-7.606 -22.853,-6.301 -30.459,2.915 -7.606,9.215 -6.301,22.852 2.914,30.458 C -21.243,10.52 -7.606,9.216 0,0" /></g><g
           transform="translate(578.377,485.2656)"
           id="g488"><path
             id="path490"
             style="fill:#e94e30;fill-opacity:1;fillRule:nonzero;stroke:none"
             d="m 0,0 -18.729,38.858 72.676,28.645 c 1.27,0.495 2.701,-0.128 3.205,-1.394 l 10.12,-25.444 c 0.481,-1.208 -0.053,-2.583 -1.224,-3.149 z" /></g><g
           transform="translate(565.8445,526.6251)"
           id="g492"><path
             id="path494"
             style="fill:none;stroke:#d4422a;stroke-width:1.204;stroke-linecap:round;stroke-linejoin:miter;stroke-miterlimit:10;stroke-dasharray:none;stroke-opacity:1"
             d="M 0,0 56.025,22.075" /></g><g
           transform="translate(610.5427,503.2717)"
           id="g496"><path
             id="path498"
             style="fill:none;stroke:#d4422a;stroke-width:1.204;stroke-linecap:round;stroke-linejoin:miter;stroke-miterlimit:10;stroke-dasharray:none;stroke-opacity:1"
             d="M 0,0 24.045,13.546" /></g><g
           transform="translate(632.3237,552.769)"
           id="g500"><path
             id="path502"
             style="fill:#090e16;fill-opacity:1;fillRule:nonzero;stroke:none"
             d="m 0,0 -10.455,-4.069 12.762,-31.356 9.794,5.437 c 1.171,0.567 1.705,1.941 1.225,3.15 L 3.205,-1.395 C 2.701,-0.128 1.27,0.494 0,0" /></g><g
           transform="translate(705.9249,606.7216)"
           id="g504"><path
             id="path506"
             style="fill:#090e16;fill-opacity:1;fillRule:nonzero;stroke:none"
             d="m 0,0 c 0,0 5.374,-1.386 11.014,-3.847 0,0 11.212,-75.233 35.732,-170.018 l -9.799,-0.003 C 36.947,-173.868 7.74,-39.211 0,0" /></g><g
           transform="translate(728.2509,500.1497)"
           id="g508"><path
             id="path510"
             style="fill:#f8c1b6;fill-opacity:1;fillRule:nonzero;stroke:none"
             d="m 0,0 30.356,-3.954 c 0,0 -2.146,-23.574 -25.966,-66.833 l -20.917,8.348 z" /></g><g
           transform="translate(731.7991,434.9018)"
           id="g512"><path
             id="path514"
             style="fill:#d1966b;fill-opacity:1;fillRule:nonzero;stroke:none"
             d="m 0,0 c -1.741,-5.538 -1.586,-4.482 -2.54,-5.891 -3.113,-4.6 -11.513,-13.521 -18.612,-15.437 -3.936,-1.062 -7.679,-2.258 -10.234,-3.114 0,0 -5.804,-2.685 -7.479,-0.029 -1.674,2.657 0.351,5.423 4.843,6.931 l 9.287,4.383 c 0,0 3.133,1.435 5.077,4.351 2.765,4.146 3.627,8.143 3.262,12.423" /></g><g
           transform="translate(732.0449,434.05)"
           id="g516"><path
             id="path518"
             style="fill:#e7ad7e;fill-opacity:1;fillRule:nonzero;stroke:none"
             d="m 0,0 c -1.741,-5.538 -3.327,-10.02 -4.281,-11.429 -3.113,-4.6 -11.513,-13.522 -18.612,-15.438 -3.935,-1.062 -7.679,-2.258 -10.234,-3.113 0,0 -5.804,-2.686 -7.478,-0.029 -1.675,2.657 0.35,5.423 4.842,6.931 l 9.287,4.382 c 0,0 3.133,1.436 5.077,4.351 2.765,4.147 3.628,8.144 3.263,12.424" /></g><g
           transform="translate(711.7762,438.5088)"
           id="g520"><path
             id="path522"
             style="fill:#f9bd86;fill-opacity:1;fillRule:nonzero;stroke:none"
             d="m 0,0 c 1.054,-2.184 2.192,-3.792 2.533,-4.959 1.979,-6.77 2.001,-12.511 -2.039,-18.57 -1.945,-2.916 -5.077,-4.351 -5.077,-4.351 l -9.288,-4.382 c -4.491,-1.508 -6.516,-4.275 -4.842,-6.931 1.675,-2.657 7.479,0.029 7.479,0.029 2.555,0.855 6.298,2.051 10.234,3.113 7.099,1.916 15.499,10.838 18.612,15.437 1.729,2.555 3.888,8.214 6.929,18.953 L 2.35,4.735 c -2.827,-4.804 -3.664,-9.123 -5.46,-10.673 -1.446,-1.249 -2.8,-2.654 -4.267,-3.924 -1.64,-1.42 -3.278,-2.85 -4.834,-4.362 -3.258,-3.164 -2.099,-5.215 -0.206,-6.414 1.892,-1.199 5.426,1.044 9.396,3.998 3.969,2.954 9.99,3.679 9.99,3.679" /></g><g
           transform="translate(725.9088,512.8399)"
           id="g524"><path
             id="path526"
             style="fill:#e94e30;fill-opacity:1;fillRule:nonzero;stroke:none"
             d="m 0,0 40.616,-14.979 c 0,0 -7.366,-27.81 -27.37,-66.019 -0.571,-1.091 -1.861,-1.597 -3.022,-1.188 l -23.501,8.275 c -1.179,0.415 -1.865,1.641 -1.601,2.863 z" /></g><g
           transform="translate(713.072,451.2547)"
           id="g528"><path
             id="path530"
             style="fill:#090e16;fill-opacity:1;fillRule:nonzero;stroke:none"
             d="m 0,0 -2.042,-9.463 c -0.263,-1.221 0.423,-2.448 1.602,-2.863 l 23.5,-8.275 c 1.162,-0.409 2.452,0.097 3.023,1.188 1.549,2.96 3.014,5.848 4.414,8.675 z" /></g><g
           transform="translate(763.3224,521.6134)"
           id="g532"><path
             id="path534"
             style="fill:#e94e30;fill-opacity:1;fillRule:nonzero;stroke:none"
             d="m 0,0 c 7.772,-9.077 6.714,-22.735 -2.363,-30.506 -9.077,-7.772 -22.735,-6.714 -30.506,2.363 -7.772,9.076 -6.714,22.734 2.363,30.506 C -21.43,10.135 -7.772,9.077 0,0" /></g><g
           transform="translate(724.185,504.4371)"
           id="g536"><path
             id="path538"
             style="fill:#e94e30;fill-opacity:1;fillRule:nonzero;stroke:none"
             d="M 0,0 5.922,26.226 27.095,15.845 Z" /></g><g
           transform="translate(713.072,451.2547)"
           id="g540"><path
             id="path542"
             style="fill:none;stroke:#d4422a;stroke-width:1.204;stroke-linecap:round;stroke-linejoin:miter;stroke-miterlimit:10;stroke-dasharray:none;stroke-opacity:1"
             d="M 0,0 12.837,61.585" /></g><g
           transform="translate(206.4534,287.3233)"
           id="g544"><path
             id="path546"
             style="fill:#25ab99;fill-opacity:1;fillRule:nonzero;stroke:none"
             d="m 0,0 c 2.134,2.541 4.344,5.278 10.013,10.139 7.501,6.431 13.574,13.638 8.198,16.07 C 12.432,28.824 0.274,10.625 0,0" /></g><g
           transform="translate(207.915,271.9623)"
           id="g548"><path
             id="path550"
             style="fill:#25ab99;fill-opacity:1;fillRule:nonzero;stroke:none"
             d="m 0,0 c -2.484,2.2 -5.072,4.583 -11.393,8.558 -8.365,5.26 -15.43,11.497 -10.469,14.693 C -16.53,26.686 -1.831,10.47 0,0" /></g><g
           transform="translate(206.5159,287.1457)"
           id="g552"><path
             id="path554"
             style="fill:#25ab99;fill-opacity:1;fillRule:nonzero;stroke:none"
             d="M 0,0 C -2.169,4.239 -4.381,8.778 -10.75,17.397 -19.178,28.803 -25.36,40.834 -17.058,42.51 -8.134,44.312 3.029,14.951 0,0" /></g><g
           transform="translate(206.2327,237.8615)"
           id="g556"><path
             id="path558"
             style="fill:#25ab99;fill-opacity:1;fillRule:nonzero;stroke:none"
             d="M 0,0 C -4.068,4.164 -8.295,8.662 -18.852,16.418 -32.823,26.683 -44.397,38.49 -35.312,43.454 -25.545,48.79 -1.878,18.552 0,0" /></g><g
           transform="translate(207.5754,193.9225)"
           id="g560"><path
             id="path562"
             style="fill:#25ab99;fill-opacity:1;fillRule:nonzero;stroke:none"
             d="M 0,0 C -4.068,4.164 -8.295,8.662 -18.852,16.418 -32.823,26.683 -44.397,38.49 -35.312,43.454 -25.545,48.79 -1.878,18.552 0,0" /></g><g
           transform="translate(206.9147,208.3773)"
           id="g564"><path
             id="path566"
             style="fill:#25ab99;fill-opacity:1;fillRule:nonzero;stroke:none"
             d="M 0,0 C 4.104,4.128 8.37,8.59 18.994,16.254 33.054,26.396 44.73,38.102 35.689,43.145 25.969,48.565 2.04,18.535 0,0" /></g><g
           transform="translate(207.103,251.6645)"
           id="g568"><path
             id="path570"
             style="fill:#25ab99;fill-opacity:1;fillRule:nonzero;stroke:none"
             d="M 0,0 C 4.104,4.128 8.37,8.59 18.994,16.254 33.054,26.396 44.73,38.102 35.689,43.145 25.969,48.565 2.04,18.535 0,0" /></g><g
           transform="translate(206.5557,168.6362)"
           id="g572"><path
             id="path574"
             style="fill:#25ab99;fill-opacity:1;fillRule:nonzero;stroke:none"
             d="m 0,0 c 1.027,-0.004 1.864,0.825 1.868,1.852 l 0.521,119.696 c 0.004,1.027 -0.825,1.864 -1.852,1.868 -1.027,0.005 -1.864,-0.824 -1.868,-1.852 L -1.852,1.868 C -1.856,0.841 -1.027,0.004 0,0" /></g><g
           transform="translate(180.3881,119.5788)"
           id="g576"><path
             id="path578"
             style="fill:#e9eaec;fill-opacity:1;fillRule:nonzero;stroke:none"
             d="m 0,0 c 0.499,-2.704 3.158,-4.927 5.908,-4.939 l 40.048,-0.174 c 2.75,-0.012 5.428,2.187 5.951,4.887 l 10.489,54.163 c 0.522,2.7 -1.3,4.919 -4.05,4.931 l -64.271,0.28 c -2.75,0.012 -4.591,-2.191 -4.092,-4.895 z" /></g><g
           transform="translate(1079.8453,287.3233)"
           id="g580"><path
             id="path582"
             style="fill:#25ab99;fill-opacity:1;fillRule:nonzero;stroke:none"
             d="m 0,0 c 2.134,2.541 4.344,5.278 10.013,10.139 7.501,6.431 13.574,13.638 8.198,16.07 C 12.432,28.824 0.274,10.625 0,0" /></g><g
           transform="translate(1081.3069,271.9623)"
           id="g584"><path
             id="path586"
             style="fill:#25ab99;fill-opacity:1;fillRule:nonzero;stroke:none"
             d="m 0,0 c -2.484,2.2 -5.072,4.583 -11.393,8.558 -8.365,5.26 -15.43,11.497 -10.469,14.693 C -16.53,26.686 -1.831,10.47 0,0" /></g><g
           transform="translate(1079.9078,287.1457)"
           id="g588"><path
             id="path590"
             style="fill:#25ab99;fill-opacity:1;fillRule:nonzero;stroke:none"
             d="M 0,0 C -2.169,4.239 -4.381,8.778 -10.75,17.397 -19.178,28.803 -25.359,40.834 -17.058,42.51 -8.134,44.312 3.029,14.951 0,0" /></g><g
           transform="translate(1079.6248,237.8615)"
           id="g592"><path
             id="path594"
             style="fill:#25ab99;fill-opacity:1;fillRule:nonzero;stroke:none"
             d="M 0,0 C -4.068,4.164 -8.295,8.662 -18.852,16.418 -32.823,26.683 -44.397,38.49 -35.312,43.454 -25.545,48.79 -1.878,18.552 0,0" /></g><g
           transform="translate(1080.9674,193.9225)"
           id="g596"><path
             id="path598"
             style="fill:#25ab99;fill-opacity:1;fillRule:nonzero;stroke:none"
             d="M 0,0 C -4.068,4.164 -8.295,8.662 -18.852,16.418 -32.823,26.683 -44.397,38.49 -35.312,43.454 -25.545,48.79 -1.878,18.552 0,0" /></g><g
           transform="translate(1080.3066,208.3773)"
           id="g600"><path
             id="path602"
             style="fill:#25ab99;fill-opacity:1;fillRule:nonzero;stroke:none"
             d="M 0,0 C 4.104,4.128 8.37,8.59 18.995,16.254 33.054,26.396 44.73,38.102 35.689,43.145 25.969,48.565 2.04,18.535 0,0" /></g><g
           transform="translate(1080.495,251.6645)"
           id="g604"><path
             id="path606"
             style="fill:#25ab99;fill-opacity:1;fillRule:nonzero;stroke:none"
             d="M 0,0 C 4.104,4.128 8.37,8.59 18.995,16.254 33.054,26.396 44.73,38.102 35.689,43.145 25.969,48.565 2.04,18.535 0,0" /></g><g
           transform="translate(1079.9476,168.6362)"
           id="g608"><path
             id="path610"
             style="fill:#25ab99;fill-opacity:1;fillRule:nonzero;stroke:none"
             d="m 0,0 c 1.027,-0.004 1.864,0.825 1.868,1.852 l 0.521,119.696 c 0.004,1.027 -0.825,1.864 -1.852,1.868 -1.027,0.005 -1.864,-0.824 -1.868,-1.852 L -1.852,1.868 C -1.856,0.841 -1.027,0.004 0,0" /></g><g
           transform="translate(1053.78,119.5788)"
           id="g612"><path
             id="path614"
             style="fill:#e9eaec;fill-opacity:1;fillRule:nonzero;stroke:none"
             d="m 0,0 c 0.499,-2.704 3.158,-4.927 5.908,-4.939 l 40.048,-0.174 c 2.75,-0.012 5.428,2.187 5.951,4.887 l 10.489,54.163 c 0.522,2.7 -1.3,4.919 -4.05,4.931 l -64.271,0.28 c -2.75,0.012 -4.591,-2.191 -4.092,-4.895 z" /></g><path
           id="path616"
           style="fill:#e9eaec;fill-opacity:1;fillRule:nonzero;stroke:none"
           d="M 481.004,424.91 H 206.835 v 321.02 h 274.169 z" /><path
           id="path618"
           style="fill:#e9eaec;fill-opacity:1;fillRule:nonzero;stroke:none"
           d="M 473.161,434.093 H 214.678 v 302.654 h 258.483 z" /><path
           id="path620"
           style="fill:#d7dadf;fill-opacity:1;fillRule:nonzero;stroke:none"
           d="m 346.994,434.034 h -6.148 v 302.65 h 6.148 z" /><g
           transform="translate(214.3355,558.2881)"
           id="g622"><path
             id="path624"
             style="fill:#d7dadf;fill-opacity:1;fillRule:nonzero;stroke:none"
             d="M 0,0 V 178.72 H 125.878 L 115.326,158.222 C 85.274,99.849 46.372,46.477 0,0 Z" /></g><g
           transform="translate(474.0635,558.2881)"
           id="g626"><path
             id="path628"
             style="fill:#d7dadf;fill-opacity:1;fillRule:nonzero;stroke:none"
             d="m 0,0 v 178.72 h -125.878 l 10.552,-20.498 C -85.274,99.849 -46.372,46.477 0,0 Z" /></g><g
           transform="translate(214.3355,552.7249)"
           id="g630"><path
             id="path632"
             style="fill:#d7dadf;fill-opacity:1;fillRule:nonzero;stroke:none"
             d="m 0,0 v -118.691 h 71.254 c 0,0 -34.238,71.572 -57.436,101.101 z" /></g><g
           transform="translate(472.9658,552.7249)"
           id="g634"><path
             id="path636"
             style="fill:#d7dadf;fill-opacity:1;fillRule:nonzero;stroke:none"
             d="m 0,0 v -118.691 h -71.254 c 0,0 34.238,71.572 57.436,101.101 z" /></g><path
           id="path638"
           style="fill:#d7dadf;fill-opacity:1;fillRule:nonzero;stroke:none"
           d="M 473.235,551.936 H 214.619 v 6.148 h 258.616 z" /><path
           id="path640"
           style="fill:#d2aa6e;fill-opacity:1;fillRule:nonzero;stroke:none"
           d="M 481.004,179.364 H 277.275 v 14.335 h 203.729 z" /><path
           id="path642"
           style="fill:#d2aa6e;fill-opacity:1;fillRule:nonzero;stroke:none"
           d="M 481.004,127.884 H 277.275 v 14.335 h 203.729 z" /><path
           id="path644"
           style="fill:#d2aa6e;fill-opacity:1;fillRule:nonzero;stroke:none"
           d="m 314.524,142.387 h -11.961 v 51.312 h 11.961 z" /><path
           id="path646"
           style="fill:#d2aa6e;fill-opacity:1;fillRule:nonzero;stroke:none"
           d="m 314.524,113.209 h -11.961 v 14.675 h 11.961 z" /><path
           id="path648"
           style="fill:#d2aa6e;fill-opacity:1;fillRule:nonzero;stroke:none"
           d="m 456.058,113.209 h -11.961 v 14.675 h 11.961 z" /><path
           id="path650"
           style="fill:#d2aa6e;fill-opacity:1;fillRule:nonzero;stroke:none"
           d="m 456.058,142.387 h -11.961 v 51.312 h 11.961 z" /><g
           transform="translate(375.5975,197.7205)"
           id="g652"><path
             id="path654"
             style="fill:#e6d0af;fill-opacity:1;fillRule:nonzero;stroke:none"
             d="m 0,0 h -41.523 v 31.142 c 0,11.467 9.295,20.762 20.761,20.762 h 0.001 C -9.295,51.904 0,42.609 0,31.142 Z" /></g><g
           transform="translate(354.836,155.5149)"
           id="g656"><path
             id="path658"
             style="fill:#e6d0af;fill-opacity:1;fillRule:nonzero;stroke:none"
             d="M 0,0 V 0 C -9.091,0 -16.461,7.37 -16.461,16.461 V 42.273 H 16.461 V 16.461 C 16.461,7.37 9.091,0 0,0" /></g><g
           transform="translate(375.5975,219.6694)"
           id="g660"><path
             id="path662"
             style="fill:#d2aa6e;fill-opacity:1;fillRule:nonzero;stroke:none"
             d="m 0,0 v 0 c -13.715,2.644 -27.808,2.644 -41.523,0 v 0 -21.949 0 c 13.783,1.785 27.74,1.785 41.523,0 z" /></g><g
           transform="translate(424.2042,197.7205)"
           id="g664"><path
             id="path666"
             style="fill:#e6d0af;fill-opacity:1;fillRule:nonzero;stroke:none"
             d="m 0,0 h -41.523 v 31.142 c 0,11.467 9.295,20.762 20.761,20.762 h 0.001 C -9.295,51.904 0,42.609 0,31.142 Z" /></g><g
           transform="translate(403.4427,155.5149)"
           id="g668"><path
             id="path670"
             style="fill:#e6d0af;fill-opacity:1;fillRule:nonzero;stroke:none"
             d="M 0,0 V 0 C -9.091,0 -16.461,7.37 -16.461,16.461 V 42.273 H 16.461 V 16.461 C 16.461,7.37 9.091,0 0,0" /></g><g
           transform="translate(424.2042,219.6694)"
           id="g672"><path
             id="path674"
             style="fill:#d2aa6e;fill-opacity:1;fillRule:nonzero;stroke:none"
             d="m 0,0 v 0 c -13.715,2.644 -27.808,2.644 -41.523,0 v 0 -21.949 0 c 13.783,1.785 27.74,1.785 41.523,0 z" /></g></g></g></g></svg>