<?xml version="1.0" encoding="UTF-8" standalone="no"?>
<!-- Created with Inkscape (http://www.inkscape.org/) -->

<svg
   version="1.1"
   id="svg2"
   width="1656.1733"
   height="1294.6667"
   viewBox="0 0 1656.1733 1294.6667"
   sodipodi:docname="package on the way.ai"
   xmlns:inkscape="http://www.inkscape.org/namespaces/inkscape"
   xmlns:sodipodi="http://sodipodi.sourceforge.net/DTD/sodipodi-0.dtd"
   xmlns="http://www.w3.org/2000/svg"
   xmlns:svg="http://www.w3.org/2000/svg">
  <defs
     id="defs6">
    <clipPath
       clipPathUnits="userSpaceOnUse"
       id="clipPath46">
      <path
         d="M 0,971 H 1242.134 V 0 H 0 Z"
         id="path44" />
    </clipPath>
  </defs>
  <sodipodi:namedview
     id="namedview4"
     pagecolor="#ffffff"
     bordercolor="#000000"
     borderopacity="0.25"
     inkscape:showpageshadow="2"
     inkscape:pageopacity="0.0"
     inkscape:pagecheckerboard="0"
     inkscape:deskcolor="#d1d1d1" />
  <g
     id="g8"
     inkscape:groupmode="layer"
     inkscape:label="package on the way"
     transform="matrix(1.3333333,0,0,-1.3333333,0,1294.6667)">
    <g
       id="g10"
       transform="translate(62.2993,521.354)">
      <path
         d="M 0,0 V 36.896 H 27.45 V 57.021 H 65.026 V 95.594 H 83.815 V 73.792 h 18.789 v 68.76 h 14.452 v 33.542 h 84.549 V 53.667 h 48.416 v 186.156 h 17.344 v -12.578 h 9.394 v -69.599 h 100.893 v -18.448 h 11.831 v 100.625 h 79.054 V 80.5 H 570.78 v 168.005 h 57.475 V 114.042 l 7.655,41.927 h 7.403 v 36.896 h 48.962 V 82.514 h 199.448 v 75.132 h 36.132 v 110.829 h 46.249 V 107.333 h 18.226 v 62.053 h 48.979 V 43.2 h 77.322 V 6.382 Z"
         style="fill:#e9ebed;fill-opacity:1;fillRule:nonzero;stroke:none"
         id="path12" />
    </g>
    <path
       d="m 268.963,694.094 h -95.388 v 6.708 h 95.388 z"
       style="fill:#e9ebed;fill-opacity:1;fillRule:nonzero;stroke:none"
       id="path14" />
    <path
       d="m 219.823,694.094 h -36.132 v 20.125 h 36.132 z"
       style="fill:#e9ebed;fill-opacity:1;fillRule:nonzero;stroke:none"
       id="path16" />
    <path
       d="m 240.057,694.094 h -5.781 v 20.125 h 5.781 z"
       style="fill:#e9ebed;fill-opacity:1;fillRule:nonzero;stroke:none"
       id="path18" />
    <path
       d="m 253.065,694.094 h -5.781 v 20.125 h 5.781 z"
       style="fill:#e9ebed;fill-opacity:1;fillRule:nonzero;stroke:none"
       id="path20" />
    <path
       d="m 319.547,757.823 h -1.445 v 26.833 h 1.445 z"
       style="fill:#e9ebed;fill-opacity:1;fillRule:nonzero;stroke:none"
       id="path22" />
    <path
       d="m 1020.505,789.687 h -1.445 v 26.833 h 1.445 z"
       style="fill:#e9ebed;fill-opacity:1;fillRule:nonzero;stroke:none"
       id="path24" />
    <path
       d="m 1026.286,786.333 h -1.445 V 840 h 1.445 z"
       style="fill:#e9ebed;fill-opacity:1;fillRule:nonzero;stroke:none"
       id="path26" />
    <path
       d="m 1078.315,673.969 h -21.679 v 30.187 h 21.679 z"
       style="fill:#e9ebed;fill-opacity:1;fillRule:nonzero;stroke:none"
       id="path28" />
    <path
       d="m 1075.426,684.031 h -15.898 v 30.187 h 15.898 z"
       style="fill:#e9ebed;fill-opacity:1;fillRule:nonzero;stroke:none"
       id="path30" />
    <path
       d="m 1092.769,684.031 h -4.336 v 15.094 h 4.336 z"
       style="fill:#e9ebed;fill-opacity:1;fillRule:nonzero;stroke:none"
       id="path32" />
    <path
       d="m 1099.995,687.385 h -5.781 v 20.125 h 5.781 z"
       style="fill:#e9ebed;fill-opacity:1;fillRule:nonzero;stroke:none"
       id="path34" />
    <path
       d="m 1032.067,786.333 h -1.445 v 40.25 h 1.445 z"
       style="fill:#e9ebed;fill-opacity:1;fillRule:nonzero;stroke:none"
       id="path36" />
    <path
       d="m 323.883,757.823 h -1.445 v 26.833 h 1.445 z"
       style="fill:#e9ebed;fill-opacity:1;fillRule:nonzero;stroke:none"
       id="path38" />
    <g
       id="g40">
      <g
         id="g42"
         clip-path="url(#clipPath46)">
        <g
           id="g48"
           transform="translate(1202.501,518)">
          <path
             d="m 0,0 h -1156.002 c -1.649,0 -2.999,1.35 -2.999,2.999 v 19.158 c 0,1.65 1.35,2.999 2.999,2.999 H 0 c 1.649,0 2.999,-1.349 2.999,-2.999 V 2.999 C 2.999,1.35 1.649,0 0,0"
             style="fill:#c5cad0;fill-opacity:1;fillRule:nonzero;stroke:none"
             id="path50" />
        </g>
        <path
           d="M 104.202,531.417 H 75.296 v 53.667 h 28.906 z"
           style="fill:#c5cad0;fill-opacity:1;fillRule:nonzero;stroke:none"
           id="path52" />
        <path
           d="m 164.903,521.354 h -37.577 v 53.667 h 37.577 z"
           style="fill:#c5cad0;fill-opacity:1;fillRule:nonzero;stroke:none"
           id="path54" />
        <path
           d="m 247.284,521.354 h -57.811 v 36.896 h 57.811 z"
           style="fill:#c5cad0;fill-opacity:1;fillRule:nonzero;stroke:none"
           id="path56" />
        <path
           d="m 280.525,531.417 h -37.577 v 125.781 h 37.577 z"
           style="fill:#c5cad0;fill-opacity:1;fillRule:nonzero;stroke:none"
           id="path58" />
        <path
           d="m 273.298,643.781 h -18.789 v 21.802 h 18.789 z"
           style="fill:#c5cad0;fill-opacity:1;fillRule:nonzero;stroke:none"
           id="path60" />
        <path
           d="m 316.657,623.656 h -43.358 v 5.031 h 43.358 z"
           style="fill:#c5cad0;fill-opacity:1;fillRule:nonzero;stroke:none"
           id="path62" />
        <path
           d="m 312.321,531.417 h -39.022 v 93.917 h 39.022 z"
           style="fill:#c5cad0;fill-opacity:1;fillRule:nonzero;stroke:none"
           id="path64" />
        <path
           d="m 332.555,531.417 h -39.022 v 50.313 h 39.022 z"
           style="fill:#c5cad0;fill-opacity:1;fillRule:nonzero;stroke:none"
           id="path66" />
        <path
           d="m 348.453,539.802 h -18.789 v 176.094 h 18.789 z"
           style="fill:#c5cad0;fill-opacity:1;fillRule:nonzero;stroke:none"
           id="path68" />
        <path
           d="m 383.139,539.802 h -39.022 v 171.062 h 39.022 z"
           style="fill:#c5cad0;fill-opacity:1;fillRule:nonzero;stroke:none"
           id="path70" />
        <path
           d="m 198.145,534.771 h -37.577 v 93.917 h 37.577 z"
           style="fill:#c5cad0;fill-opacity:1;fillRule:nonzero;stroke:none"
           id="path72" />
        <g
           id="g74"
           transform="translate(407.709,536.4478)">
          <path
             d="m 0,0 14.453,50.313 h 22.092 v 43.825 h 25.41 v 16.848 H 78.088 V 94.138 H 82.38 V 36.571 h 37.578 v 65.523 H 156.09 V 0 Z"
             style="fill:#c5cad0;fill-opacity:1;fillRule:nonzero;stroke:none"
             id="path76" />
        </g>
        <g
           id="g78"
           transform="translate(575.3369,539.8022)">
          <path
             d="m 0,0 v 187.196 l 83.85,24.116 V -3.354 l -83.85,0 z"
             style="fill:#c5cad0;fill-opacity:1;fillRule:nonzero;stroke:none"
             id="path80" />
        </g>
        <path
           d="m 588.122,702.479 h -2.645 v 13.417 h 2.645 z"
           style="fill:#ffffff;fill-opacity:1;fillRule:nonzero;stroke:none"
           id="path82" />
        <path
           d="m 600.022,702.479 h -2.645 v 13.417 h 2.645 z"
           style="fill:#ffffff;fill-opacity:1;fillRule:nonzero;stroke:none"
           id="path84" />
        <path
           d="m 611.923,702.479 h -2.645 v 13.417 h 2.645 z"
           style="fill:#ffffff;fill-opacity:1;fillRule:nonzero;stroke:none"
           id="path86" />
        <path
           d="m 623.823,702.479 h -2.645 v 13.417 h 2.645 z"
           style="fill:#ffffff;fill-opacity:1;fillRule:nonzero;stroke:none"
           id="path88" />
        <path
           d="m 635.724,702.479 h -2.645 v 13.417 h 2.645 z"
           style="fill:#ffffff;fill-opacity:1;fillRule:nonzero;stroke:none"
           id="path90" />
        <path
           d="m 647.624,702.479 h -2.645 v 13.417 h 2.645 z"
           style="fill:#ffffff;fill-opacity:1;fillRule:nonzero;stroke:none"
           id="path92" />
        <path
           d="m 588.122,684.031 h -2.645 v 13.417 h 2.645 z"
           style="fill:#ffffff;fill-opacity:1;fillRule:nonzero;stroke:none"
           id="path94" />
        <path
           d="m 600.022,684.031 h -2.645 v 13.417 h 2.645 z"
           style="fill:#ffffff;fill-opacity:1;fillRule:nonzero;stroke:none"
           id="path96" />
        <path
           d="m 611.923,684.031 h -2.645 v 13.417 h 2.645 z"
           style="fill:#ffffff;fill-opacity:1;fillRule:nonzero;stroke:none"
           id="path98" />
        <path
           d="m 623.823,684.031 h -2.645 v 13.417 h 2.645 z"
           style="fill:#ffffff;fill-opacity:1;fillRule:nonzero;stroke:none"
           id="path100" />
        <path
           d="m 635.724,684.031 h -2.645 v 13.417 h 2.645 z"
           style="fill:#ffffff;fill-opacity:1;fillRule:nonzero;stroke:none"
           id="path102" />
        <path
           d="m 647.624,684.031 h -2.645 v 13.417 h 2.645 z"
           style="fill:#ffffff;fill-opacity:1;fillRule:nonzero;stroke:none"
           id="path104" />
        <path
           d="m 588.122,665.583 h -2.645 V 679 h 2.645 z"
           style="fill:#ffffff;fill-opacity:1;fillRule:nonzero;stroke:none"
           id="path106" />
        <path
           d="m 600.022,665.583 h -2.645 V 679 h 2.645 z"
           style="fill:#ffffff;fill-opacity:1;fillRule:nonzero;stroke:none"
           id="path108" />
        <path
           d="m 611.923,665.583 h -2.645 V 679 h 2.645 z"
           style="fill:#ffffff;fill-opacity:1;fillRule:nonzero;stroke:none"
           id="path110" />
        <path
           d="m 623.823,665.583 h -2.645 V 679 h 2.645 z"
           style="fill:#ffffff;fill-opacity:1;fillRule:nonzero;stroke:none"
           id="path112" />
        <path
           d="m 635.724,665.583 h -2.645 V 679 h 2.645 z"
           style="fill:#ffffff;fill-opacity:1;fillRule:nonzero;stroke:none"
           id="path114" />
        <path
           d="m 647.624,665.583 h -2.645 V 679 h 2.645 z"
           style="fill:#ffffff;fill-opacity:1;fillRule:nonzero;stroke:none"
           id="path116" />
        <path
           d="m 588.122,647.135 h -2.645 v 13.417 h 2.645 z"
           style="fill:#ffffff;fill-opacity:1;fillRule:nonzero;stroke:none"
           id="path118" />
        <path
           d="m 600.022,647.135 h -2.645 v 13.417 h 2.645 z"
           style="fill:#ffffff;fill-opacity:1;fillRule:nonzero;stroke:none"
           id="path120" />
        <path
           d="m 611.923,647.135 h -2.645 v 13.417 h 2.645 z"
           style="fill:#ffffff;fill-opacity:1;fillRule:nonzero;stroke:none"
           id="path122" />
        <path
           d="m 623.823,647.135 h -2.645 v 13.417 h 2.645 z"
           style="fill:#ffffff;fill-opacity:1;fillRule:nonzero;stroke:none"
           id="path124" />
        <path
           d="m 635.724,647.135 h -2.645 v 13.417 h 2.645 z"
           style="fill:#ffffff;fill-opacity:1;fillRule:nonzero;stroke:none"
           id="path126" />
        <path
           d="m 647.624,647.135 h -2.645 v 13.417 h 2.645 z"
           style="fill:#ffffff;fill-opacity:1;fillRule:nonzero;stroke:none"
           id="path128" />
        <path
           d="m 588.122,628.687 h -2.645 v 13.417 h 2.645 z"
           style="fill:#ffffff;fill-opacity:1;fillRule:nonzero;stroke:none"
           id="path130" />
        <path
           d="m 600.022,628.687 h -2.645 v 13.417 h 2.645 z"
           style="fill:#ffffff;fill-opacity:1;fillRule:nonzero;stroke:none"
           id="path132" />
        <path
           d="m 611.923,628.687 h -2.645 v 13.417 h 2.645 z"
           style="fill:#ffffff;fill-opacity:1;fillRule:nonzero;stroke:none"
           id="path134" />
        <path
           d="m 623.823,628.687 h -2.645 v 13.417 h 2.645 z"
           style="fill:#ffffff;fill-opacity:1;fillRule:nonzero;stroke:none"
           id="path136" />
        <path
           d="m 635.724,628.687 h -2.645 v 13.417 h 2.645 z"
           style="fill:#ffffff;fill-opacity:1;fillRule:nonzero;stroke:none"
           id="path138" />
        <path
           d="m 647.624,628.687 h -2.645 v 13.417 h 2.645 z"
           style="fill:#ffffff;fill-opacity:1;fillRule:nonzero;stroke:none"
           id="path140" />
        <path
           d="m 588.122,610.24 h -2.645 v 13.417 h 2.645 z"
           style="fill:#ffffff;fill-opacity:1;fillRule:nonzero;stroke:none"
           id="path142" />
        <path
           d="m 600.022,610.24 h -2.645 v 13.417 h 2.645 z"
           style="fill:#ffffff;fill-opacity:1;fillRule:nonzero;stroke:none"
           id="path144" />
        <path
           d="m 611.923,610.24 h -2.645 v 13.417 h 2.645 z"
           style="fill:#ffffff;fill-opacity:1;fillRule:nonzero;stroke:none"
           id="path146" />
        <path
           d="m 623.823,610.24 h -2.645 v 13.417 h 2.645 z"
           style="fill:#ffffff;fill-opacity:1;fillRule:nonzero;stroke:none"
           id="path148" />
        <path
           d="m 635.724,610.24 h -2.645 v 13.417 h 2.645 z"
           style="fill:#ffffff;fill-opacity:1;fillRule:nonzero;stroke:none"
           id="path150" />
        <path
           d="m 647.624,610.24 h -2.645 v 13.417 h 2.645 z"
           style="fill:#ffffff;fill-opacity:1;fillRule:nonzero;stroke:none"
           id="path152" />
        <path
           d="m 677.975,534.771 h -34.686 v 20.125 h 34.686 z"
           style="fill:#c5cad0;fill-opacity:1;fillRule:nonzero;stroke:none"
           id="path154" />
        <path
           d="m 727.114,534.771 h -57.811 v 82.177 h 57.811 z"
           style="fill:#c5cad0;fill-opacity:1;fillRule:nonzero;stroke:none"
           id="path156" />
        <path
           d="m 800.823,534.771 h -59.256 v 206.281 h 59.256 z"
           style="fill:#c5cad0;fill-opacity:1;fillRule:nonzero;stroke:none"
           id="path158" />
        <path
           d="m 806.604,736.021 h -73.709 v 6.708 h 73.709 z"
           style="fill:#c5cad0;fill-opacity:1;fillRule:nonzero;stroke:none"
           id="path160" />
        <path
           d="m 764.691,741.052 h -20.233 v 10.063 h 20.233 z"
           style="fill:#c5cad0;fill-opacity:1;fillRule:nonzero;stroke:none"
           id="path162" />
        <path
           d="m 907.773,653.844 h -93.942 v 3.354 h 93.942 z"
           style="fill:#c5cad0;fill-opacity:1;fillRule:nonzero;stroke:none"
           id="path164" />
        <path
           d="m 904.883,534.771 h -88.161 v 120.75 h 88.161 z"
           style="fill:#c5cad0;fill-opacity:1;fillRule:nonzero;stroke:none"
           id="path166" />
        <path
           d="m 835.51,652.167 h -5.781 v 18.448 h 5.781 z"
           style="fill:#c5cad0;fill-opacity:1;fillRule:nonzero;stroke:none"
           id="path168" />
        <path
           d="m 848.518,652.167 h -5.781 v 18.448 h 5.781 z"
           style="fill:#c5cad0;fill-opacity:1;fillRule:nonzero;stroke:none"
           id="path170" />
        <path
           d="M 899.102,652.167 H 862.97 v 18.448 h 36.132 z"
           style="fill:#c5cad0;fill-opacity:1;fillRule:nonzero;stroke:none"
           id="path172" />
        <path
           d="m 829.729,534.771 h -36.132 v 18.448 h 36.132 z"
           style="fill:#c5cad0;fill-opacity:1;fillRule:nonzero;stroke:none"
           id="path174" />
        <g
           id="g176"
           transform="translate(899.1016,583.939)">
          <path
             d="m 0,0 37.577,-22.335 v 76.308 h 28.68 v 87.682 h 65.07 V 14.561 h 21.872 V -30.72 h 37.822 V 73.259 h 44.097 V 19.345 h 13.47 l 13.957,-68.513 -262.545,0 z"
             style="fill:#c5cad0;fill-opacity:1;fillRule:nonzero;stroke:none"
             id="path178" />
        </g>
        <path
           d="m 1033.513,714.219 h -70.818 v 3.354 h 70.818 z"
           style="fill:#c5cad0;fill-opacity:1;fillRule:nonzero;stroke:none"
           id="path180" />
        <path
           d="m 1137.572,655.521 h -50.585 v 3.354 h 50.585 z"
           style="fill:#c5cad0;fill-opacity:1;fillRule:nonzero;stroke:none"
           id="path182" />
        <path
           d="m 1098.55,647.135 h -4.336 v 5.031 h 4.336 z"
           style="fill:#ffffff;fill-opacity:1;fillRule:nonzero;stroke:none"
           id="path184" />
        <path
           d="m 1105.776,647.135 h -4.336 v 5.031 h 4.336 z"
           style="fill:#ffffff;fill-opacity:1;fillRule:nonzero;stroke:none"
           id="path186" />
        <path
           d="m 1113.003,647.135 h -4.336 v 5.031 h 4.336 z"
           style="fill:#ffffff;fill-opacity:1;fillRule:nonzero;stroke:none"
           id="path188" />
        <path
           d="m 1098.55,638.75 h -4.336 v 5.031 h 4.336 z"
           style="fill:#ffffff;fill-opacity:1;fillRule:nonzero;stroke:none"
           id="path190" />
        <path
           d="m 1105.776,638.75 h -4.336 v 5.031 h 4.336 z"
           style="fill:#ffffff;fill-opacity:1;fillRule:nonzero;stroke:none"
           id="path192" />
        <path
           d="m 1105.776,630.365 h -4.336 v 5.031 h 4.336 z"
           style="fill:#ffffff;fill-opacity:1;fillRule:nonzero;stroke:none"
           id="path194" />
        <path
           d="m 1113.003,638.75 h -4.336 v 5.031 h 4.336 z"
           style="fill:#ffffff;fill-opacity:1;fillRule:nonzero;stroke:none"
           id="path196" />
        <path
           d="m 1120.229,647.135 h -4.336 v 5.031 h 4.336 z"
           style="fill:#ffffff;fill-opacity:1;fillRule:nonzero;stroke:none"
           id="path198" />
        <path
           d="m 1013.278,719.25 h -14.452 v 16.771 h 14.452 z"
           style="fill:#c5cad0;fill-opacity:1;fillRule:nonzero;stroke:none"
           id="path200" />
        <path
           d="m 1024.841,719.25 h -13.008 v 25.156 h 13.008 z"
           style="fill:#c5cad0;fill-opacity:1;fillRule:nonzero;stroke:none"
           id="path202" />
        <path
           d="m 1019.06,736.021 h -2.891 v 25.156 h 2.891 z"
           style="fill:#c5cad0;fill-opacity:1;fillRule:nonzero;stroke:none"
           id="path204" />
        <path
           d="m 1121.674,657.198 h -1.445 v 16.771 h 1.445 z"
           style="fill:#c5cad0;fill-opacity:1;fillRule:nonzero;stroke:none"
           id="path206" />
        <path
           d="m 1127.455,657.198 h -1.445 V 679 h 1.445 z"
           style="fill:#c5cad0;fill-opacity:1;fillRule:nonzero;stroke:none"
           id="path208" />
        <path
           d="m 251.62,643.781 h -4.336 v 5.031 h 4.336 z"
           style="fill:#ffffff;fill-opacity:1;fillRule:nonzero;stroke:none"
           id="path210" />
        <path
           d="m 258.846,643.781 h -4.336 v 5.031 h 4.336 z"
           style="fill:#ffffff;fill-opacity:1;fillRule:nonzero;stroke:none"
           id="path212" />
        <path
           d="m 251.62,635.396 h -4.336 v 5.031 h 4.336 z"
           style="fill:#ffffff;fill-opacity:1;fillRule:nonzero;stroke:none"
           id="path214" />
        <path
           d="m 258.846,635.396 h -4.336 v 5.031 h 4.336 z"
           style="fill:#ffffff;fill-opacity:1;fillRule:nonzero;stroke:none"
           id="path216" />
        <path
           d="m 266.072,643.781 h -4.336 v 5.031 h 4.336 z"
           style="fill:#ffffff;fill-opacity:1;fillRule:nonzero;stroke:none"
           id="path218" />
        <path
           d="m 258.846,627.01 h -4.336 v 5.031 h 4.336 z"
           style="fill:#ffffff;fill-opacity:1;fillRule:nonzero;stroke:none"
           id="path220" />
        <path
           d="m 266.072,627.01 h -4.336 v 5.031 h 4.336 z"
           style="fill:#ffffff;fill-opacity:1;fillRule:nonzero;stroke:none"
           id="path222" />
        <path
           d="m 972.811,700.802 h -2.891 v 6.708 h 2.891 z"
           style="fill:#ffffff;fill-opacity:1;fillRule:nonzero;stroke:none"
           id="path224" />
        <path
           d="m 981.482,700.802 h -2.891 v 6.708 h 2.891 z"
           style="fill:#ffffff;fill-opacity:1;fillRule:nonzero;stroke:none"
           id="path226" />
        <path
           d="m 990.154,700.802 h -2.891 v 6.708 h 2.891 z"
           style="fill:#ffffff;fill-opacity:1;fillRule:nonzero;stroke:none"
           id="path228" />
        <path
           d="m 998.826,700.802 h -2.891 v 6.708 h 2.891 z"
           style="fill:#ffffff;fill-opacity:1;fillRule:nonzero;stroke:none"
           id="path230" />
        <path
           d="m 1007.497,700.802 h -2.89 v 6.708 h 2.89 z"
           style="fill:#ffffff;fill-opacity:1;fillRule:nonzero;stroke:none"
           id="path232" />
        <path
           d="m 1016.169,700.802 h -2.891 v 6.708 h 2.891 z"
           style="fill:#ffffff;fill-opacity:1;fillRule:nonzero;stroke:none"
           id="path234" />
        <path
           d="m 1024.841,700.802 h -2.891 v 6.708 h 2.891 z"
           style="fill:#ffffff;fill-opacity:1;fillRule:nonzero;stroke:none"
           id="path236" />
        <path
           d="m 972.811,687.385 h -2.891 v 6.708 h 2.891 z"
           style="fill:#ffffff;fill-opacity:1;fillRule:nonzero;stroke:none"
           id="path238" />
        <path
           d="m 981.482,687.385 h -2.891 v 6.708 h 2.891 z"
           style="fill:#ffffff;fill-opacity:1;fillRule:nonzero;stroke:none"
           id="path240" />
        <path
           d="m 990.154,687.385 h -2.891 v 6.708 h 2.891 z"
           style="fill:#ffffff;fill-opacity:1;fillRule:nonzero;stroke:none"
           id="path242" />
        <path
           d="m 998.826,687.385 h -2.891 v 6.708 h 2.891 z"
           style="fill:#ffffff;fill-opacity:1;fillRule:nonzero;stroke:none"
           id="path244" />
        <path
           d="m 1007.497,687.385 h -2.89 v 6.708 h 2.89 z"
           style="fill:#ffffff;fill-opacity:1;fillRule:nonzero;stroke:none"
           id="path246" />
        <path
           d="m 1024.841,687.385 h -2.891 v 6.708 h 2.891 z"
           style="fill:#ffffff;fill-opacity:1;fillRule:nonzero;stroke:none"
           id="path248" />
        <path
           d="m 972.811,673.969 h -2.891 v 6.708 h 2.891 z"
           style="fill:#ffffff;fill-opacity:1;fillRule:nonzero;stroke:none"
           id="path250" />
        <path
           d="m 981.482,673.969 h -2.891 v 6.708 h 2.891 z"
           style="fill:#ffffff;fill-opacity:1;fillRule:nonzero;stroke:none"
           id="path252" />
        <path
           d="m 998.826,673.969 h -2.891 v 6.708 h 2.891 z"
           style="fill:#ffffff;fill-opacity:1;fillRule:nonzero;stroke:none"
           id="path254" />
        <path
           d="m 1007.497,673.969 h -2.89 v 6.708 h 2.89 z"
           style="fill:#ffffff;fill-opacity:1;fillRule:nonzero;stroke:none"
           id="path256" />
        <path
           d="m 1016.169,673.969 h -2.891 v 6.708 h 2.891 z"
           style="fill:#ffffff;fill-opacity:1;fillRule:nonzero;stroke:none"
           id="path258" />
        <path
           d="m 1024.841,673.969 h -2.891 v 6.708 h 2.891 z"
           style="fill:#ffffff;fill-opacity:1;fillRule:nonzero;stroke:none"
           id="path260" />
        <path
           d="m 990.154,660.552 h -2.891 v 6.708 h 2.891 z"
           style="fill:#ffffff;fill-opacity:1;fillRule:nonzero;stroke:none"
           id="path262" />
        <path
           d="m 998.826,660.552 h -2.891 v 6.708 h 2.891 z"
           style="fill:#ffffff;fill-opacity:1;fillRule:nonzero;stroke:none"
           id="path264" />
        <path
           d="m 1007.497,660.552 h -2.89 v 6.708 h 2.89 z"
           style="fill:#ffffff;fill-opacity:1;fillRule:nonzero;stroke:none"
           id="path266" />
        <path
           d="m 1016.169,660.552 h -2.891 v 6.708 h 2.891 z"
           style="fill:#ffffff;fill-opacity:1;fillRule:nonzero;stroke:none"
           id="path268" />
        <path
           d="m 1024.841,660.552 h -2.891 v 6.708 h 2.891 z"
           style="fill:#ffffff;fill-opacity:1;fillRule:nonzero;stroke:none"
           id="path270" />
        <g
           id="g272"
           transform="translate(515.9004,567.771)">
          <path
             d="m 0,0 -13.648,27.415 c 0,0 -17.971,-0.153 -23.776,-2.211 -5.805,-2.058 -17.722,-8.583 -21.758,-15.667 -2.238,-3.928 -4.566,-7.611 -6.196,-10.115 0,0 -4.501,-5.479 -2.118,-8.017 2.384,-2.539 5.918,-1.136 8.789,3.263 l 7.294,8.744 c 0,0 2.414,2.962 6.085,4.234 7.63,2.646 13.785,1.022 20.498,-2.991 C -21.271,2.529 -11.992,-8.352 0,0"
             style="fill:#db9464;fill-opacity:1;fillRule:nonzero;stroke:none"
             id="path274" />
        </g>
        <g
           id="g276"
           transform="translate(492.709,592.9102)">
          <path
             d="M 0,0 80.996,26.127 95.019,-8.956 12.186,-27.866"
             style="fill:#db9464;fill-opacity:1;fillRule:nonzero;stroke:none"
             id="path278" />
        </g>
        <g
           id="g280"
           transform="translate(650.0664,686.124)">
          <path
             d="m 0,0 -76.361,-67.086 20.996,-32.468 88.489,55.197"
             style="fill:#db9464;fill-opacity:1;fillRule:nonzero;stroke:none"
             id="path282" />
        </g>
        <g
           id="g284"
           transform="translate(664.2793,692.21)">
          <path
             d="m 0,0 c -14.626,-1.62 -25.169,-14.79 -23.549,-29.416 1.62,-14.626 14.79,-25.169 29.416,-23.549 14.626,1.62 25.169,14.79 23.549,29.416 C 27.796,-8.923 14.626,1.62 0,0"
             style="fill:#fabc84;fill-opacity:1;fillRule:nonzero;stroke:none"
             id="path286" />
        </g>
        <g
           id="g288"
           transform="translate(582.2529,622.1372)">
          <path
             d="m 0,0 c -10.612,-1.175 -18.263,-10.731 -17.087,-21.343 1.176,-10.612 10.732,-18.262 21.344,-17.087 10.611,1.176 18.262,10.732 17.086,21.344 C 20.167,-6.474 10.611,1.176 0,0"
             style="fill:#db9464;fill-opacity:1;fillRule:nonzero;stroke:none"
             id="path290" />
        </g>
        <g
           id="g292"
           transform="translate(703.2236,658.3618)">
          <path
             d="m 0,0 c -15.923,-16.104 -48.289,-35.178 -48.289,-35.178 0,0 -4.155,-2.212 -6.878,1.585 L -79.075,5.578 c -1.446,2.369 -0.987,5.875 1.021,7.791 l 45.231,43.172"
             style="fill:#ff3a12;fill-opacity:1;fillRule:nonzero;stroke:#e43117;stroke-width:1.602;stroke-linecap:round;stroke-linejoin:miter;stroke-miterlimit:10;stroke-dasharray:none;stroke-opacity:1"
             id="path294" />
        </g>
        <g
           id="g296"
           transform="translate(517.9629,476.5645)">
          <path
             d="m 0,0 30.203,-171.622 27.693,3.207 c 0,0 12.465,113.946 -14.238,169.765 z"
             style="fill:#db9464;fill-opacity:1;fillRule:nonzero;stroke:none"
             id="path298" />
        </g>
        <g
           id="g300"
           transform="translate(547.563,310.4482)">
          <path
             d="m 0,0 -25.362,-16.53 c -1.529,-0.706 -2.78,-2.661 -2.78,-4.346 v -0.968 c 0,-1.684 1.378,-3.062 3.062,-3.062 h 13.922 31.176 c 5.007,0 9.104,3.6 9.104,8.001 0,4.4 -0.001,16.949 -0.001,16.949 z"
             style="fill:#5b0b03;fill-opacity:1;fillRule:nonzero;stroke:none"
             id="path302" />
        </g>
        <g
           id="g304"
           transform="translate(575.501,498.3315)">
          <path
             d="m 0,0 c 3.648,-20.318 -9.865,-39.746 -30.183,-43.393 -20.317,-3.648 -39.745,9.866 -43.393,30.184 -3.648,20.317 9.866,39.745 30.183,43.393 C -23.075,33.831 -3.647,20.317 0,0"
             style="fill:#001233;fill-opacity:1;fillRule:nonzero;stroke:none"
             id="path306" />
        </g>
        <g
           id="g308"
           transform="translate(573.0498,477.3047)">
          <path
             d="M 0,0 C 0,0 8.049,-75.55 15.694,-141.499 L -39.973,-149.714 -70.76,5.788 Z"
             style="fill:#001233;fill-opacity:1;fillRule:nonzero;stroke:none"
             id="path310" />
        </g>
        <g
           id="g312"
           transform="translate(544.8457,454.2441)">
          <path
             d="m 0,0 138.154,-2.908 11.048,82.696 C 117.193,81.031 51.867,81.536 -8.795,74.192 Z"
             style="fill:#001233;fill-opacity:1;fillRule:nonzero;stroke:none"
             id="path314" />
        </g>
        <g
           id="g316"
           transform="translate(746,496.5)">
          <path
             d="M 0,0 C 0,-25.129 -20.371,-45.5 -45.5,-45.5 -70.629,-45.5 -91,-25.129 -91,0 -91,25.129 -70.629,45.5 -45.5,45.5 -20.371,45.5 0,25.129 0,0"
             style="fill:#03326a;fill-opacity:1;fillRule:nonzero;stroke:none"
             id="path318" />
        </g>
        <path
           d="m 746,496 h -51 v 60 h 51 z"
           style="fill:#03326a;fill-opacity:1;fillRule:nonzero;stroke:none"
           id="path320" />
        <g
           id="g322"
           transform="translate(400.5044,575.9355)">
          <path
             d="m 0,0 c -0.371,0.041 -0.746,0.064 -1.127,0.064 -5.707,0 -10.377,-4.669 -10.377,-10.377 v -38.246 c 0,-5.707 4.67,-10.377 10.377,-10.377 0.048,0 0.094,0.007 0.143,0.008 v -0.008 c 16.281,0 29.48,13.199 29.48,29.48 C 28.496,-13.504 15.825,-0.521 0,0"
             style="fill:#ffb900;fill-opacity:1;fillRule:nonzero;stroke:none"
             id="path324" />
        </g>
        <g
           id="g326"
           transform="translate(815.0371,416.9795)">
          <path
             d="m 0,0 c 1.769,-2.256 5.062,-2.655 7.319,-0.886 l 64.85,50.847 c 2.257,1.769 2.655,5.063 0.886,7.32 l -2.415,3.08 c -1.769,2.256 -5.063,2.656 -7.32,0.886 L -1.529,10.4 C -3.786,8.631 -4.185,5.337 -2.415,3.08 Z"
             style="fill:#213352;fill-opacity:1;fillRule:nonzero;stroke:none"
             id="path328" />
        </g>
        <g
           id="g330"
           transform="translate(818.4033,480.3232)">
          <path
             d="m 0,0 c 0,-4.088 3.345,-7.433 7.433,-7.433 h 120.922 c 4.088,0 7.433,3.345 7.433,7.433 v 107.796 c 0,4.088 -3.345,7.433 -7.433,7.433 H 7.433 C 3.345,115.229 0,111.884 0,107.796 Z"
             style="fill:#ff3a12;fill-opacity:1;fillRule:nonzero;stroke:none"
             id="path332" />
        </g>
        <g
           id="g334"
           transform="translate(810.5488,463.7627)">
          <path
             d="m 0,0 c 0,-2.867 2.346,-5.214 5.213,-5.214 h 140.346 c 2.868,0 5.213,2.347 5.213,5.214 v 3.914 c 0,2.867 -2.345,5.214 -5.213,5.214 H 5.213 C 2.346,9.128 0,6.781 0,3.914 Z"
             style="fill:#213352;fill-opacity:1;fillRule:nonzero;stroke:none"
             id="path336" />
        </g>
        <g
           id="g338"
           transform="translate(636.6963,402.4658)">
          <path
             d="m 0,0 h 208.537 c 47.793,-35.995 80.93,-118.15 80.93,-182.59 H 43.983 C 43.983,-118.15 47.793,-35.995 0,0"
             style="fill:#ff3a12;fill-opacity:1;fillRule:nonzero;stroke:none"
             id="path340" />
        </g>
        <g
           id="g342"
           transform="translate(873.4756,322.7227)">
          <path
             d="m 0,0 c 0,-10.16 8.313,-18.474 18.474,-18.474 h 9.818 c 10.161,0 18.474,8.314 18.474,18.474 v 29.236 c 0,10.16 -8.313,18.473 -18.474,18.473 H 18.474 C 8.313,47.709 0,39.396 0,29.236 Z"
             style="fill:#ffb900;fill-opacity:1;fillRule:nonzero;stroke:none"
             id="path344" />
        </g>
        <g
           id="g346"
           transform="translate(905.499,313.2275)">
          <path
             d="m 0,0 c 1.09,1.08 2.059,2.016 2.935,2.996 0.878,0.971 1.663,1.957 2.378,2.99 0.714,1.035 1.363,2.113 1.958,3.274 0.607,1.162 1.136,2.398 1.765,3.803 C 9.66,11.651 9.761,10.074 9.522,8.553 9.275,7.029 8.668,5.552 7.776,4.275 6.889,2.997 5.722,1.914 4.386,1.146 3.048,0.389 1.541,-0.08 0,0"
             style="fill:#ffffff;fill-opacity:1;fillRule:nonzero;stroke:none"
             id="path348" />
        </g>
        <path
           d="m 526.54,220.042 h 186.441 v 65.305 H 526.54 Z"
           style="fill:#ff3a12;fill-opacity:1;fillRule:nonzero;stroke:none"
           id="path350" />
        <g
           id="g352"
           transform="translate(495.0874,351.7998)">
          <path
             d="m 0,0 c 4.804,-26.028 16.434,-49.609 39.344,-67.258 l -4.361,-64.478 c -0.19,0.662 -29.035,-0.654 -29.241,10e-4 -10.686,34.016 -42.445,58.703 -79.989,58.703 l -10.371,72.645"
             style="fill:#ff3a12;fill-opacity:1;fillRule:nonzero;stroke:none"
             id="path354" />
        </g>
        <g
           id="g356"
           transform="translate(883.4102,232.6475)">
          <path
             d="m 0,0 c 0,-45.891 -37.202,-83.094 -83.094,-83.094 -45.891,0 -83.093,37.203 -83.093,83.094 0,45.892 37.202,83.094 83.093,83.094 C -37.202,83.094 0,45.892 0,0"
             style="fill:#0d2343;fill-opacity:1;fillRule:nonzero;stroke:none"
             id="path358" />
        </g>
        <g
           id="g360"
           transform="translate(832.0566,232.6475)">
          <path
             d="m 0,0 c 0,-17.529 -14.211,-31.74 -31.74,-31.74 -17.53,0 -31.74,14.211 -31.74,31.74 0,17.53 14.21,31.74 31.74,31.74 C -14.211,31.74 0,17.53 0,0"
             style="fill:#ffffff;fill-opacity:1;fillRule:nonzero;stroke:none"
             id="path362" />
        </g>
        <g
           id="g364"
           transform="translate(490.5972,232.6475)">
          <path
             d="m 0,0 c 0,-45.891 -37.202,-83.094 -83.094,-83.094 -45.891,0 -83.093,37.203 -83.093,83.094 0,45.892 37.202,83.094 83.093,83.094 C -37.202,83.094 0,45.892 0,0"
             style="fill:#0d2343;fill-opacity:1;fillRule:nonzero;stroke:none"
             id="path366" />
        </g>
        <g
           id="g368"
           transform="translate(439.2437,232.6475)">
          <path
             d="m 0,0 c 0,-17.529 -14.21,-31.74 -31.74,-31.74 -17.53,0 -31.74,14.211 -31.74,31.74 0,17.53 14.21,31.74 31.74,31.74 C -14.21,31.74 0,17.53 0,0"
             style="fill:#ffffff;fill-opacity:1;fillRule:nonzero;stroke:none"
             id="path370" />
        </g>
        <g
           id="g372"
           transform="translate(671.0791,451.4912)">
          <path
             d="m 0,0 h 140.993 c 20.852,0 37.913,-13.417 37.913,-29.815 v -1.381 -11.245 -0.129 h -0.012 c -0.072,-4.004 -3.357,-7.261 -7.377,-7.261 H -30.524 c -4.021,0 -7.305,3.257 -7.376,7.261 h -0.013 v 0.129 11.245 1.381 C -37.913,-13.417 -20.853,0 0,0"
             style="fill:#e62f0b;fill-opacity:1;fillRule:nonzero;stroke:none"
             id="path374" />
        </g>
        <g
           id="g376"
           transform="translate(459.9263,530.4248)">
          <path
             d="M 0,0 H 35.161 V -216.985 H -67.066 C -67.066,-61.564 0,0 0,0"
             style="fill:#ff3a12;fill-opacity:1;fillRule:nonzero;stroke:none"
             id="path378" />
        </g>
        <g
           id="g380"
           transform="translate(477.4336,587.4722)">
          <path
             d="m 0,0 h -42.896 c -8.129,0 -14.779,-6.65 -14.779,-14.779 v -53.015 c 0,-8.128 6.65,-14.779 14.779,-14.779 H 0 c 22.802,0 41.287,18.485 41.287,41.286 C 41.287,-18.484 22.802,0 0,0"
             style="fill:#e62f0b;fill-opacity:1;fillRule:nonzero;stroke:none"
             id="path382" />
        </g>
        <g
           id="g384"
           transform="translate(424.5254,384.8779)">
          <path
             d="m 0,0 c -0.171,-2.745 -2.561,-4.99 -5.311,-4.99 h -28.085 c -2.75,0 -4.86,2.245 -4.689,4.99 l 2.164,34.787 c 0.171,2.745 2.56,4.99 5.31,4.99 h 28.086 c 2.75,0 4.86,-2.245 4.689,-4.99 z"
             style="fill:#213352;fill-opacity:1;fillRule:nonzero;stroke:none"
             id="path386" />
        </g>
        <g
           id="g388"
           transform="translate(421.29,386.1064)">
          <path
             d="m 0,0 c -0.038,-0.554 -0.523,-1.007 -1.078,-1.007 h -29.996 c -0.555,0 -0.979,0.453 -0.941,1.007 l 2.204,32.33 c 0.038,0.554 0.523,1.007 1.078,1.007 H 1.263 c 0.555,0 0.979,-0.453 0.941,-1.007 z"
             style="fill:none;stroke:#788fae;stroke-width:1.5;stroke-linecap:round;stroke-linejoin:round;stroke-miterlimit:10;stroke-dasharray:none;stroke-opacity:1"
             id="path390" />
        </g>
        <g
           id="g392"
           transform="translate(408.2651,327.2627)">
          <path
             d="m 0,0 c -50.648,-0.007 -82.855,-35.222 -91.332,-72.388 -1.45,-14.79 10.995,-16.926 10.995,-16.926 l 85.765,-0.063 72.281,-0.967 c 0,0 12.474,1.961 11.232,16.77 C 79.247,-35.222 46.023,0.007 0,0"
             style="fill:#e62f0b;fill-opacity:1;fillRule:nonzero;stroke:none"
             id="path394" />
        </g>
        <g
           id="g396"
           transform="translate(818.4033,592.5522)">
          <path
             d="m 0,0 c 0,1.65 1.351,3 3,3 h 134.095 c 1.65,0 3,-1.35 3,-3 v -25.961 c 0,-1.65 -1.35,-3 -3,-3 H 3 c -1.649,0 -3,1.35 -3,3 z"
             style="fill:#ff3a12;fill-opacity:1;fillRule:nonzero;stroke:none"
             id="path398" />
        </g>
        <g
           id="g400"
           transform="translate(828.5088,563.5908)">
          <path
             d="M 0,0 H 119.885"
             style="fill:none;stroke:#e43117;stroke-width:1.602;stroke-linecap:round;stroke-linejoin:miter;stroke-miterlimit:10;stroke-dasharray:none;stroke-opacity:1"
             id="path402" />
        </g>
        <g
           id="g404"
           transform="translate(450.5747,437.8369)">
          <path
             d="m 0,0 c 0,0 -11.365,7.063 -27.507,7.063 -4.768,0 -8.7,-1.188 -11.7,-2.588 C -39.68,3.004 -40.148,1.512 -40.61,0 Z"
             style="fill:#e62f0b;fill-opacity:1;fillRule:nonzero;stroke:none"
             id="path406" />
        </g>
        <g
           id="g408"
           transform="translate(456.2378,465.1445)">
          <path
             d="m 0,0 c 0,0 -11.365,7.063 -27.507,7.063 -2.319,0 -4.434,-0.287 -6.351,-0.736 C -34.759,4.275 -35.655,2.168 -36.545,0 Z"
             style="fill:#e62f0b;fill-opacity:1;fillRule:nonzero;stroke:none"
             id="path410" />
        </g>
        <g
           id="g412"
           transform="translate(453.4062,451.4912)">
          <path
             d="m 0,0 c 0,0 -11.365,7.063 -27.507,7.063 -3.647,0 -6.813,-0.694 -9.444,-1.646 C -37.618,3.646 -38.279,1.841 -38.933,0 Z"
             style="fill:#e62f0b;fill-opacity:1;fillRule:nonzero;stroke:none"
             id="path414" />
        </g>
        <g
           id="g416"
           transform="translate(644.748,264.6348)">
          <path
             d="m 0,0 53.232,0.055 c 2.75,0.003 5,2.255 5,5.005 v 10.652 c 0,2.75 -2.25,5 -5,5 H -0.562"
             style="fill:#cc2400;fill-opacity:1;fillRule:nonzero;stroke:none"
             id="path418" />
        </g>
        <g
           id="g420"
           transform="translate(644.1855,285.3467)">
          <path
             d="m 0,0 h -110.772 c -22.232,17.559 -33.594,40.816 -38.326,66.452 0,0 -4.49,-65.961 33.688,-87.282 l 115.972,0.118"
             style="fill:#cc2400;fill-opacity:1;fillRule:nonzero;stroke:none"
             id="path422" />
        </g>
        <g
           id="g424"
           transform="translate(528.9629,476.5645)">
          <path
             d="m 0,0 30.202,-171.622 27.694,3.207 c 0,0 12.465,113.946 -14.238,169.765 z"
             style="fill:#fabc84;fill-opacity:1;fillRule:nonzero;stroke:none"
             id="path426" />
        </g>
        <g
           id="g428"
           transform="translate(558.5635,310.4482)">
          <path
             d="m 0,0 -25.362,-16.53 c -1.53,-0.706 -2.781,-2.661 -2.781,-4.346 v -0.968 c 0,-1.684 1.378,-3.062 3.062,-3.062 h 13.922 31.177 c 5.006,0 9.103,3.6 9.103,8.001 0,4.4 -10e-4,16.949 -10e-4,16.949 z"
             style="fill:#812d15;fill-opacity:1;fillRule:nonzero;stroke:none"
             id="path430" />
        </g>
        <g
           id="g432"
           transform="translate(586.501,498.3315)">
          <path
             d="m 0,0 c 3.648,-20.318 -9.865,-39.746 -30.183,-43.393 -20.317,-3.648 -39.745,9.866 -43.393,30.184 -3.648,20.317 9.866,39.745 30.183,43.393 C -23.075,33.831 -3.647,20.317 0,0"
             style="fill:#03326a;fill-opacity:1;fillRule:nonzero;stroke:none"
             id="path434" />
        </g>
        <g
           id="g436"
           transform="translate(584.0498,477.3047)">
          <path
             d="M 0,0 C 0,0 8.049,-75.55 15.694,-141.499 L -39.973,-149.714 -70.76,5.788 Z"
             style="fill:#03326a;fill-opacity:1;fillRule:nonzero;stroke:none"
             id="path438" />
        </g>
        <g
           id="g440"
           transform="translate(555.8457,454.2441)">
          <path
             d="m 0,0 138.154,-2.908 11.048,82.696 C 117.193,81.031 51.867,81.536 -8.795,74.192 Z"
             style="fill:#03326a;fill-opacity:1;fillRule:nonzero;stroke:none"
             id="path442" />
        </g>
        <g
           id="g444"
           transform="translate(708.998,726)">
          <path
             d="m 0,0 h -29.892 l 1.272,19.029 28.582,12.495 z"
             style="fill:#fabc84;fill-opacity:1;fillRule:nonzero;stroke:none"
             id="path446" />
        </g>
        <g
           id="g448"
           transform="translate(713.0928,773.9473)">
          <path
             d="m 0,0 c 0.095,-13.468 -9.584,-28.083 -21.508,-32.479 l -0.717,-0.264 c -11.922,-4.395 -23.969,-3.934 -30.192,1.016 -6.223,4.951 -13.439,19.995 -12.614,33.438 l 1.383,27.378 c 0.824,13.444 11.799,24.172 24.388,23.841 l 16.054,-0.422 c 12.59,-0.332 22.967,-11.622 23.06,-25.09 z"
             style="fill:#fabc84;fill-opacity:1;fillRule:nonzero;stroke:none"
             id="path450" />
        </g>
        <g
           id="g452"
           transform="translate(678.5918,812.2866)">
          <path
             d="m 0,0 c 0.809,-4.377 2.798,-4.663 5.772,-7.147 3.889,-3.249 0.22,-15.096 6.574,-15.347 -0.023,-4.068 0.578,-20.968 0.578,-20.968 7.788,-8.172 17.444,-11.301 17.444,-11.301 3.061,2.118 10.201,8.593 13.539,25.848 4.012,20.413 -9.405,45.257 -31.533,44.19"
             style="fill:#9b3c17;fill-opacity:1;fillRule:nonzero;stroke:none"
             id="path454" />
        </g>
        <g
           id="g456"
           transform="translate(690.1523,789.7524)">
          <path
             d="M 0,0 C 6.496,3.848 13.505,-1.52 12.689,-8.981 11.875,-16.442 5.166,-21.83 -2.295,-21.015"
             style="fill:#fbbd85;fill-opacity:1;fillRule:nonzero;stroke:none"
             id="path458" />
        </g>
        <g
           id="g460"
           transform="translate(660.1729,794.0996)">
          <path
             d="M 0,0 C 2.145,1.484 5.172,2.813 8.554,2.006"
             style="fill:none;stroke:#320f11;stroke-width:1.861;stroke-linecap:round;stroke-linejoin:miter;stroke-miterlimit:10;stroke-dasharray:none;stroke-opacity:1"
             id="path462" />
        </g>
        <g
           id="g464"
           transform="translate(652.5146,764.1328)">
          <path
             d="M 0,0 C 0,0 6.541,-2.419 10.455,2.743"
             style="fill:none;stroke:#db9464;stroke-width:1.5;stroke-linecap:round;stroke-linejoin:miter;stroke-miterlimit:10;stroke-dasharray:none;stroke-opacity:1"
             id="path466" />
        </g>
        <g
           id="g468"
           transform="translate(667.5303,784.5986)">
          <path
             d="M 0,0 C 0.165,-2.719 -1.004,-5.003 -2.612,-5.101 -4.221,-5.199 -5.659,-3.074 -5.825,-0.355 -5.99,2.364 -4.82,4.647 -3.212,4.746 -1.604,4.844 -0.166,2.719 0,0"
             style="fill:#320f11;fill-opacity:1;fillRule:nonzero;stroke:none"
             id="path470" />
        </g>
        <g
           id="g472"
           transform="translate(649.1064,782.6284)">
          <path
             d="m 0,0 -2.86,-6.632 c -0.446,-1.031 0.064,-1.591 1.132,-1.244 l 3.177,1.032"
             style="fill:#fdbf87;fill-opacity:1;fillRule:nonzero;stroke:#d99264;stroke-width:1.5;stroke-linecap:round;stroke-linejoin:miter;stroke-miterlimit:10;stroke-dasharray:none;stroke-opacity:1"
             id="path474" />
        </g>
        <g
           id="g476"
           transform="translate(679.1064,726)">
          <path
             d="m 0,0 h 29.892 c 0,0 14.153,-10.41 23.577,-40.705 C 62.894,-71 68.342,-195.412 68.342,-195.412 H -40.563 c 0,0 3.487,124.468 13.971,156.94 C -16.106,-6 0,0 0,0"
             style="fill:#ff3a12;fill-opacity:1;fillRule:nonzero;stroke:none"
             id="path478" />
        </g>
        <g
           id="g480"
           transform="translate(505,583)">
          <path
             d="M 0,0 79.094,31.42 95.403,-2.661 14,-27"
             style="fill:#fabc84;fill-opacity:1;fillRule:nonzero;stroke:none"
             id="path482" />
        </g>
        <g
           id="g484"
           transform="translate(655.8584,686.4028)">
          <path
             d="m 0,0 -71.765,-71.983 23.095,-31.01 84.65,60.921"
             style="fill:#fabc84;fill-opacity:1;fillRule:nonzero;stroke:none"
             id="path486" />
        </g>
        <g
           id="g488"
           transform="translate(669.6377,693.4146)">
          <path
             d="m 0,0 c -14.487,-2.583 -24.138,-16.42 -21.555,-30.907 2.582,-14.487 16.42,-24.137 30.908,-21.555 14.486,2.583 24.136,16.42 21.554,30.907 C 28.324,-7.068 14.487,2.583 0,0"
             style="fill:#fabc84;fill-opacity:1;fillRule:nonzero;stroke:none"
             id="path490" />
        </g>
        <g
           id="g492"
           transform="translate(592.418,618.0771)">
          <path
             d="m 0,0 c -10.512,-1.874 -17.514,-11.914 -15.64,-22.425 1.874,-10.511 11.914,-17.513 22.425,-15.639 10.512,1.874 17.514,11.914 15.64,22.425 C 20.551,-5.128 10.511,1.874 0,0"
             style="fill:#fabc84;fill-opacity:1;fillRule:nonzero;stroke:none"
             id="path494" />
        </g>
        <g
           id="g496"
           transform="translate(710.7324,662.2124)">
          <path
             d="m 0,0 c -14.825,-17.121 -45.861,-38.29 -45.861,-38.29 0,0 -3.999,-2.482 -6.967,1.127 L -79.271,0.343 c -1.599,2.268 -1.372,5.797 0.504,7.842 l 42.281,46.064"
             style="fill:#ff3a12;fill-opacity:1;fillRule:nonzero;stroke:#e43117;stroke-width:1.602;stroke-linecap:round;stroke-linejoin:miter;stroke-miterlimit:10;stroke-dasharray:none;stroke-opacity:1"
             id="path498" />
        </g>
        <g
           id="g500"
           transform="translate(504.4224,557.5254)">
          <path
             d="m 0,0 c -5.943,-1.694 -10.813,-1.387 -12.977,-2.882 -1.743,-1.203 -3.628,-2.264 -5.401,-3.485 -1.982,-1.364 -3.973,-2.722 -6.03,-3.971 -4.304,-2.613 -6.182,-0.797 -6.941,1.568 -0.758,2.366 2.635,5.533 6.912,8.969 4.278,3.435 6.735,9.695 6.735,9.695"
             style="fill:#7a4521;fill-opacity:1;fillRule:nonzero;stroke:none"
             id="path502" />
        </g>
        <g
           id="g504"
           transform="translate(518.9004,555.771)">
          <path
             d="m 0,0 -13.648,27.415 c 0,0 -17.971,-0.153 -23.776,-2.211 -5.805,-2.058 -17.722,-8.583 -21.758,-15.667 -2.238,-3.928 -4.566,-7.611 -6.196,-10.115 0,0 -4.501,-5.479 -2.118,-8.017 2.384,-2.539 5.918,-1.136 8.789,3.263 l 7.294,8.744 c 0,0 2.414,2.962 6.085,4.234 7.63,2.646 13.785,1.022 20.498,-2.991 C -21.271,2.529 -11.992,-8.352 0,0"
             style="fill:#fabc84;fill-opacity:1;fillRule:nonzero;stroke:none"
             id="path506" />
        </g>
        <g
           id="g508"
           transform="translate(490,552.5)">
          <path
             d="m 0,0 c 0,-6.904 -5.596,-12.5 -12.5,-12.5 -6.904,0 -12.5,5.596 -12.5,12.5 0,6.904 5.596,12.5 12.5,12.5 C -5.596,12.5 0,6.904 0,0"
             style="fill:#ff570e;fill-opacity:1;fillRule:nonzero;stroke:none"
             id="path510" />
        </g>
        <g
           id="g512"
           transform="translate(679.167,734.749)">
          <path
             d="M 0,0 -4.427,2.556 C -5.115,2.953 -5.353,3.841 -4.956,4.528 L 5.396,22.459 c 0.398,0.688 1.286,0.926 1.973,0.529 l 4.428,-2.556 c 0.687,-0.397 0.926,-1.285 0.528,-1.973 L 1.973,0.528 C 1.575,-0.159 0.687,-0.397 0,0"
             style="fill:#000000;fill-opacity:1;fillRule:nonzero;stroke:none"
             id="path514" />
        </g>
        <g
           id="g516"
           transform="translate(641.5352,804.1099)">
          <path
             d="M 0,0 C 0,0 7.789,36.849 55.127,33.968 102.465,31.087 100.465,-17.11 88.122,-35.799 79.465,-49.11 73.052,-55.11 73.052,-55.11 H 57.363 c -6.898,0 -17.805,1.83 -15.101,14.764 2.703,12.933 11.606,32.262 0.655,35.597 C 31.965,-1.413 0,0 0,0"
             style="fill:#e62f0b;fill-opacity:1;fillRule:nonzero;stroke:none"
             id="path518" />
        </g>
        <g
           id="g520"
           transform="translate(641.5352,804.1099)">
          <path
             d="m 0,0 c 0,0 19.921,1.229 39.693,-3.94 0,0 -21.24,-6.72 -36.734,-4.945 -7.494,0.775 -9.116,3.939 -9.116,3.939 z"
             style="fill:#cc2400;fill-opacity:1;fillRule:nonzero;stroke:none"
             id="path522" />
        </g>
        <g
           id="g524"
           transform="translate(699,800.5)">
          <path
             d="M 0,0 C 0,-1.933 -1.567,-3.5 -3.5,-3.5 -5.433,-3.5 -7,-1.933 -7,0 -7,1.933 -5.433,3.5 -3.5,3.5 -1.567,3.5 0,1.933 0,0"
             style="fill:#ffb900;fill-opacity:1;fillRule:nonzero;stroke:none"
             id="path526" />
        </g>
        <g
           id="g528"
           transform="translate(897.7695,515.1196)">
          <path
             d="m 0,0 c -0.276,-2.265 -1.658,-4.079 -3.799,-4.987 -1.191,-0.506 -2.788,-0.778 -4.054,-0.692 -1.968,0.075 -3.819,0.551 -5.523,1.42 -0.621,0.316 -1.53,0.942 -2.217,1.513 -0.155,0.13 -0.236,0.246 -0.086,0.458 0.16,0.241 0.795,1.157 0.895,1.309 0.135,0.205 0.355,0.215 0.558,0.056 0.029,-0.021 0.235,-0.181 0.277,-0.212 1.64,-1.277 3.758,-2.236 6.11,-2.325 2.966,0.04 5.118,1.361 5.502,3.407 0.424,2.254 -1.375,4.188 -4.84,5.266 -1.101,0.344 -3.87,1.445 -4.382,1.743 -2.414,1.406 -3.538,3.251 -3.378,5.522 0.246,3.147 3.183,5.505 6.911,5.52 1.769,0.004 3.428,-0.386 4.907,-1.005 0.544,-0.227 1.557,-0.77 1.919,-1.038 0.253,-0.184 0.233,-0.391 0.134,-0.55 -0.148,-0.244 -0.586,-0.926 -0.763,-1.21 -0.128,-0.195 -0.288,-0.217 -0.515,-0.074 -1.906,1.271 -3.867,1.702 -5.632,1.737 -2.545,-0.049 -4.466,-1.552 -4.592,-3.613 -0.034,-1.862 1.39,-3.212 4.413,-4.244 C -1.916,6.01 0.448,3.669 0,0 m -7.699,32.347 c 4.038,0 7.331,-3.807 7.485,-8.572 h -14.971 c 0.155,4.765 3.447,8.572 7.486,8.572 M 7.634,-11.786 c 2.134,0.057 3.862,1.781 4.044,3.917 l 0.014,0.258 1.51,30.444 c 10e-4,0.016 10e-4,0.031 10e-4,0.046 0,0.495 -0.4,0.896 -0.895,0.896 h -0.014 -9.69 c -0.238,6.292 -4.76,11.308 -10.303,11.308 -5.544,0 -10.066,-5.016 -10.304,-11.308 h -9.718 v 0 c -0.487,-0.009 -0.879,-0.406 -0.879,-0.896 0,-0.023 0.001,-0.046 0.003,-0.069 v 0 l 1.378,-30.325 0.021,-0.38 c 0.21,-2.11 1.752,-3.81 3.849,-3.888 v 0 l 30.828,-0.005 z"
             style="fill:#ffffff;fill-opacity:1;fillRule:nonzero;stroke:none"
             id="path530" />
        </g>
        <g
           id="g532"
           transform="translate(870.5107,494.8184)">
          <path
             d="M 0,0 C -1.32,0.424 -1.929,0.981 -1.929,1.748 -1.891,2.6 -1.096,3.241 -0.013,3.282 0.866,3.279 1.644,3.048 2.41,2.557 2.604,2.439 2.7,2.484 2.814,2.632 2.826,2.652 2.868,2.712 3.006,2.91 L 3.007,2.911 C 3.138,3.098 3.188,3.171 3.202,3.194 3.297,3.372 3.297,3.467 3.102,3.605 2.935,3.724 2.47,3.965 2.204,4.07 1.468,4.363 0.704,4.506 -0.06,4.492 -1.797,4.454 -3.157,3.327 -3.246,1.843 c -0.058,-1.072 0.49,-1.934 1.626,-2.568 0.323,-0.17 1.48,-0.604 2.011,-0.758 1.513,-0.442 2.289,-1.246 2.13,-2.184 -0.146,-0.854 -1.049,-1.428 -2.33,-1.468 -0.935,0.019 -1.874,0.362 -2.686,0.97 -0.004,0.003 -0.026,0.02 -0.064,0.047 -0.045,0.034 -0.061,0.046 -0.063,0.047 -0.179,0.123 -0.308,0.123 -0.431,-0.062 -0.004,-0.008 -0.102,-0.157 -0.201,-0.305 -0.114,-0.172 -0.164,-0.248 -0.19,-0.29 -0.106,-0.155 -0.087,-0.239 0.066,-0.368 l 0.001,-0.001 c 0.327,-0.262 0.748,-0.538 1.034,-0.677 0.79,-0.385 1.644,-0.589 2.548,-0.607 0.586,-0.03 1.322,0.109 1.871,0.353 0.996,0.442 1.632,1.306 1.743,2.369 C 4,-1.934 2.87,-0.859 0,0"
             style="fill:#ffffff;fill-opacity:1;fillRule:nonzero;stroke:none"
             id="path534" />
        </g>
        <g
           id="g536"
           transform="translate(878.5635,495.2485)">
          <path
             d="m 0,0 c -0.697,0 -1.365,-0.225 -1.916,-0.632 v 4.456 c 0,0.174 -0.069,0.241 -0.242,0.241 h -0.807 c -0.191,0 -0.241,-0.064 -0.241,-0.241 V -6.531 c 0,-0.171 0.05,-0.241 0.241,-0.241 h 0.807 c 0.176,0 0.242,0.073 0.242,0.241 v 3.382 c 0,1.121 0.863,1.882 1.916,1.882 1.055,0 1.915,-0.761 1.915,-1.89 v -3.374 c 0,-0.196 0.049,-0.241 0.242,-0.241 h 0.805 c 0.191,0 0.242,0.045 0.242,0.241 v 3.385 C 3.197,-1.414 1.751,0 0,0"
             style="fill:#ffffff;fill-opacity:1;fillRule:nonzero;stroke:none"
             id="path538" />
        </g>
        <g
           id="g540"
           transform="translate(886.2578,489.6958)">
          <path
             d="M 0,0 C -1.212,0 -2.194,0.962 -2.194,2.15 -2.194,3.337 -1.212,4.3 0,4.3 1.213,4.3 2.195,3.337 2.195,2.15 2.195,0.963 1.213,0 0,0 m 0.001,5.546 c -1.914,0 -3.467,-1.521 -3.467,-3.398 0,-1.877 1.553,-3.398 3.467,-3.398 1.914,0 3.467,1.521 3.467,3.398 0,1.877 -1.553,3.398 -3.467,3.398"
             style="fill:#ffffff;fill-opacity:1;fillRule:nonzero;stroke:none"
             id="path542" />
        </g>
        <g
           id="g544"
           transform="translate(907.6748,492.6328)">
          <path
             d="M 0,0 C 0.252,0.822 1.014,1.369 1.903,1.369 2.761,1.369 3.564,0.784 3.841,0 Z m 4.793,-1.246 c 0.006,0 0.012,0 0.018,0 0.211,0.01 0.378,0.19 0.378,0.409 0,0.01 0,0.019 -0.001,0.028 0.001,0.004 0.001,0.011 0.001,0.025 0,1.876 -1.471,3.398 -3.287,3.398 -1.815,0 -3.286,-1.522 -3.286,-3.398 0,-0.14 0.008,-0.279 0.025,-0.418 l 0.005,-0.044 v 0 c 0.091,-0.679 0.381,-1.298 0.833,-1.796 l 0.003,-0.003 c 0.503,-0.554 1.188,-0.934 1.949,-1.076 l 0.059,-0.01 v 0.001 c 0.027,-0.004 0.055,-0.009 0.089,-0.014 1.041,-0.125 1.918,0.043 2.629,0.401 0.192,0.097 0.357,0.201 0.495,0.305 0.049,0.037 0.091,0.071 0.125,0.102 0.022,0.018 0.036,0.032 0.044,0.04 0.184,0.189 0.191,0.271 0.082,0.442 -0.255,0.405 -0.397,0.603 -0.397,0.603 -0.1,0.125 -0.19,0.153 -0.317,0.041 C 4.218,-2.23 4.197,-2.243 4.187,-2.255 3.428,-2.929 2.432,-3.061 1.564,-2.879 1.386,-2.832 1.219,-2.771 1.065,-2.698 0.473,-2.4 0.045,-1.869 -0.079,-1.246 h 4.856 c 0.004,0 0.01,0 0.016,0"
             style="fill:#ffffff;fill-opacity:1;fillRule:nonzero;stroke:none"
             id="path546" />
        </g>
        <g
           id="g548"
           transform="translate(894.1982,489.7134)">
          <path
             d="M 0,0 C -1.17,0 -2.126,0.931 -2.155,2.095 V 2.206 C -2.126,3.369 -1.171,4.3 0,4.3 1.19,4.3 2.155,3.337 2.155,2.15 2.155,0.962 1.19,0 0,0 m 0,5.546 c -0.797,0 -1.552,-0.275 -2.155,-0.767 v 0.525 c 0,0.183 -0.05,0.242 -0.242,0.242 h -0.767 c -0.192,0 -0.242,-0.054 -0.242,-0.242 v -9.776 c 0,-0.178 0.05,-0.241 0.242,-0.241 h 0.767 c 0.192,0 0.242,0.062 0.242,0.241 v 3.989 C -1.552,-0.975 -0.797,-1.25 0,-1.25 c 1.882,0 3.406,1.521 3.406,3.398 0,1.876 -1.524,3.398 -3.406,3.398"
             style="fill:#ffffff;fill-opacity:1;fillRule:nonzero;stroke:none"
             id="path550" />
        </g>
        <g
           id="g552"
           transform="translate(900.0664,492.6328)">
          <path
             d="M 0,0 C 0.252,0.822 1.014,1.369 1.902,1.369 2.761,1.369 3.563,0.784 3.84,0 Z m 5.188,-0.784 c 0,1.876 -1.471,3.398 -3.287,3.398 -1.815,0 -3.286,-1.522 -3.286,-3.398 0,-0.14 0.008,-0.279 0.025,-0.418 l 0.005,-0.044 h 10e-4 c 0.09,-0.679 0.381,-1.298 0.833,-1.796 0,0 0,0 0.002,-0.003 0.504,-0.554 1.188,-0.934 1.95,-1.076 l 0.058,-0.01 v 0.001 c 0.028,-0.004 0.055,-0.009 0.089,-0.014 1.042,-0.125 1.918,0.043 2.629,0.401 0.192,0.097 0.357,0.201 0.496,0.305 0.048,0.037 0.09,0.071 0.125,0.102 0.022,0.018 0.035,0.032 0.043,0.04 0.184,0.189 0.191,0.271 0.082,0.442 -0.255,0.405 -0.397,0.603 -0.397,0.603 -0.1,0.125 -0.189,0.153 -0.317,0.041 C 4.218,-2.23 4.197,-2.243 4.186,-2.255 3.427,-2.929 2.432,-3.061 1.563,-2.879 1.385,-2.832 1.218,-2.771 1.064,-2.698 0.473,-2.4 0.044,-1.869 -0.079,-1.246 h 4.856 c 0.003,0 0.009,0 0.015,0 0.006,0 0.012,0 0.018,0 0.211,0.01 0.379,0.19 0.379,0.409 0,0.01 -0.001,0.019 -0.001,0.028 z"
             style="fill:#ffffff;fill-opacity:1;fillRule:nonzero;stroke:none"
             id="path554" />
        </g>
      </g>
    </g>
  </g>
</svg>
