<?xml version="1.0" encoding="UTF-8" standalone="no"?>
<svg
   xmlns:dc="http://purl.org/dc/elements/1.1/"
   xmlns:cc="http://creativecommons.org/ns#"
   xmlns:rdf="http://www.w3.org/1999/02/22-rdf-syntax-ns#"
   xmlns:svg="http://www.w3.org/2000/svg"
   xmlns="http://www.w3.org/2000/svg"
   viewBox="0 0 559.53064 1195.6772"
   height="1195.6772"
   width="559.53064"
   xml:space="preserve"
   id="svg2"
   version="1.1"><metadata
     id="metadata8"><rdf:RDF><cc:Work
         rdf:about=""><dc:format>image/svg+xml</dc:format><dc:type
           rdf:resource="http://purl.org/dc/dcmitype/StillImage" /></cc:Work></rdf:RDF></metadata><defs
     id="defs6"><clipPath
       id="clipPath18"
       clipPathUnits="userSpaceOnUse"><path
         id="path16"
         d="M 0,896.758 H 419.648 V 0 H 0 Z" /></clipPath></defs><g
     transform="matrix(1.3333333,0,0,-1.3333333,0,1195.6773)"
     id="g10"><g
       id="g12"><g
         clip-path="url(#clipPath18)"
         id="g14"><g
           transform="translate(88.8944,558.4968)"
           id="g20"><path
             id="path22"
             style="fill:#935627;fill-opacity:1;fillRule:nonzero;stroke:none"
             d="M 0,0 C -1.036,-10.057 6.276,-19.05 16.333,-20.087 26.391,-21.123 35.384,-13.81 36.42,-3.753 37.457,6.304 30.144,15.297 20.087,16.333 10.03,17.37 1.036,10.057 0,0" /></g><g
           transform="translate(156.7675,631.6433)"
           id="g24"><path
             id="path26"
             style="fill:#935627;fill-opacity:1;fillRule:nonzero;stroke:none"
             d="m 0,0 -34.915,-86.233 -32.527,17.266 c 0,0 9.847,49.256 32.7,89.074 z" /></g><g
           transform="translate(125.2924,553.905)"
           id="g28"><path
             id="path30"
             style="fill:#935627;fill-opacity:1;fillRule:nonzero;stroke:none"
             d="m 0,0 -35.967,8.771 c 0,0 -7.854,-27.53 0.163,-86.711 l 27.288,-1.034 z" /></g><g
           transform="translate(93.3249,479.5998)"
           id="g32"><path
             id="path34"
             style="fill:#5e361b;fill-opacity:1;fillRule:nonzero;stroke:none"
             d="m 0,0 c -1.927,-6.751 -1.38,-5.581 -1.354,-7.639 0.083,-6.717 2.63,-21.315 8.525,-27.973 3.268,-3.691 6.253,-7.389 8.264,-9.953 0,0 4.074,-6.574 7.533,-5.005 3.459,1.569 3.254,5.71 -0.279,10.221 l -6.463,10.605 c 0,0 -2.209,3.534 -2.232,7.772 -0.034,6.027 1.754,10.637 4.97,14.716" /></g><g
           transform="translate(92.5099,478.903)"
           id="g36"><path
             id="path38"
             style="fill:#7a4521;fill-opacity:1;fillRule:nonzero;stroke:none"
             d="m 0,0 c -1.927,-6.751 -3.307,-12.332 -3.281,-14.39 0.083,-6.717 2.631,-21.315 8.525,-27.973 3.268,-3.691 6.253,-7.39 8.264,-9.953 0,0 4.075,-6.574 7.533,-5.005 3.459,1.569 3.254,5.71 -0.279,10.221 l -6.463,10.605 c 0,0 -2.209,3.533 -2.232,7.771 -0.034,6.027 1.754,10.638 4.97,14.717" /></g><g
           transform="translate(115.9455,469.9209)"
           id="g40"><path
             id="path42"
             style="fill:#935627;fill-opacity:1;fillRule:nonzero;stroke:none"
             d="m 0,0 c -2.517,-1.505 -4.737,-2.371 -5.858,-3.322 -6.503,-5.521 -10.344,-11.303 -10.295,-20.111 0.024,-4.238 2.233,-7.772 2.233,-7.772 l 6.463,-10.605 c 3.533,-4.511 3.738,-8.652 0.279,-10.221 -3.459,-1.568 -7.533,5.005 -7.533,5.005 -2.011,2.564 -4.996,6.262 -8.264,9.953 -5.895,6.658 -8.442,21.257 -8.526,27.973 -0.046,3.73 1.539,10.882 5.612,23.75 L 0.777,6.345 C 0.436,-0.387 -1.592,-5.306 -0.81,-8.066 c 0.63,-2.223 1.062,-4.542 1.699,-6.802 0.711,-2.525 1.413,-5.059 1.98,-7.621 1.184,-5.363 -1.351,-6.663 -4.06,-6.615 -2.709,0.049 -4.785,4.666 -6.829,10.29 -2.043,5.624 -7.641,10.362 -7.641,10.362" /></g><g
           transform="translate(266.0263,657.2753)"
           id="g44"><path
             id="path46"
             style="fill:#935627;fill-opacity:1;fillRule:nonzero;stroke:none"
             d="m 0,0 48.993,-97.29 -36.345,-19.026 -53.456,91.923 z" /></g><g
           transform="translate(222.4308,646.0919)"
           id="g48"><path
             id="path50"
             style="fill:#f3c08e;fill-opacity:1;fillRule:nonzero;stroke:none"
             d="m 0,0 c -1.05,-13.102 8.721,-24.573 21.823,-25.623 13.101,-1.049 24.573,8.721 25.622,21.822 1.05,13.102 -8.72,24.574 -21.822,25.624 C 12.521,22.872 1.049,13.102 0,0" /></g><g
           transform="translate(214.4132,292.8664)"
           id="g52"><path
             id="path54"
             style="fill:#935627;fill-opacity:1;fillRule:nonzero;stroke:none"
             d="m 0,0 25.718,-172.351 27.768,2.485 c 0,0 15.431,113.582 -9.807,170.077 z" /></g><g
           transform="translate(258.3407,297.2138)"
           id="g56"><path
             id="path58"
             style="fill:#935627;fill-opacity:1;fillRule:nonzero;stroke:none"
             d="m 0,0 c 0.275,-13.274 -9.409,-24.24 -21.63,-24.494 -12.221,-0.253 -22.351,10.303 -22.626,23.577 -0.275,13.274 9.409,24.241 21.63,24.494 C -10.405,23.83 -0.275,13.274 0,0" /></g><g
           transform="translate(258.3432,296.6694)"
           id="g60"><path
             id="path62"
             style="fill:#935627;fill-opacity:1;fillRule:nonzero;stroke:none"
             d="m 0,0 -44.248,-0.917 -9.258,101.794 60.586,1.847 z" /></g><g
           transform="translate(239.5119,126.3479)"
           id="g64"><path
             id="path66"
             style="fill:#2d120e;fill-opacity:1;fillRule:nonzero;stroke:none"
             d="m 0,0 -25.362,-16.53 c -1.529,-0.706 -2.781,-2.661 -2.781,-4.345 v -0.969 c 0,-1.684 1.379,-3.062 3.063,-3.062 h 13.922 31.176 c 5.006,0 9.103,3.601 9.103,8.001 V 0.044 Z" /></g><g
           transform="translate(130.141,292.8664)"
           id="g68"><path
             id="path70"
             style="fill:#935627;fill-opacity:1;fillRule:nonzero;stroke:none"
             d="m 0,0 25.718,-172.351 27.769,2.485 c 0,0 15.43,113.582 -9.808,170.077 z" /></g><g
           transform="translate(173.8744,294.958)"
           id="g72"><path
             id="path74"
             style="fill:#935627;fill-opacity:1;fillRule:nonzero;stroke:none"
             d="m 0,0 c -1.247,-13.219 -12.124,-23.003 -24.293,-21.855 -12.17,1.148 -21.024,12.794 -19.777,26.013 1.247,13.218 12.123,23.003 24.293,21.855 C -7.607,24.865 1.247,13.219 0,0" /></g><g
           transform="translate(173.8146,294.417)"
           id="g76"><path
             id="path78"
             style="fill:#935627;fill-opacity:1;fillRule:nonzero;stroke:none"
             d="m 0,0 -44.062,4.157 2.462,102.185 60.398,-5.105 z" /></g><g
           transform="translate(186.9171,297.0368)"
           id="g80"><path
             id="path82"
             style="fill:#113366;fill-opacity:1;fillRule:nonzero;stroke:none"
             d="m 0,0 20.538,197.493 -75.11,-0.573 C -59.075,165.205 -70.398,61.095 -69.281,0 Z" /></g><g
           transform="translate(201.4484,299.54)"
           id="g84"><path
             id="path86"
             style="fill:#113366;fill-opacity:1;fillRule:nonzero;stroke:none"
             d="m 0,0 -14.463,194.99 75.11,-0.573 C 65.15,162.701 70.53,61.095 69.413,0 Z" /></g><g
           transform="translate(197.7504,508.1894)"
           id="g88"><path
             id="path90"
             style="fill:none;stroke:#d5d5d5;stroke-width:1.55400002;stroke-linecap:round;stroke-linejoin:miter;stroke-miterlimit:10;stroke-dasharray:none;stroke-opacity:1"
             d="M 0,0 V -52.559" /></g><g
           transform="translate(197.7504,472.478)"
           id="g92"><path
             id="path94"
             style="fill:none;stroke:#d5d5d5;stroke-width:1.55400002;stroke-linecap:round;stroke-linejoin:miter;stroke-miterlimit:10;stroke-dasharray:none;stroke-opacity:1"
             d="m 0,0 c 0,0 -5.652,-0.583 -6.233,5.835 -0.581,6.418 0,29.876 0,29.876" /></g><g
           transform="translate(174.5334,688.0016)"
           id="g96"><path
             id="path98"
             style="fill:#7a4521;fill-opacity:1;fillRule:nonzero;stroke:none"
             d="m 0,0 c 0,-12.222 9.908,-19.87 22.13,-19.87 12.223,0 22.131,7.648 22.131,19.87 L 22.13,2.261 Z" /></g><g
           transform="translate(263.0124,667.9917)"
           id="g100"><path
             id="path102"
             style="fill:#f37a32;fill-opacity:1;fillRule:nonzero;stroke:none"
             d="m 0,0 30.603,-53.639 c 1.412,-2.475 0.814,-6.038 -1.328,-7.916 L -6.153,-92.621 c -2.143,-1.879 -5.482,-1.707 -7.421,0.381 l -21.902,23.591" /></g><g
           transform="translate(143.3966,677.4893)"
           id="g104"><path
             id="path106"
             style="fill:#f37a32;fill-opacity:1;fillRule:nonzero;stroke:none"
             d="m 0,0 c 8.27,4.871 25.404,9.647 30.785,11.078 1.354,-2.117 5.978,-17.681 21.963,-17.681 15.984,0 20.398,13.476 23.146,17.689 C 81.201,9.664 98.249,4.879 106.534,0 c 4.597,-2.679 8.904,-6.067 12.653,-9.461 l 2.504,-175.319 H -14.121 l 1.468,175.319 C -8.904,-6.067 -4.598,-2.679 0,0" /></g><g
           transform="translate(262.8595,639.3025)"
           id="g108"><path
             id="path110"
             style="fill:none;stroke:#ef632f;stroke-width:1.55400002;stroke-linecap:round;stroke-linejoin:miter;stroke-miterlimit:10;stroke-dasharray:none;stroke-opacity:1"
             d="M 0,0 0.79,-45.871" /></g><g
           transform="translate(130.391,667.9917)"
           id="g112"><path
             id="path114"
             style="fill:#f37a32;fill-opacity:1;fillRule:nonzero;stroke:none"
             d="m 0,0 -30.603,-53.639 c -1.412,-2.475 -0.814,-6.038 1.328,-7.916 L 6.153,-92.621 c 2.143,-1.879 5.482,-1.707 7.42,0.381 l 21.903,23.591" /></g><g
           transform="translate(130.5439,639.3025)"
           id="g116"><path
             id="path118"
             style="fill:none;stroke:#ef632f;stroke-width:1.55400002;stroke-linecap:round;stroke-linejoin:miter;stroke-miterlimit:10;stroke-dasharray:none;stroke-opacity:1"
             d="M 0,0 -0.79,-45.871" /></g><g
           transform="translate(183.0006,686.4507)"
           id="g120"><path
             id="path122"
             style="fill:#7a4521;fill-opacity:1;fillRule:nonzero;stroke:none"
             d="M 0,0 H 27.326 L 24.047,25.064 H 3.279 Z" /></g><g
           transform="translate(181.3861,726.0455)"
           id="g124"><path
             id="path126"
             style="fill:#2c1815;fill-opacity:1;fillRule:nonzero;stroke:none"
             d="m 0,0 c 0,-7.106 -5.76,-12.867 -12.867,-12.867 -7.106,0 -12.867,5.761 -12.867,12.867 0,7.106 5.761,12.867 12.867,12.867 C -5.76,12.867 0,7.106 0,0" /></g><g
           transform="translate(238.2836,726.0455)"
           id="g128"><path
             id="path130"
             style="fill:#2c1815;fill-opacity:1;fillRule:nonzero;stroke:none"
             d="m 0,0 c 0,-7.106 -5.76,-12.867 -12.867,-12.867 -7.106,0 -12.866,5.761 -12.866,12.867 0,7.106 5.76,12.867 12.866,12.867 C -5.76,12.867 0,7.106 0,0" /></g><g
           transform="translate(217.8019,742.9089)"
           id="g132"><path
             id="path134"
             style="fill:#2c1815;fill-opacity:1;fillRule:nonzero;stroke:none"
             d="m 0,0 c 0,-7.144 5.791,-12.935 12.935,-12.935 7.143,0 12.935,5.791 12.935,12.935 0,7.144 -5.792,12.935 -12.935,12.935 C 5.791,12.935 0,7.144 0,0" /></g><g
           transform="translate(190.8695,782.5153)"
           id="g136"><path
             id="path138"
             style="fill:#2c1815;fill-opacity:1;fillRule:nonzero;stroke:none"
             d="m 0,0 c 0,-7.07 5.731,-12.801 12.801,-12.801 7.07,0 12.801,5.731 12.801,12.801 0,7.07 -5.731,12.801 -12.801,12.801 C 5.731,12.801 0,7.07 0,0" /></g><g
           transform="translate(209.7397,775.5999)"
           id="g140"><path
             id="path142"
             style="fill:#2c1815;fill-opacity:1;fillRule:nonzero;stroke:none"
             d="m 0,0 c 0,-5.962 4.833,-10.796 10.796,-10.796 5.962,0 10.795,4.834 10.795,10.796 0,5.962 -4.833,10.795 -10.795,10.795 C 4.833,10.795 0,5.962 0,0" /></g><g
           transform="translate(218.2223,761.9657)"
           id="g144"><path
             id="path146"
             style="fill:#2c1815;fill-opacity:1;fillRule:nonzero;stroke:none"
             d="m 0,0 c 0,-5.962 4.833,-10.796 10.795,-10.796 5.963,0 10.796,4.834 10.796,10.796 0,5.962 -4.833,10.796 -10.796,10.796 C 4.833,10.796 0,5.962 0,0" /></g><g
           transform="translate(173.5041,742.9089)"
           id="g148"><path
             id="path150"
             style="fill:#2c1815;fill-opacity:1;fillRule:nonzero;stroke:none"
             d="m 0,0 c 0,-7.144 -5.791,-12.935 -12.935,-12.935 -7.144,0 -12.935,5.791 -12.935,12.935 0,7.144 5.791,12.935 12.935,12.935 C -5.791,12.935 0,7.144 0,0" /></g><g
           transform="translate(230.831,755.032)"
           id="g152"><path
             id="path154"
             style="fill:#2c1815;fill-opacity:1;fillRule:nonzero;stroke:none"
             d="m 0,0 c 0,-19.028 -15.425,-34.453 -34.453,-34.453 -19.028,0 -34.454,15.425 -34.454,34.453 0,19.028 15.426,34.453 34.454,34.453 C -15.425,34.453 0,19.028 0,0" /></g><g
           transform="translate(171.6234,737.8644)"
           id="g156"><path
             id="path158"
             style="fill:#7a4521;fill-opacity:1;fillRule:nonzero;stroke:none"
             d="m 0,0 c -5.323,3.152 -11.065,-1.245 -10.398,-7.359 0.668,-6.113 6.165,-10.528 12.279,-9.86" /></g><g
           transform="translate(219.9713,737.8644)"
           id="g160"><path
             id="path162"
             style="fill:#7a4521;fill-opacity:1;fillRule:nonzero;stroke:none"
             d="M 0,0 C 5.323,3.152 11.065,-1.245 10.398,-7.359 9.73,-13.472 4.233,-17.887 -1.881,-17.219" /></g><g
           transform="translate(225.4169,743.7219)"
           id="g164"><path
             id="path166"
             style="fill:#935627;fill-opacity:1;fillRule:nonzero;stroke:none"
             d="m 0,0 c 0,-16.038 -13.001,-29.039 -29.039,-29.039 -16.038,0 -29.04,13.001 -29.04,29.039 0,16.038 13.002,29.039 29.04,29.039 C -13.001,29.039 0,16.038 0,0" /></g><g
           transform="translate(221.9845,719.0726)"
           id="g168"><path
             id="path170"
             style="fill:#935627;fill-opacity:1;fillRule:nonzero;stroke:none"
             d="m 0,0 c 0,-12.365 -9.668,-22.481 -21.485,-22.481 h -8.244 c -11.817,0 -21.485,10.116 -21.485,22.481 v 8.627 c 0,12.365 9.668,22.482 21.485,22.482 h 8.244 C -9.668,31.109 0,20.992 0,8.627 Z" /></g><g
           transform="translate(183.8952,736.4904)"
           id="g172"><path
             id="path174"
             style="fill:#935627;fill-opacity:1;fillRule:nonzero;stroke:none"
             d="m 0,0 3.389,-15.57 c 0,0 -16.28,-5.152 -16.514,0.605 -0.233,5.758 -2.251,13.974 -2.251,13.974 z" /></g><g
           transform="translate(208.8808,736.4904)"
           id="g176"><path
             id="path178"
             style="fill:#935627;fill-opacity:1;fillRule:nonzero;stroke:none"
             d="m 0,0 -3.389,-15.57 c 0,0 16.28,-5.152 16.514,0.605 0.233,5.758 2.2,13.87 2.2,13.87 z" /></g><g
           transform="translate(196.4164,740.7898)"
           id="g180"><path
             id="path182"
             style="fill:none;stroke:#5e361b;stroke-width:1.5;stroke-linecap:round;stroke-linejoin:miter;stroke-miterlimit:10;stroke-dasharray:none;stroke-opacity:1"
             d="m 0,0 1.896,-14.062 c 0.166,-1.237 -0.687,-2.17 -1.896,-2.075 -1.209,0.096 -2.198,0.174 -2.198,0.174" /></g><g
           transform="translate(206.0849,736.5277)"
           id="g184"><path
             id="path186"
             style="fill:#110908;fill-opacity:1;fillRule:nonzero;stroke:none"
             d="m 0,0 c 0,-2.523 1.013,-4.569 2.264,-4.569 1.25,0 2.264,2.046 2.264,4.569 0,2.523 -1.014,4.568 -2.264,4.568 C 1.013,4.568 0,2.523 0,0" /></g><g
           transform="translate(203.2074,720.1591)"
           id="g188"><path
             id="path190"
             style="fill:#ffffff;fill-opacity:1;fillRule:nonzero;stroke:none"
             d="m 0,0 c -4.823,-0.09 -8.73,-0.059 -13.551,0.092 0,0 -0.764,-6.257 5.308,-8.066 C 0.131,-9.525 0,0 0,0" /></g><g
           transform="translate(212.0766,747.8718)"
           id="g192"><path
             id="path194"
             style="fill:none;stroke:#110908;stroke-width:1.47000003;stroke-linecap:round;stroke-linejoin:miter;stroke-miterlimit:10;stroke-dasharray:none;stroke-opacity:1"
             d="M 0,0 C 0,0 -4.413,2.658 -6.978,-2.072" /></g><g
           transform="translate(186.5441,745.0482)"
           id="g196"><path
             id="path198"
             style="fill:none;stroke:#110908;stroke-width:1.47000003;stroke-linecap:round;stroke-linejoin:miter;stroke-miterlimit:10;stroke-dasharray:none;stroke-opacity:1"
             d="M 0,0 C 0,0 -2.379,4.57 -7.034,1.871" /></g><g
           transform="translate(182.0658,736.5277)"
           id="g200"><path
             id="path202"
             style="fill:#110908;fill-opacity:1;fillRule:nonzero;stroke:none"
             d="m 0,0 c 0,-2.523 1.014,-4.569 2.264,-4.569 1.25,0 2.264,2.046 2.264,4.569 0,2.523 -1.014,4.568 -2.264,4.568 C 1.014,4.568 0,2.523 0,0" /></g><g
           transform="translate(181.3861,759.2644)"
           id="g204"><path
             id="path206"
             style="fill:#2c1815;fill-opacity:1;fillRule:nonzero;stroke:none"
             d="m 0,0 c 0,-4.994 -4.048,-9.043 -9.042,-9.043 -4.995,0 -9.043,4.049 -9.043,9.043 0,4.994 4.048,9.043 9.043,9.043 C -4.048,9.043 0,4.994 0,0" /></g><g
           transform="translate(230.422,759.6863)"
           id="g208"><path
             id="path210"
             style="fill:#2c1815;fill-opacity:1;fillRule:nonzero;stroke:none"
             d="m 0,0 c 0,-4.703 -3.813,-8.516 -8.516,-8.516 -4.703,0 -8.516,3.813 -8.516,8.516 0,4.703 3.813,8.516 8.516,8.516 C -3.813,8.516 0,4.703 0,0" /></g><g
           transform="translate(239.2414,745.7999)"
           id="g212"><path
             id="path214"
             style="fill:#2c1815;fill-opacity:1;fillRule:nonzero;stroke:none"
             d="m 0,0 c 0,-5.646 -4.577,-10.224 -10.224,-10.224 -5.646,0 -10.223,4.578 -10.223,10.224 0,5.646 4.577,10.224 10.223,10.224 C -4.577,10.224 0,5.646 0,0" /></g><g
           transform="translate(174.182,747.6642)"
           id="g216"><path
             id="path218"
             style="fill:#2c1815;fill-opacity:1;fillRule:nonzero;stroke:none"
             d="m 0,0 c 0,-5.89 -4.775,-10.665 -10.665,-10.665 -5.891,0 -10.666,4.775 -10.666,10.665 0,5.89 4.775,10.665 10.666,10.665 C -4.775,10.665 0,5.89 0,0" /></g><g
           transform="translate(197.0045,768.8644)"
           id="g220"><path
             id="path222"
             style="fill:#2c1815;fill-opacity:1;fillRule:nonzero;stroke:none"
             d="m 0,0 c 0,-5.412 -4.387,-9.799 -9.799,-9.799 -5.411,0 -9.798,4.387 -9.798,9.799 0,5.412 4.387,9.799 9.798,9.799 C -4.387,9.799 0,5.412 0,0" /></g><g
           transform="translate(216.9977,770.1774)"
           id="g224"><path
             id="path226"
             style="fill:#2c1815;fill-opacity:1;fillRule:nonzero;stroke:none"
             d="m 0,0 c 0,-6.027 -4.886,-10.913 -10.913,-10.913 -6.027,0 -10.913,4.886 -10.913,10.913 0,6.027 4.886,10.913 10.913,10.913 C -4.886,10.913 0,6.027 0,0" /></g><g
           transform="translate(197.3893,783.5566)"
           id="g228"><path
             id="path230"
             style="fill:#2c1815;fill-opacity:1;fillRule:nonzero;stroke:none"
             d="m 0,0 c 0,-5.962 -4.833,-10.795 -10.796,-10.795 -5.962,0 -10.795,4.833 -10.795,10.795 0,5.962 4.833,10.796 10.795,10.796 C -4.833,10.796 0,5.962 0,0" /></g><g
           transform="translate(181.5661,775.5999)"
           id="g232"><path
             id="path234"
             style="fill:#2c1815;fill-opacity:1;fillRule:nonzero;stroke:none"
             d="m 0,0 c 0,-5.962 -4.833,-10.796 -10.795,-10.796 -5.963,0 -10.796,4.834 -10.796,10.796 0,5.962 4.833,10.795 10.796,10.795 C -4.833,10.795 0,5.962 0,0" /></g><g
           transform="translate(172.7199,761.9657)"
           id="g236"><path
             id="path238"
             style="fill:#2c1815;fill-opacity:1;fillRule:nonzero;stroke:none"
             d="m 0,0 c 0,-5.962 -4.833,-10.796 -10.796,-10.796 -5.962,0 -10.795,4.834 -10.795,10.796 0,5.962 4.833,10.796 10.795,10.796 C -4.833,10.796 0,5.962 0,0" /></g><g
           transform="translate(154.9889,126.3479)"
           id="g240"><path
             id="path242"
             style="fill:#2d120e;fill-opacity:1;fillRule:nonzero;stroke:none"
             d="m 0,0 -25.362,-16.53 c -1.529,-0.706 -2.781,-2.661 -2.781,-4.345 v -0.969 c 0,-1.684 1.379,-3.062 3.063,-3.062 h 13.922 31.176 c 5.006,0 9.103,3.601 9.103,8.001 V 0.044 Z" /></g><g
           transform="translate(186.9853,299.54)"
           id="g244"><path
             id="path246"
             style="fill:#113366;fill-opacity:1;fillRule:nonzero;stroke:none"
             d="m 0,0 c 0,-19.168 -15.539,-34.707 -34.707,-34.707 -19.167,0 -34.706,15.539 -34.706,34.707 0,19.168 15.539,34.706 34.706,34.706 C -15.539,34.706 0,19.168 0,0" /></g><g
           transform="translate(270.8612,299.54)"
           id="g248"><path
             id="path250"
             style="fill:#113366;fill-opacity:1;fillRule:nonzero;stroke:none"
             d="m 0,0 c 0,-19.168 -15.539,-34.707 -34.707,-34.707 -19.167,0 -34.706,15.539 -34.706,34.707 0,19.168 15.539,34.706 34.706,34.706 C -15.539,34.706 0,19.168 0,0" /></g><g
           transform="translate(117.6359,297.0368)"
           id="g252"><path
             id="path254"
             style="fill:#113366;fill-opacity:1;fillRule:nonzero;stroke:none"
             d="m 0,0 16.348,-146.41 h 63.767 c 0,0 -3.23,111.496 -10.855,146.41 z" /></g><g
           transform="translate(201.5771,297.0368)"
           id="g256"><path
             id="path258"
             style="fill:#113366;fill-opacity:1;fillRule:nonzero;stroke:none"
             d="m 0,0 14.715,-146.41 h 63.766 c 0,0 -1.596,111.496 -9.222,146.41 z" /></g><g
           transform="translate(266.4362,509.4456)"
           id="g260"><path
             id="path262"
             style="fill:#001233;fill-opacity:1;fillRule:nonzero;stroke:none"
             d="m 0,0 c 0,-1.65 -1.35,-3 -3,-3 h -132.331 c -1.65,0 -3,1.35 -3,3 v 19.988 c 0,1.65 1.35,3 3,3 H -3 c 1.65,0 3,-1.35 3,-3 z" /></g><path
           id="path264"
           style="fill:#ffbb00;fill-opacity:1;fillRule:nonzero;stroke:none"
           d="M 266.436,513.003 H 128.105 v 12.874 h 138.331 z" /><g
           transform="translate(229.0177,685.7646)"
           id="g266"><path
             id="path268"
             style="fill:#001233;fill-opacity:1;fillRule:nonzero;stroke:none"
             d="M 0,0 C 0,0 -21.668,-68.488 -17.431,-153.331 H 9.703 c 0,0 -5.763,50.429 15.046,142.619 C 17.136,-2.99 0,0 0,0" /></g><g
           transform="translate(235.1212,684.333)"
           id="g270"><path
             id="path272"
             style="fill:#ffbb00;fill-opacity:1;fillRule:nonzero;stroke:none"
             d="m 0,0 c 0,0 -20.715,-67.056 -16.477,-151.9 h 13.795 c 0,0 -5.097,54.575 15.712,146.764 C 4.917,-0.996 0,0 0,0" /></g><g
           transform="translate(164.3507,685.7646)"
           id="g274"><path
             id="path276"
             style="fill:#001233;fill-opacity:1;fillRule:nonzero;stroke:none"
             d="M 0,0 C 0,0 21.668,-68.488 17.431,-153.331 H -9.703 c 0,0 5.763,50.429 -15.046,142.619 C -17.136,-2.99 0,0 0,0" /></g><g
           transform="translate(158.2472,684.333)"
           id="g278"><path
             id="path280"
             style="fill:#ffbb00;fill-opacity:1;fillRule:nonzero;stroke:none"
             d="M 0,0 C 0,0 20.715,-67.056 16.478,-151.9 H 2.682 c 0,0 5.097,54.575 -15.712,146.764 C -4.917,-0.996 0,0 0,0" /></g><g
           transform="translate(209.985,522.1246)"
           id="g282"><path
             id="path284"
             style="fill:#935627;fill-opacity:1;fillRule:nonzero;stroke:none"
             d="m 0,0 c -0.008,-0.413 -0.651,-0.409 -0.651,-0.411 -0.169,0.001 -0.337,0.002 -0.516,0.003 -4.847,0.034 -13.218,0.179 -15.002,0.772 -2.545,0.845 -15.062,6.317 -15.081,6.326 -0.818,0.358 -2.191,0.177 -2.982,-0.117 -0.828,-0.307 -1.464,-0.868 -1.862,-1.658 -2.26,-4.499 6.591,-8.401 9.49,-9.784 11.877,-5.664 21.289,-10.314 34.497,-10.81" /></g><g
           transform="translate(252.7668,522.8574)"
           id="g286"><path
             id="path288"
             style="fill:#ee4d2d;fill-opacity:1;fillRule:nonzero;stroke:none"
             d="m 0,0 c 0,-1.1 -0.9,-2 -2,-2 h -94.603 c -1.1,0 -2,0.9 -2,2 v 50.439 c 0,1.1 0.9,2 2,2 H -2 c 1.1,0 2,-0.9 2,-2 z" /></g><g
           transform="translate(181.0365,546.0436)"
           id="g290"><path
             id="path292"
             style="fill:#ffffff;fill-opacity:1;fillRule:nonzero;stroke:none"
             d="m 0,0 c -0.135,-1.02 -0.766,-1.833 -1.736,-2.233 -0.539,-0.223 -1.261,-0.339 -1.832,-0.294 -0.887,0.042 -1.72,0.265 -2.485,0.665 -0.279,0.145 -0.686,0.431 -0.993,0.692 -0.07,0.059 -0.106,0.112 -0.037,0.207 0.073,0.108 0.363,0.518 0.409,0.586 0.062,0.092 0.162,0.096 0.253,0.023 0.012,-0.009 0.104,-0.082 0.123,-0.097 0.735,-0.583 1.685,-1.025 2.746,-1.075 1.339,0.005 2.315,0.591 2.498,1.512 0.2,1.015 -0.602,1.896 -2.161,2.397 -0.495,0.16 -1.739,0.669 -1.969,0.806 -1.083,0.645 -1.581,1.482 -1.499,2.506 0.124,1.418 1.46,2.469 3.141,2.459 0.799,-0.006 1.545,-0.189 2.209,-0.474 0.245,-0.106 0.7,-0.355 0.862,-0.477 C -0.358,7.118 -0.368,7.026 -0.414,6.954 -0.481,6.844 -0.682,6.539 -0.763,6.411 -0.822,6.324 -0.894,6.315 -0.995,6.38 -1.85,6.962 -2.732,7.165 -3.528,7.189 -4.677,7.178 -5.55,6.508 -5.616,5.579 -5.639,4.739 -5.003,4.124 -3.644,3.646 -0.838,2.72 0.218,1.653 0,0 m -3.331,14.626 c 1.822,-0.018 3.29,-1.75 3.339,-3.9 l -6.753,0.066 c 0.09,2.149 1.592,3.852 3.414,3.834 M 3.392,-5.351 c 0.962,0.017 1.749,0.787 1.841,1.75 l 0.007,0.116 0.816,13.727 v 0 l 0.001,0.021 C 6.059,10.486 5.88,10.669 5.656,10.671 H 5.65 L 1.279,10.714 C 1.2,13.553 -0.818,15.836 -3.319,15.86 -5.82,15.885 -7.882,13.642 -8.017,10.804 l -4.383,0.043 c -0.22,-0.002 -0.399,-0.179 -0.401,-0.4 0,-0.01 0,-0.021 10e-4,-0.031 l 0.488,-13.686 0.008,-0.172 c 0.085,-0.952 0.773,-1.726 1.719,-1.771 v 0 L 3.322,-5.351 Z" /></g><g
           transform="translate(194.5417,549.7073)"
           id="g294"><path
             id="path296"
             style="fill:#ffffff;fill-opacity:1;fillRule:nonzero;stroke:none"
             d="m 0,0 c -1.373,0.456 -2.001,1.043 -1.994,1.843 0.048,0.888 0.885,1.55 2.015,1.581 C 0.937,3.412 1.746,3.163 2.541,2.642 2.743,2.518 2.843,2.564 2.963,2.717 2.976,2.738 3.02,2.8 3.167,3.005 V 3.006 C 3.306,3.2 3.359,3.276 3.374,3.3 3.474,3.484 3.475,3.583 3.273,3.729 3.1,3.855 2.617,4.111 2.342,4.224 1.577,4.536 0.781,4.694 -0.016,4.686 -1.828,4.665 -3.259,3.503 -3.367,1.955 c -0.071,-1.117 0.492,-2.022 1.67,-2.695 0.335,-0.18 1.539,-0.645 2.09,-0.811 1.575,-0.476 2.375,-1.324 2.199,-2.301 -0.16,-0.888 -1.108,-1.479 -2.444,-1.507 -0.976,0.03 -1.951,0.397 -2.793,1.04 -0.004,0.003 -0.028,0.021 -0.065,0.049 -0.048,0.036 -0.065,0.049 -0.066,0.05 -0.185,0.13 -0.32,0.131 -0.45,-0.061 -0.005,-0.007 -0.109,-0.162 -0.213,-0.315 -0.121,-0.179 -0.174,-0.257 -0.202,-0.301 -0.111,-0.161 -0.093,-0.248 0.065,-0.384 l 0.002,-0.001 c 0.339,-0.278 0.775,-0.57 1.071,-0.718 0.821,-0.41 1.71,-0.63 2.652,-0.659 0.612,-0.037 1.381,0.101 1.956,0.349 1.044,0.452 1.716,1.346 1.843,2.454 C 4.153,-2.058 2.986,-0.926 0,0" /></g><g
           transform="translate(202.9469,550.074)"
           id="g298"><path
             id="path300"
             style="fill:#ffffff;fill-opacity:1;fillRule:nonzero;stroke:none"
             d="M 0,0 C -0.727,0.007 -1.426,-0.221 -2.005,-0.64 L -1.96,4.009 C -1.958,4.19 -2.029,4.261 -2.21,4.263 L -3.051,4.271 C -3.251,4.273 -3.304,4.207 -3.306,4.022 L -3.411,-6.781 c -0.002,-0.177 0.049,-0.252 0.25,-0.254 l 0.841,-0.008 c 0.183,-0.002 0.253,0.074 0.255,0.249 l 0.034,3.528 c 0.012,1.205 0.92,1.955 2.018,1.945 C 1.088,-1.332 1.978,-2.1 1.966,-3.313 L 1.932,-6.833 C 1.93,-7.037 1.98,-7.085 2.182,-7.087 l 0.839,-0.008 c 0.2,-0.002 0.253,0.045 0.255,0.249 L 3.31,-3.315 C 3.321,-1.508 1.827,-0.018 0,0" /></g><g
           transform="translate(210.9179,544.2029)"
           id="g302"><path
             id="path304"
             style="fill:#ffffff;fill-opacity:1;fillRule:nonzero;stroke:none"
             d="m 0,0 c -1.265,0.012 -2.28,1.027 -2.268,2.265 0.012,1.238 1.047,2.233 2.312,2.22 C 1.309,4.473 2.324,3.459 2.312,2.22 2.3,0.982 1.265,-0.012 0,0 m 0.057,5.785 c -1.997,0.02 -3.632,-1.551 -3.651,-3.509 -0.019,-1.958 1.585,-3.56 3.582,-3.58 1.997,-0.019 3.632,1.552 3.651,3.51 0.019,1.957 -1.585,3.56 -3.582,3.579" /></g><g
           transform="translate(233.2899,547.0483)"
           id="g306"><path
             id="path308"
             style="fill:#ffffff;fill-opacity:1;fillRule:nonzero;stroke:none"
             d="M 0,0 C 0.271,0.855 1.072,1.418 1.999,1.409 2.894,1.4 3.726,0.781 4.006,-0.039 Z m 4.987,-1.349 c 0.006,0 0.012,0 0.018,10e-4 0.222,0.008 0.398,0.194 0.4,0.422 0,0.011 0,0.02 -0.001,0.03 0.001,0.004 0.001,0.011 0.001,0.026 0.019,1.957 -1.5,3.559 -3.394,3.578 -1.894,0.018 -3.444,-1.554 -3.463,-3.511 -0.002,-0.146 0.005,-0.292 0.021,-0.436 l 0.005,-0.047 h 10e-4 c 0.088,-0.709 0.384,-1.358 0.85,-1.881 0.001,-0.001 0.001,-0.002 0.004,-0.005 0.519,-0.582 1.229,-0.985 2.021,-1.141 l 0.062,-0.012 v 0.002 c 0.028,-0.005 0.057,-0.01 0.093,-0.016 1.085,-0.141 2.001,0.026 2.746,0.392 0.202,0.099 0.375,0.206 0.52,0.313 0.051,0.038 0.095,0.073 0.132,0.104 0.022,0.02 0.037,0.034 0.045,0.041 0.194,0.196 0.203,0.282 0.09,0.461 C 4.877,-2.602 4.73,-2.394 4.73,-2.394 4.628,-2.264 4.534,-2.233 4.401,-2.349 4.377,-2.369 4.356,-2.382 4.344,-2.395 3.546,-3.09 2.505,-3.218 1.602,-3.02 1.417,-2.968 1.243,-2.903 1.083,-2.825 0.469,-2.509 0.027,-1.95 -0.095,-1.298 l 5.066,-0.05 c 0.004,0 0.01,0 0.016,-10e-4" /></g><g
           transform="translate(219.2006,544.1403)"
           id="g310"><path
             id="path312"
             style="fill:#ffffff;fill-opacity:1;fillRule:nonzero;stroke:none"
             d="m 0,0 c -1.22,0.012 -2.208,0.993 -2.227,2.207 l 10e-4,0.116 c 0.043,1.213 1.049,2.174 2.27,2.162 C 1.286,4.473 2.283,3.459 2.271,2.221 2.259,0.982 1.242,-0.012 0,0 M 0.057,5.785 C -0.775,5.794 -1.565,5.515 -2.199,5.008 l 0.005,0.548 c 0.002,0.19 -0.05,0.252 -0.25,0.254 l -0.8,0.008 c -0.2,0.002 -0.253,-0.054 -0.255,-0.25 l -0.1,-10.198 c -10e-4,-0.186 0.05,-0.253 0.25,-0.255 l 0.801,-0.008 c 0.2,-0.002 0.253,0.063 0.255,0.25 l 0.04,4.161 c 0.624,-0.519 1.409,-0.814 2.241,-0.822 1.962,-0.019 3.569,1.553 3.588,3.51 0.019,1.958 -1.556,3.56 -3.519,3.579" /></g><g
           transform="translate(225.3522,547.1259)"
           id="g314"><path
             id="path316"
             style="fill:#ffffff;fill-opacity:1;fillRule:nonzero;stroke:none"
             d="M 0,0 C 0.271,0.855 1.072,1.418 1.999,1.409 2.894,1.4 3.726,0.781 4.006,-0.039 Z m 5.405,-0.87 c 0.019,1.957 -1.5,3.559 -3.394,3.578 -1.894,0.018 -3.444,-1.554 -3.463,-3.511 -0.002,-0.146 0.005,-0.292 0.021,-0.436 l 0.005,-0.047 h 10e-4 c 0.088,-0.709 0.384,-1.358 0.85,-1.881 0.001,-0.001 0.001,-0.002 0.004,-0.005 0.519,-0.582 1.228,-0.985 2.021,-1.141 l 0.062,-0.012 v 0.002 c 0.028,-0.005 0.057,-0.01 0.093,-0.016 1.085,-0.141 2.001,0.026 2.746,0.392 0.202,0.099 0.375,0.206 0.52,0.313 0.051,0.038 0.095,0.073 0.132,0.104 0.022,0.02 0.037,0.034 0.045,0.042 0.194,0.195 0.203,0.281 0.09,0.46 C 4.877,-2.602 4.73,-2.394 4.73,-2.394 4.628,-2.263 4.534,-2.233 4.401,-2.349 4.377,-2.369 4.356,-2.382 4.344,-2.395 3.545,-3.09 2.505,-3.218 1.602,-3.02 1.417,-2.968 1.243,-2.903 1.083,-2.825 0.469,-2.509 0.027,-1.95 -0.095,-1.298 l 5.066,-0.05 c 0.004,0 0.01,0 0.016,0 0.006,-10e-4 0.012,0 0.018,0 0.222,0.008 0.398,0.194 0.4,0.422 0,0.011 0,0.02 -0.001,0.03 0.001,0.004 0.001,0.011 0.001,0.026" /></g><g
           transform="translate(243.9726,577.4082)"
           id="g318"><path
             id="path320"
             style="fill:#ee4d2d;fill-opacity:1;fillRule:nonzero;stroke:none"
             d="m 0,0 c 0,-1.1 -0.9,-2 -2,-2 h -94.603 c -1.1,0 -2,0.9 -2,2 v 50.439 c 0,1.1 0.9,2 2,2 H -2 c 1.1,0 2,-0.9 2,-2 z" /></g><g
           transform="translate(172.2421,600.5942)"
           id="g322"><path
             id="path324"
             style="fill:#ffffff;fill-opacity:1;fillRule:nonzero;stroke:none"
             d="m 0,0 c -0.135,-1.02 -0.766,-1.833 -1.736,-2.233 -0.539,-0.223 -1.261,-0.339 -1.831,-0.294 -0.888,0.042 -1.721,0.265 -2.486,0.665 -0.279,0.145 -0.686,0.431 -0.993,0.692 -0.07,0.059 -0.106,0.112 -0.037,0.207 0.073,0.108 0.364,0.518 0.409,0.586 0.062,0.092 0.162,0.096 0.253,0.023 0.012,-0.009 0.105,-0.082 0.123,-0.097 0.735,-0.583 1.685,-1.024 2.746,-1.075 1.339,0.005 2.315,0.591 2.498,1.512 0.2,1.015 -0.602,1.896 -2.161,2.398 -0.495,0.159 -1.739,0.668 -1.969,0.805 -1.082,0.645 -1.581,1.482 -1.499,2.506 0.124,1.418 1.46,2.469 3.141,2.46 0.799,-0.007 1.545,-0.19 2.21,-0.475 C -1.088,7.574 -0.633,7.325 -0.471,7.203 -0.358,7.119 -0.368,7.026 -0.414,6.954 -0.481,6.844 -0.682,6.539 -0.762,6.411 -0.822,6.324 -0.894,6.315 -0.995,6.38 -1.849,6.962 -2.732,7.166 -3.528,7.189 -4.677,7.178 -5.55,6.508 -5.616,5.579 -5.639,4.74 -5.003,4.124 -3.644,3.646 -0.838,2.72 0.218,1.653 0,0 m -3.331,14.626 c 1.822,-0.018 3.29,-1.75 3.339,-3.9 l -6.753,0.066 c 0.09,2.149 1.592,3.852 3.414,3.834 M 3.392,-5.351 c 0.962,0.017 1.75,0.787 1.841,1.75 l 0.008,0.116 0.815,13.727 v 0 c 0.001,0.007 0.001,0.014 0.001,0.021 0.002,0.223 -0.177,0.406 -0.4,0.408 H 5.65 l -4.37,0.043 c -0.08,2.839 -2.098,5.122 -4.599,5.146 -2.501,0.025 -4.563,-2.218 -4.698,-5.055 l -4.383,0.042 c -0.22,-0.002 -0.399,-0.179 -0.401,-0.4 0,-0.01 0,-0.021 10e-4,-0.031 l 0.488,-13.686 0.008,-0.172 c 0.085,-0.952 0.773,-1.726 1.719,-1.77 v 0 L 3.322,-5.35 Z" /></g><g
           transform="translate(185.7475,604.2581)"
           id="g326"><path
             id="path328"
             style="fill:#ffffff;fill-opacity:1;fillRule:nonzero;stroke:none"
             d="m 0,0 c -1.373,0.456 -2.002,1.043 -1.994,1.843 0.048,0.888 0.885,1.55 2.015,1.581 C 0.937,3.412 1.746,3.163 2.541,2.642 2.743,2.518 2.843,2.564 2.963,2.717 2.976,2.738 3.02,2.8 3.166,3.005 L 3.167,3.006 C 3.306,3.2 3.359,3.276 3.373,3.3 3.474,3.484 3.475,3.583 3.273,3.729 3.1,3.855 2.617,4.111 2.342,4.224 1.576,4.536 0.781,4.694 -0.016,4.686 -1.828,4.665 -3.259,3.503 -3.368,1.955 c -0.07,-1.117 0.493,-2.022 1.671,-2.695 0.335,-0.18 1.538,-0.645 2.09,-0.812 1.575,-0.475 2.375,-1.323 2.199,-2.3 -0.16,-0.888 -1.108,-1.479 -2.444,-1.507 -0.976,0.03 -1.951,0.397 -2.793,1.04 -0.004,0.003 -0.028,0.021 -0.065,0.049 -0.048,0.036 -0.065,0.049 -0.066,0.05 -0.185,0.13 -0.32,0.131 -0.45,-0.061 -0.005,-0.007 -0.109,-0.162 -0.213,-0.315 -0.121,-0.179 -0.174,-0.257 -0.202,-0.301 -0.111,-0.161 -0.093,-0.248 0.065,-0.384 l 0.002,-0.001 c 0.338,-0.278 0.775,-0.57 1.071,-0.718 0.821,-0.41 1.71,-0.63 2.652,-0.659 0.612,-0.037 1.381,0.101 1.956,0.349 1.043,0.452 1.715,1.346 1.842,2.454 C 4.153,-2.058 2.986,-0.926 0,0" /></g><g
           transform="translate(194.1525,604.6248)"
           id="g330"><path
             id="path332"
             style="fill:#ffffff;fill-opacity:1;fillRule:nonzero;stroke:none"
             d="M 0,0 C -0.727,0.007 -1.426,-0.221 -2.005,-0.64 L -1.96,4.009 C -1.958,4.19 -2.029,4.261 -2.209,4.263 L -3.051,4.271 C -3.251,4.273 -3.304,4.207 -3.306,4.022 L -3.411,-6.781 c -0.002,-0.177 0.05,-0.252 0.25,-0.254 l 0.841,-0.008 c 0.183,-0.002 0.253,0.074 0.255,0.249 l 0.034,3.528 c 0.012,1.205 0.92,1.955 2.018,1.945 1.101,-0.011 1.991,-0.779 1.98,-1.992 L 1.932,-6.833 C 1.93,-7.037 1.98,-7.085 2.182,-7.087 l 0.839,-0.008 c 0.2,-0.002 0.253,0.045 0.255,0.249 l 0.035,3.531 C 3.321,-1.508 1.827,-0.018 0,0" /></g><g
           transform="translate(202.1234,598.7535)"
           id="g334"><path
             id="path336"
             style="fill:#ffffff;fill-opacity:1;fillRule:nonzero;stroke:none"
             d="M 0,0 C -1.265,0.012 -2.28,1.027 -2.268,2.265 -2.256,3.504 -1.221,4.498 0.044,4.486 1.309,4.473 2.324,3.459 2.312,2.22 2.3,0.982 1.265,-0.012 0,0 m 0.057,5.786 c -1.997,0.019 -3.631,-1.552 -3.651,-3.51 -0.019,-1.957 1.585,-3.56 3.582,-3.579 1.997,-0.02 3.632,1.551 3.651,3.509 0.019,1.958 -1.585,3.56 -3.582,3.58" /></g><g
           transform="translate(224.4958,601.5991)"
           id="g338"><path
             id="path340"
             style="fill:#ffffff;fill-opacity:1;fillRule:nonzero;stroke:none"
             d="M 0,0 C 0.271,0.855 1.072,1.418 1.999,1.409 2.894,1.4 3.726,0.781 4.006,-0.039 Z m 4.987,-1.349 c 0.006,0 0.012,0 0.018,10e-4 0.222,0.008 0.398,0.194 0.4,0.422 0,0.011 0,0.02 -0.001,0.03 0.001,0.004 0.001,0.011 0.001,0.026 0.019,1.957 -1.5,3.559 -3.394,3.578 -1.894,0.018 -3.444,-1.554 -3.463,-3.511 -0.002,-0.146 0.005,-0.292 0.021,-0.436 l 0.005,-0.047 h 10e-4 c 0.088,-0.709 0.384,-1.358 0.85,-1.881 0.001,-0.001 0.001,-0.002 0.004,-0.005 0.519,-0.582 1.228,-0.985 2.021,-1.141 l 0.062,-0.012 v 0.002 c 0.028,-0.005 0.057,-0.01 0.092,-0.016 1.086,-0.141 2.002,0.026 2.747,0.392 0.202,0.099 0.375,0.206 0.52,0.313 0.051,0.038 0.095,0.073 0.132,0.104 0.022,0.02 0.037,0.034 0.045,0.041 0.194,0.196 0.203,0.282 0.09,0.461 C 4.877,-2.602 4.73,-2.394 4.73,-2.394 4.627,-2.264 4.534,-2.233 4.401,-2.349 4.377,-2.369 4.356,-2.382 4.344,-2.395 3.545,-3.09 2.505,-3.218 1.602,-3.02 1.417,-2.968 1.243,-2.903 1.083,-2.825 0.469,-2.509 0.027,-1.95 -0.095,-1.299 l 5.066,-0.049 c 0.004,0 0.01,-10e-4 0.016,-10e-4" /></g><g
           transform="translate(210.4064,598.691)"
           id="g342"><path
             id="path344"
             style="fill:#ffffff;fill-opacity:1;fillRule:nonzero;stroke:none"
             d="m 0,0 c -1.221,0.012 -2.208,0.993 -2.227,2.207 l 10e-4,0.116 c 0.042,1.213 1.049,2.174 2.27,2.162 C 1.286,4.473 2.283,3.459 2.271,2.221 2.259,0.982 1.242,-0.012 0,0 M 0.057,5.785 C -0.775,5.794 -1.565,5.515 -2.199,5.008 l 0.005,0.548 c 0.002,0.19 -0.05,0.252 -0.25,0.254 l -0.8,0.008 c -0.2,0.002 -0.253,-0.054 -0.255,-0.25 l -0.1,-10.198 c -10e-4,-0.186 0.05,-0.253 0.25,-0.255 l 0.801,-0.008 c 0.2,-0.002 0.253,0.063 0.254,0.25 l 0.041,4.161 c 0.624,-0.519 1.409,-0.814 2.241,-0.822 1.962,-0.019 3.569,1.553 3.588,3.51 0.019,1.958 -1.556,3.56 -3.519,3.579" /></g><g
           transform="translate(216.5578,601.6766)"
           id="g346"><path
             id="path348"
             style="fill:#ffffff;fill-opacity:1;fillRule:nonzero;stroke:none"
             d="M 0,0 C 0.271,0.855 1.072,1.418 1.999,1.409 2.894,1.4 3.726,0.781 4.006,-0.039 Z m 5.405,-0.87 c 0.019,1.957 -1.5,3.559 -3.394,3.578 -1.894,0.018 -3.444,-1.554 -3.463,-3.511 -0.002,-0.146 0.005,-0.292 0.021,-0.436 l 0.005,-0.047 h 10e-4 c 0.088,-0.709 0.384,-1.358 0.85,-1.881 0.001,-0.001 0.001,-0.002 0.004,-0.005 0.519,-0.582 1.229,-0.985 2.021,-1.141 l 0.062,-0.012 v 0.002 c 0.028,-0.005 0.057,-0.01 0.093,-0.016 1.085,-0.141 2.001,0.026 2.746,0.392 0.202,0.099 0.376,0.206 0.52,0.313 0.051,0.038 0.095,0.073 0.132,0.104 0.022,0.02 0.038,0.034 0.045,0.042 0.194,0.195 0.203,0.281 0.091,0.46 C 4.877,-2.602 4.73,-2.394 4.73,-2.394 4.628,-2.264 4.535,-2.233 4.401,-2.349 4.377,-2.369 4.356,-2.382 4.344,-2.395 3.546,-3.09 2.505,-3.218 1.602,-3.02 1.417,-2.968 1.243,-2.903 1.083,-2.825 0.469,-2.509 0.027,-1.95 -0.095,-1.298 l 5.066,-0.05 c 0.004,0 0.01,0 0.016,-10e-4 0.006,0 0.012,0 0.018,10e-4 0.222,0.008 0.398,0.194 0.4,0.422 0,0.011 0,0.02 -0.001,0.03 0.001,0.004 0.001,0.011 0.001,0.026" /></g><g
           transform="translate(159.4411,575.4082)"
           id="g350"><path
             id="path352"
             style="fill:none;stroke:#d3422a;stroke-width:1.5;stroke-linecap:round;stroke-linejoin:miter;stroke-miterlimit:10;stroke-dasharray:none;stroke-opacity:1"
             d="M 0,0 H 75.825" /></g><g
           transform="translate(276.8434,545.726)"
           id="g354"><path
             id="path356"
             style="fill:#935627;fill-opacity:1;fillRule:nonzero;stroke:none"
             d="M 0,0 C 2.16,-11.182 12.975,-18.495 24.156,-16.335 35.338,-14.176 42.652,-3.36 40.492,7.821 38.332,19.003 27.517,26.316 16.335,24.156 5.154,21.997 -2.16,11.182 0,0" /></g><g
           transform="translate(240.319,507.7986)"
           id="g358"><path
             id="path360"
             style="fill:#935627;fill-opacity:1;fillRule:nonzero;stroke:none"
             d="M 0,0 64.61,22.531 47.149,60.052 -16.012,24.332" /></g><g
           transform="translate(266.4362,556.0066)"
           id="g362"><path
             id="path364"
             style="fill:none;stroke:#5e361b;stroke-width:1.5;stroke-linecap:round;stroke-linejoin:miter;stroke-miterlimit:10;stroke-dasharray:none;stroke-opacity:1"
             d="M 0,0 10.602,5.946" /></g><g
           transform="translate(217.8778,506.4456)"
           id="g366"><path
             id="path368"
             style="fill:#935627;fill-opacity:1;fillRule:nonzero;stroke:none"
             d="M 0,0 C 8.88,-0.126 19.016,0.495 22.441,1.353 22.44,1.355 6.651,25.811 6.651,25.811 c -5.786,1.312 -9.405,3.554 -14.818,1.271 -1.706,-0.719 -3.323,-1.72 -5.053,-2.369 -2.34,-0.879 -5.217,0.679 -7.39,-0.635 -1.076,-0.65 -1.557,-2.049 -1.332,-3.286 0.225,-1.237 1.055,-2.301 2.067,-3.047 1.012,-0.745 2.201,-1.209 3.39,-1.617 1.132,-0.388 2.278,-0.735 3.433,-1.047 0.569,-0.153 1.14,-0.298 1.713,-0.435 0.251,-0.06 0.495,-0.085 0.741,-0.122 0.193,-0.028 0.339,-0.112 0.357,-0.333" /></g></g></g></g></svg>